<?xml version="1.0" encoding="UTF-8"?>
<svg width="42px" height="40px" viewBox="0 0 42 40" version="1.1" xmlns="http://www.w3.org/2000/svg" xmlns:xlink="http://www.w3.org/1999/xlink">
    <!-- Generator: Sketch 42 (36781) - http://www.bohemiancoding.com/sketch -->
    <title>GetGameButtonStatic</title>
    <desc>Created with Sketch.</desc>
    <defs></defs>
    <g id="Page-1" stroke="none" stroke-width="1" fill="none" fill-rule="evenodd">
        <g id="GetGameButtonStatic" transform="translate(-4.000000, -5.000000)" fill-rule="nonzero">
            <polygon id="Shape" fill-opacity="0" fill="#000000" points="0 0 50 0 50 45 46 45 46 5 4 5 4 45 0 45"></polygon>
            <polygon id="Shape" fill="#348C68" points="4 5 14 5 14 13 13 13 13 17 12 17 12 13 11 13 11 9 10 9 10 13 8 13 8 9 7 9 7 17 6 17 6 13 4 13"></polygon>
            <polygon id="Shape" fill="#81C351" points="14 5 18 5 18 9 14 9"></polygon>
            <polygon id="Shape" fill="#6CAF3C" points="18 5 22 5 22 9 18 9"></polygon>
            <polygon id="Shape" fill="#79BA48" points="22 5 26 5 26 9 22 9"></polygon>
            <polygon id="Shape" fill="#81C351" points="26 5 30 5 30 9 26 9"></polygon>
            <polygon id="Shape" fill="#79BA48" points="30 5 34 5 34 9 30 9"></polygon>
            <polygon id="Shape" fill="#6FB03D" points="34 5 38 5 38 9 34 9"></polygon>
            <polygon id="Shape" fill="#69AB37" points="38 5 42 5 42 9 38 9"></polygon>
            <polygon id="Shape" fill="#77B946" points="42 5 46 5 46 9 42 9"></polygon>
            <polygon id="Shape" fill="#5CA028" points="7 9 8 9 8 13 7 13"></polygon>
            <polygon id="Shape" fill="#391621" points="10 9 11 9 11 13 10 13"></polygon>
            <polygon id="Shape" fill="#6AAE3A" points="14 9 18 9 18 13 14 13"></polygon>
            <polygon id="Shape" fill="#79BA48" points="18 9 22 9 22 13 18 13"></polygon>
            <polygon id="Shape" fill="#6AAE3A" points="22 9 26 9 26 13 22 13"></polygon>
            <polygon id="Shape" fill="#5A381E" points="26 9 30 9 30 13 26 13"></polygon>
            <polygon id="Shape" fill="#8BCD5D" points="30 9 34 9 34 13 30 13"></polygon>
            <polygon id="Shape" fill="#A6D674" points="34 9 38 9 38 13 34 13"></polygon>
            <polygon id="Shape" fill="#5CA028" points="38 9 42 9 42 13 38 13"></polygon>
            <polygon id="Shape" fill="#81C351" points="42 9 46 9 46 13 42 13"></polygon>
            <polygon id="Shape" fill="#391621" points="4 13 6 13 6 17 4 17"></polygon>
            <polygon id="Shape" fill="#4F5F76" points="7 13 8 13 8 17 7 17"></polygon>
            <polygon id="Shape" fill="#391621" points="8 13 10 13 10 17 8 17"></polygon>
            <polygon id="Shape" fill="#4E3936" points="10 13 11 13 11 17 10 17"></polygon>
            <polygon id="Shape" fill="#4F5F76" points="11 13 12 13 12 17 11 17"></polygon>
            <polygon id="Shape" fill="#4E3936" points="13 13 14 13 14 37 13 37 13 41 12 41 12 45 7 45 7 41 6 41 6 37 7 37 7 33 6 33 6 29 4 29 4 17 7 17 7 21 8 21 8 17 10 17 10 25 11 25 11 21 12 21 12 17 13 17"></polygon>
            <polygon id="Shape" fill="#805838" points="14 13 18 13 18 17 14 17"></polygon>
            <polygon id="Shape" fill="#81C351" points="18 13 22 13 22 17 18 17"></polygon>
            <polygon id="Shape" fill="#4F5F76" points="22 13 26 13 26 17 22 17"></polygon>
            <polygon id="Shape" fill="#805838" points="26 13 30 13 30 17 26 17"></polygon>
            <polygon id="Shape" fill="#5A381E" points="30 13 34 13 34 17 30 17"></polygon>
            <polygon id="Shape" fill="#757575" points="34 13 38 13 38 17 34 17"></polygon>
            <polygon id="Shape" fill="#6FB03D" points="38 13 42 13 42 17 38 17"></polygon>
            <polygon id="Shape" fill="#5A381E" points="42 13 46 13 46 17 42 17"></polygon>
            <polygon id="Shape" fill="#6A4840" points="7 17 8 17 8 21 7 21"></polygon>
            <polygon id="Shape" fill="#6A4840" points="10 17 11 17 11 21 10 21"></polygon>
            <polygon id="Shape" fill="#391621" points="11 17 12 17 12 21 11 21"></polygon>
            <polygon id="Shape" fill="#A2754E" points="14 17 18 17 18 21 14 21"></polygon>
            <polygon id="Shape" fill="#805838" points="18 17 22 17 22 21 18 21"></polygon>
            <polygon id="Shape" fill="#5A381E" points="22 17 26 17 26 21 22 21"></polygon>
            <polygon id="Shape" fill="#C69065" points="26 17 30 17 30 21 26 21"></polygon>
            <polygon id="Shape" fill="#805838" points="30 17 34 17 34 21 30 21"></polygon>
            <polygon id="Shape" fill="#C69065" points="34 17 38 17 38 21 34 21"></polygon>
            <polygon id="Shape" fill="#A2754E" points="38 17 42 17 42 21 38 21"></polygon>
            <polygon id="Shape" fill="#805838" points="42 17 46 17 46 21 42 21"></polygon>
            <polygon id="Shape" fill="#391621" points="10 21 11 21 11 25 10 25"></polygon>
            <polygon id="Shape" fill="#805838" points="14 21 18 21 18 25 14 25"></polygon>
            <polygon id="Shape" fill="#A2754E" points="18 21 26 21 26 25 18 25"></polygon>
            <polygon id="Shape" fill="#5A381E" points="26 21 30 21 30 25 26 25"></polygon>
            <polygon id="Shape" fill="#A2754E" points="30 21 34 21 34 25 30 25"></polygon>
            <polygon id="Shape" fill="#805838" points="34 21 42 21 42 25 34 25"></polygon>
            <polygon id="Shape" fill="#A2754E" points="42 21 46 21 46 25 42 25"></polygon>
            <polygon id="Shape" fill="#6A4840" points="8 25 10 25 10 29 8 29"></polygon>
            <polygon id="Shape" fill="#6A4840" points="12 25 13 25 13 29 12 29"></polygon>
            <polygon id="Shape" fill="#A2754E" points="14 25 18 25 18 29 14 29"></polygon>
            <polygon id="Shape" fill="#C69065" points="18 25 22 25 22 29 18 29"></polygon>
            <polygon id="Shape" fill="#805838" points="22 25 26 25 26 29 22 29"></polygon>
            <polygon id="Shape" fill="#A2754E" points="26 25 30 25 30 29 26 29"></polygon>
            <polygon id="Shape" fill="#C69065" points="30 25 34 25 34 29 30 29"></polygon>
            <polygon id="Shape" fill="#A2754E" points="34 25 42 25 42 33 38 33 38 29 34 29"></polygon>
            <polygon id="Shape" fill="#805838" points="42 25 46 25 46 29 42 29"></polygon>
            <polygon id="Shape" fill="#6A4840" points="4 29 6 29 6 33 4 33"></polygon>
            <polygon id="Shape" fill="#4F5F76" points="10 29 11 29 11 33 10 33"></polygon>
            <polygon id="Shape" fill="#391621" points="12 29 13 29 13 33 12 33"></polygon>
            <polygon id="Shape" fill="#805838" points="14 29 18 29 18 37 14 37"></polygon>
            <polygon id="Shape" fill="#5A381E" points="18 29 22 29 22 33 18 33"></polygon>
            <polygon id="Shape" fill="#A2754E" points="22 29 26 29 26 33 22 33"></polygon>
            <polygon id="Shape" fill="#757575" points="26 29 30 29 30 33 26 33"></polygon>
            <polygon id="Shape" fill="#A2754E" points="30 29 34 29 34 33 38 33 38 37 30 37"></polygon>
            <polygon id="Shape" fill="#805838" points="34 29 38 29 38 33 34 33"></polygon>
            <polygon id="Shape" fill="#C69065" points="42 29 46 29 46 33 42 33"></polygon>
            <polygon id="Shape" fill="#4E3936" points="4 33 6 33 6 37 4 37"></polygon>
            <polygon id="Shape" fill="#391621" points="6 33 7 33 7 37 6 37"></polygon>
            <polygon id="Shape" fill="#391621" points="10 33 11 33 11 37 10 37"></polygon>
            <polygon id="Shape" fill="#A2754E" points="18 33 22 33 22 37 18 37"></polygon>
            <polygon id="Shape" fill="#805838" points="22 33 26 33 26 37 22 37"></polygon>
            <polygon id="Shape" fill="#5A381E" points="26 33 30 33 30 37 26 37"></polygon>
            <polygon id="Shape" fill="#5A381E" points="38 33 42 33 42 37 38 37"></polygon>
            <polygon id="Shape" fill="#A2754E" points="42 33 46 33 46 37 42 37"></polygon>
            <polygon id="Shape" fill="#6A4840" points="4 37 6 37 6 41 4 41"></polygon>
            <polygon id="Shape" fill="#6A4840" points="8 37 10 37 10 41 8 41"></polygon>
            <polygon id="Shape" fill="#6A4840" points="13 37 14 37 14 41 13 41"></polygon>
            <polygon id="Shape" fill="#C69065" points="14 37 18 37 18 41 14 41"></polygon>
            <polygon id="Shape" fill="#805838" points="18 37 22 37 22 41 18 41"></polygon>
            <polygon id="Shape" fill="#A2754E" points="22 37 30 37 30 41 38 41 38 45 26 45 26 41 22 41"></polygon>
            <polygon id="Shape" fill="#C69065" points="30 37 34 37 34 41 30 41"></polygon>
            <polygon id="Shape" fill="#805838" points="34 37 42 37 42 41 34 41"></polygon>
            <polygon id="Shape" fill="#C69065" points="42 37 46 37 46 41 42 41"></polygon>
            <polygon id="Shape" fill="#4E3936" points="4 41 6 41 6 45 4 45"></polygon>
            <polygon id="Shape" fill="#4F5F76" points="6 41 7 41 7 45 6 45"></polygon>
            <polygon id="Shape" fill="#6A4840" points="12 41 13 41 13 45 12 45"></polygon>
            <polygon id="Shape" fill="#391621" points="13 41 14 41 14 45 13 45"></polygon>
            <polygon id="Shape" fill="#A2754E" points="14 41 18 41 18 45 14 45"></polygon>
            <polygon id="Shape" fill="#C69065" points="18 41 22 41 22 45 18 45"></polygon>
            <polygon id="Shape" fill="#805838" points="22 41 26 41 26 45 22 45"></polygon>
            <polygon id="Shape" fill="#757575" points="38 41 42 41 42 45 38 45"></polygon>
            <polygon id="Shape" fill="#A2754E" points="42 41 46 41 46 45 42 45"></polygon>
        </g>
    </g>
</svg>