<?xml version="1.0" encoding="utf-8"?>
<!-- Generator: Adobe Illustrator 23.1.1, SVG Export Plug-In . SVG Version: 6.00 Build 0)  -->
<svg version="1.1" id="Layer_1" xmlns="http://www.w3.org/2000/svg" xmlns:xlink="http://www.w3.org/1999/xlink" x="0px" y="0px"
	 viewBox="0 0 12 18" style="enable-background:new 0 0 12 18;" xml:space="preserve">
<style type="text/css">
	.st0{opacity:0.5;fill:#E62CFF;enable-background:new    ;}
	.st1{opacity:0.5;fill:#FF2BB1;enable-background:new    ;}
	.st2{fill:#FF2BB1;}
	.st3{fill:#F092FB;}
</style>
<rect x="6" y="10" class="st0" width="4" height="2"/>
<rect x="4" y="12" class="st0" width="4" height="2"/>
<rect x="2" y="14" class="st0" width="4" height="2"/>
<rect x="2" y="2" class="st1" width="4" height="2"/>
<rect x="4" y="4" class="st1" width="4" height="2"/>
<rect x="6" y="6" class="st1" width="4" height="2"/>
<rect x="8" y="8" class="st1" width="4" height="2"/>
<polygon class="st2" points="10,8 8,8 8,6 6,6 6,4 4,4 4,2 0,2 0,16 4,16 4,14 6,14 6,12 8,12 8,10 10,10 "/>
<rect y="16" class="st0" width="4" height="2"/>
<polygon class="st3" points="4,0 0,0 0,2 0,18 2,18 2,2 4,2 "/>
</svg>
