<svg xmlns="http://www.w3.org/2000/svg" viewBox="0 0 245 256.15"><defs><style>.a{fill:#fff;}</style></defs><title>twitch</title><path class="a" d="M61.35,255.94a5,5,0,0,1-.14-2q0-14.5,0-29c0-.53,0-1.06,0-1.6,0-.39-.19-.61-.59-.61H2.21c-.46,0-.93,0-1.4,0-.63,0-.75-.17-.78-.88,0-.2,0-.4,0-.6v-1.2Q0,133.49,0,46.9a11.91,11.91,0,0,1,.77-4.27C5.88,29.06,10.94,15.48,16.05,1.92c.86-2.27.37-1.9,2.82-1.9h225c1,0,1.1.1,1.13,1.15,0,.47,0,.93,0,1.4q0,75.59,0,151.18c0,2.64.4,1.8-1.58,3.79q-31.89,31.89-63.76,63.79a4.41,4.41,0,0,1-3.46,1.46c-15.33,0-30.66,0-46-.07a4.65,4.65,0,0,0-3.63,1.55q-15,15.1-30.08,30.15a5.21,5.21,0,0,0-.7.71,2.71,2.71,0,0,1-2.45,1q-15.19,0-30.39,0A3.17,3.17,0,0,1,61.35,255.94ZM89.2,216.86S111,195.22,121,185.14a4.65,4.65,0,0,1,3.64-1.53q28.4.07,56.79,0c.54,0,1.07,0,1.6,0a1.49,1.49,0,0,0,1.23-.52c.32-.35,37.44-37.51,37.75-37.77a1.75,1.75,0,0,0,.63-1.59c0-.4,0-79.59,0-118.79,0-.79.35-1.75-.19-2.32s-1.63-.27-2.47-.27q-89.08,0-178.18,0c-.84,0-1.89-.38-2.47.27s-.16,1.53-.16,2.32q0,78.09,0,156.18c0,.78-.37,1.75.23,2.29s1.52.18,2.31.19H88.47a.67.67,0,0,1,.72.75C89.2,184.94,89.2,216.86,89.2,216.86Z"/><rect class="a" x="100.18" y="66.8" width="22.43" height="66.89" rx="0.77"/><rect class="a" x="161.38" y="66.8" width="22.43" height="66.89" rx="0.75"/></svg>