<svg xmlns="http://www.w3.org/2000/svg" viewBox="0 0 589.4 527.88"><defs><style>.a{fill:#fff;fill-rule:evenodd;}</style></defs><title>mixer</title><path class="a" d="M515.72,527.88C484.56,526.79,469.8,503.28,454,482,408,420.18,365.38,355.68,316.18,297.18c-21.32-25.69-19.13-44.28-1.64-63.42,54.67-58.49,94.58-127.37,141-191.34,17.49-24,40.45-48.65,74.89-41C560,8,581.87,27.66,584.61,61c2.18,24.6-8.75,44.28-22.42,62.87-29.52,39.91-59,79.27-90.2,117.54-13.67,17-12,28.43,1.09,45.37,35.54,45.92,67.79,94,102.78,140,16.95,21.86,17.49,41.54,4.37,65.05-14.21,25.7-36.63,33.9-64.51,36.08Z"/><path class="a" d="M60.88,521.87c-23.51-.55-42.64-9.3-53.58-30.62-12.57-24.6-8.2-48.65,7.66-70C48.31,375.9,81.65,331.07,116.1,286.79c12.57-15.85,13.12-28.42,0-44.83C80.56,197.14,47.21,150.67,13.32,104.2c-16.95-23.51-18-48.66-1.1-72.71C27,10.72,48.31,5.25,72.36,9.08c17.49,2.73,29,14.21,38.81,27.33,51.39,68.34,101.69,136.67,153.62,205,12.58,16.4,12.58,28.43,0,45.37-51.93,67.79-102.23,136.67-153.07,205-12.57,17.49-29,28.43-50.84,30.07Z"/></svg>