<svg xmlns="http://www.w3.org/2000/svg" viewBox="0 0 56 40" id="pixel-discord" fill="white">
    <path d="M52.000,36.000 L52.000,40.000 L40.000,40.000 L40.000,36.000 L44.000,36.000 L44.000,32.000 L40.000,32.000 L40.000,36.000 L16.000,36.000 L16.000,32.000 L12.000,32.000 L12.000,36.000 L16.000,36.000 L16.000,40.000 L4.000,40.000 L4.000,36.000 L-0.000,36.000 L-0.000,32.000 L-0.000,28.000 L-0.000,20.000 L-0.000,16.000 L4.000,16.000 L4.000,12.000 L4.000,8.000 L8.000,8.000 L8.000,4.000 L12.000,4.000 L12.000,8.000 L16.000,8.000 L16.000,4.000 L40.000,4.000 L40.000,8.000 L44.000,8.000 L44.000,4.000 L48.000,4.000 L48.000,8.000 L52.000,8.000 L52.000,12.000 L52.000,16.000 L56.000,16.000 L56.000,20.000 L56.000,28.000 L56.000,32.000 L56.000,36.000 L52.000,36.000 ZM24.000,20.000 L16.000,20.000 L16.000,28.000 L24.000,28.000 L24.000,20.000 ZM40.000,20.000 L32.000,20.000 L32.000,28.000 L40.000,28.000 L40.000,20.000 ZM12.000,0.000 L16.000,0.000 L16.000,4.000 L12.000,4.000 L12.000,0.000 ZM40.000,0.000 L44.000,0.000 L44.000,4.000 L40.000,4.000 L40.000,0.000 Z"/>
</svg>