<?xml version="1.0" encoding="utf-8"?>
<!-- Generator: Adobe Illustrator 23.0.1, SVG Export Plug-In . SVG Version: 6.00 Build 0)  -->
<svg version="1.1" id="Layer_1" xmlns="http://www.w3.org/2000/svg" xmlns:xlink="http://www.w3.org/1999/xlink" x="0px" y="0px"
	 viewBox="0 0 301 74" style="enable-background:new 0 0 301 74;" xml:space="preserve">
<style type="text/css">
	.st0{fill:#020303;}
	.st1{fill:#A89E9B;}
	.st2{fill:#29282A;}
	.st3{opacity:0.44;}
	.st4{opacity:0.5;}
	.st5{fill:#5B5558;}
	.st6{fill:#DFDAD5;}
	.st7{fill:url(#SVGID_1_);}
	.st8{fill:url(#SVGID_2_);}
	.st9{fill:url(#SVGID_3_);}
	.st10{fill:url(#SVGID_4_);}
	.st11{fill:url(#SVGID_5_);}
	.st12{fill:url(#SVGID_6_);}
	.st13{fill:url(#SVGID_7_);}
	.st14{fill:url(#SVGID_8_);}
	.st15{fill:url(#SVGID_9_);}
	.st16{fill:url(#SVGID_10_);}
	.st17{fill:url(#SVGID_11_);}
	.st18{fill:url(#SVGID_12_);}
	.st19{fill:url(#SVGID_13_);}
	.st20{fill:url(#SVGID_14_);}
	.st21{fill:url(#SVGID_15_);}
</style>
<g id="Page-1">
	<g id="Minecraft_realms_logo">
		<g id="Group">
			<g id="Shape">
				<g>
					<polygon class="st0" points="13.5,49.9 0.7,38 12.8,0.5 26.8,0.5 33.8,10.1 34.6,7 38.6,7 40.3,0.5 54.7,0.5 55.7,2.2 56,0.5 
						70.6,0.5 71.5,2.4 71.8,0.5 86.5,0.5 89.1,7.1 89.4,7.1 90.3,9.2 91.5,0.5 106.4,0.4 107.1,2.9 107.3,0.4 138.3,0.4 
						139.8,14.4 139.5,22.6 138.8,22.6 139.3,27.1 139,35.8 138.1,35.8 138.8,40.7 138.4,49.8 107.7,49.8 106.9,47.6 106.7,49.8 
						92,49.8 88.1,41.7 86.9,49.8 72.4,49.8 71.3,48.2 71,49.8 56.6,49.8 55.5,48.3 55.2,49.8 40.9,49.8 34.7,42.7 30.9,42.7 
						29.7,41.3 27.4,49.9 					"/>
					<path class="st0" d="M169.5,14.4l1.3-14h31.1l0.3,2.6l0.7-2.6h30.8l0.3,2l0.9-2h30.6l0.4,1.7l1.1-1.7h30.4L300,9l-6.1,7.3
						l0.1,0.3c0.4,1.4,0.9,2.9,1.3,4.3c0.3,1,2.2,7.2,2.2,7.2l0.9,2.9c0.3,1,0.6,1.9,0.9,2.9c0.3,1,0.6,2,0.8,2.9l0.3,1.1
						l-11.9,11.9h-14.3l-5.8-23.4l-6.8,9.4h-4.8l0.4,2l-8.4,12h-14.5L234,48l-1,1.8h-14.6l-0.3-2l-0.9,2h-14.8l-0.2-2.3l-0.8,2.3
						h-14.9l-0.2-3l-0.6,3h-15.1L169.5,14.4z"/>
					<polygon class="st0" points="137.7,37.6 139,0.4 170.2,0.4 170.4,8.9 169.4,22.6 154.6,22.6 154.5,28 171,28 171.3,37.6 
						170.1,49.8 139.1,49.8 					"/>
				</g>
				<g transform="translate(3.000000, 2.000000)">
					<polygon class="st1" points="24.5,6.9 22.6,13.8 31.3,13.8 33.1,7 37.1,7 38.8,0.5 50.2,0.5 42.2,35.2 29.8,35.2 33.5,20.4 
						29,20.4 27.1,27.6 19.1,27.6 21.1,20.4 16.6,20.5 12.2,35.2 0.1,35.2 11.2,0.5 22.5,0.5 20.6,6.8 					"/>
					<polygon class="st1" points="66,0.5 59.2,35.3 46.9,35.3 54.6,0.5 					"/>
					<polygon class="st1" points="82.8,24 83.8,16.8 79.3,16.7 76.3,35.2 64,35.2 70.5,0.4 81.9,0.4 80.9,6.9 84.9,7 83.9,13.7 
						88.3,13.7 90.2,0.4 101.7,0.4 97.7,35.2 85.3,35.2 86.8,24.1 					"/>
					<polygon class="st1" points="132.2,28 131.9,35.2 102.4,35.2 106.1,0.4 133.5,0.4 133.2,6.5 117.1,6.5 116.6,13.6 132.9,13.7 
						132.6,20.4 116,20.4 115.4,27.9 					"/>
					<path class="st1" d="M292.8,0.2l2,6.2h-8v0.2c0.3,1.3,0.7,2.7,1.1,4.1s0.8,2.8,1.2,4.3s0.9,2.9,1.3,4.4c0.5,1.5,0.9,3,1.4,4.5
						c0.3,0.9,0.6,1.8,0.8,2.7c0.3,0.9,0.6,1.9,0.9,2.8s0.6,1.9,0.8,2.8c0.3,0.9,0.6,1.9,0.8,2.8h-12.5l-7.8-28.7h-8l-1.6-6.2
						L292.8,0.2z"/>
					<polygon class="st1" points="264.1,13.4 265.8,20.3 249.1,20.3 252.2,35.1 239.7,35.1 233.3,0.3 260.8,0.3 262.4,6.4 
						246.2,6.4 247.6,13.4 					"/>
					<path class="st1" d="M216.2,23.9l1.5,11.2h-12.4l-3.9-34.8h27.5l6,34.8h-12.4l-1.6-11.2H216.2z M224.3,10.2l-0.7-4.4h-5.4
						l0.5,4.1h-4.3l-0.6-4h-5.3l0.6,4.4h4.8l0.2,1.6h-2.4l0.9,6.8h2.9l-0.2-2.3h4.3l0.4,2.3h3l-1-6.8h-2.4l-0.2-1.6L224.3,10.2
						L224.3,10.2z"/>
					<path class="st1" d="M194.7,17.1h4.1l1.8,18h-12.4L187,20.5l-4.6-0.1l1,14.8H171l-1.3-34.8h27.4l1.3,12.9h-4.1L194.7,17.1z
						 M186.6,13.6L186,6.5h-4.5l0.5,7.2L186.6,13.6L186.6,13.6z"/>
					<polygon class="st1" points="149.5,6.5 165.4,6.5 165.2,0.3 137.9,0.4 136.7,35.2 166.2,35.2 166,28 149.1,28 					"/>
				</g>
				<path class="st2" d="M4.6,37.2c-0.8,0-1,0.5-0.4,1l9,8.6c0.6,0.6,1.8,1,2.6,1h8c0.8,0,1-0.5,0.5-1.1l-7.9-8.5
					c-0.6-0.6-1.7-1.1-2.5-1.1L4.6,37.2z"/>
				<path class="st2" d="M34.3,37.2c-0.8,0-1.1,0.5-0.5,1.1l7,8.4c0.5,0.6,1.6,1.1,2.5,1.1h8.4c0.8,0,1.1-0.5,0.6-1.2l-6.2-8.3
					c-0.5-0.7-1.6-1.2-2.4-1.2L34.3,37.2z"/>
				<path class="st2" d="M23.6,29.6c-0.8,0-1.1,0.5-0.5,1.1l7.8,8.8c0.5,0.6,1.6,1.1,2.3,1.1s0.9-0.6,0.5-1.3l-0.7-1
					c-0.5-0.7-0.7-1.9-0.5-2.7l0.2-0.8c0.2-0.8,0-2-0.5-2.6L31,30.8c-0.5-0.6-1.6-1.2-2.4-1.2H23.6z"/>
				<path class="st2" d="M51.4,37.3c-0.8,0-1.1,0.5-0.6,1.2l6,8.2c0.5,0.7,1.6,1.2,2.4,1.2h8.2c0.8,0,1.1-0.6,0.7-1.3L63,38.5
					c-0.4-0.7-1.5-1.3-2.3-1.3L51.4,37.3z"/>
				<path class="st2" d="M68.5,37.2c-0.8,0-1.1,0.6-0.7,1.3l4.9,8c0.4,0.7,1.5,1.3,2.3,1.3h8c0.8,0,1.2-0.6,0.8-1.3l-3.8-8
					c-0.4-0.7-1.3-1.3-2.2-1.3H68.5z"/>
				<path class="st2" d="M89.8,37.2c-0.8,0-1.2,0.6-0.9,1.4l3.7,8c0.3,0.7,1.3,1.4,2.1,1.4h8.4c0.8,0,1.3-0.6,1-1.4l-2.9-7.9
					c-0.3-0.8-1.2-1.4-2-1.4L89.8,37.2z"/>
				<path class="st2" d="M106.9,37.2c-0.8,0-1.3,0.6-1,1.4l2.7,7.6c0.3,0.8,1.2,1.4,2,1.4h24.3c0.8,0,1.4-0.7,1.3-1.5l-1.1-7.5
					c-0.1-0.8-0.9-1.5-1.7-1.5L106.9,37.2z"/>
				<path class="st2" d="M141.2,37.2c-0.8,0-1.4,0.7-1.3,1.5l0.8,7.7c0.1,0.8,0.8,1.5,1.7,1.5h24.1c0.8,0,1.6-0.7,1.7-1.5l0.9-7.8
					c0.1-0.8-0.5-1.5-1.3-1.5L141.2,37.2z"/>
				<path class="st2" d="M175.5,37.1c-0.8,0-1.6,0.7-1.7,1.5l-1,7.6c-0.1,0.8,0.5,1.5,1.3,1.5h8.2c0.8,0,1.7-0.7,1.8-1.5l1.8-7.7
					c0.2-0.8-0.3-1.5-1.1-1.5L175.5,37.1z"/>
				<path class="st2" d="M192.7,37.1c-0.8,0-1.7,0.7-1.8,1.5l-1.8,7.6c-0.2,0.8,0.3,1.5,1.2,1.5h8.2c0.8,0,1.7-0.6,2-1.4l2.7-7.7
					c0.3-0.8-0.2-1.4-1-1.4L192.7,37.1z"/>
				<path class="st2" d="M209.8,37.1c-0.8,0-1.7,0.6-2,1.4l-2.8,7.8c-0.3,0.8,0.2,1.4,1,1.4h8.2c0.8,0,1.8-0.6,2.1-1.4l3.7-7.9
					c0.3-0.7,0-1.4-0.9-1.4L209.8,37.1z"/>
				<path class="st2" d="M227,37.1c-0.8,0-1.8,0.6-2.2,1.3l-3.9,7.9c-0.4,0.7,0,1.3,0.8,1.3h8.5c0.8,0,1.8-0.6,2.2-1.3l4.6-8
					c0.4-0.7,0.1-1.3-0.7-1.3L227,37.1z"/>
				<path class="st2" d="M244.2,37.1c-0.8,0-1.8,0.6-2.3,1.3l-4.9,8.1c-0.4,0.7-0.1,1.3,0.7,1.3h8.4c0.8,0,1.9-0.5,2.4-1.2l5.8-8.2
					c0.5-0.7,0.2-1.2-0.6-1.2L244.2,37.1z"/>
				<path class="st2" d="M287.2,37.1c-0.8,0-1.9,0.5-2.5,1.1l-7.3,8.3c-0.5,0.6-0.3,1.1,0.5,1.1h8c0.8,0,2-0.5,2.6-1l8.6-8.4
					c0.6-0.6,0.4-1-0.4-1L287.2,37.1z"/>
				<g transform="translate(6.000000, 1.000000)" class="st3">
					<g>
						<path class="st0" d="M6.2,7.3C6.1,7.5,6.7,7.7,7.5,7.7h8.7c0.8,0,1.5-0.2,1.5-0.4c0-0.2-0.7-0.4-1.5-0.4H7.7
							C7,6.9,6.3,7,6.2,7.3z"/>
						<path class="st0" d="M5.6,24.8c0.3-0.8-0.2-1.4-1-1.4H2.3c-0.8,0-1.5,0.2-1.5,0.4c0,0.2,0.7,0.4,1.5,0.4h1.3
							c0.8,0,1.3,0.6,1,1.4l-2,6c-0.3,0.8,0.2,1.4,1,1.4h6.6c0.8,0,1.5-0.2,1.5-0.4c0-0.2-0.7-0.4-1.5-0.4H4.7c-0.8,0-1.3-0.6-1-1.4
							l0.2-0.7c0.3-0.8,1.1-1.4,2-1.4H11c0.8,0,1.5-0.2,1.5-0.4c0-0.2-0.7-0.4-1.5-0.4H6.1c-0.8,0-1.3-0.6-1-1.4L5.6,24.8z"/>
						<path class="st0" d="M39.5,8.6c0.1-0.8-0.5-1.5-1.3-1.5h-2.7c-0.8,0-1.6,0.2-1.6,0.4c-0.1,0.2,0.5,0.4,1.4,0.4h2.1
							c0.8,0,1.4,0.7,1.3,1.5l-0.4,2.8c-0.1,0.8-0.9,1.5-1.7,1.5h-8c-0.8,0-1.5,0.2-1.5,0.4c0,0.2,0.7,0.4,1.5,0.4h7.9h1.7h1.7h4.2
							c0.8,0,1.5-0.2,1.5-0.4c0-0.2-0.7-0.4-1.5-0.4h-3.8c-0.8,0-1.4-0.7-1.3-1.5L39.5,8.6z"/>
						<path class="st0" d="M50.2,31.8c0.1-0.8,0-1.1-0.3-0.6c-0.3,0.5-0.6,1.5-0.8,2.3L48.9,35c-0.2,0.8,0.1,2,0.6,2.7l0.6,0.8
							c0.5,0.7,1.2,1.5,1.7,1.9c0.5,0.4,0.5,0.1,0-0.6l-1.5-2.3c-0.5-0.7-0.7-1.9-0.6-2.7L50.2,31.8z"/>
						<path class="st0" d="M62.4,8.5c0-0.2-0.7-0.4-1.5-0.3l-3.4,0.1c-0.8,0-1.1,0.2-0.7,0.3c0.4,0.1,1.5,0.3,2.3,0.3h1.8
							C61.7,8.9,62.4,8.7,62.4,8.5z"/>
						<path class="st0" d="M67.1,33.7c0.2-0.8,0.1-1.1-0.2-0.6c-0.3,0.5-0.7,1.4-0.8,2c-0.1,0.6,0,1.8,0.3,2.5
							c0.3,0.8,0.8,1.7,1.1,2.1c0.3,0.4,0.4,0.1,0.1-0.7L67,37.5c-0.3-0.8-0.3-2.1-0.1-2.9L67.1,33.7z"/>
						<path class="st0" d="M63.9,25c-0.8,0-1.5,0.1-1.5,0.3c0,0.2,0.7,0.4,1.5,0.5l9.3,0.5c0.8,0,1.7,0.4,2,0.9
							c0.3,0.5,0.7,0.7,0.8,0.6c0.2-0.1,0-0.6-0.3-1.2c-0.3-0.5-1.3-1-2.1-1L63.9,25z"/>
						<path class="st0" d="M73.6,7.3c0.3,0.2,1.3,0.4,2.1,0.4h0.9c0.8,0,1.5-0.2,1.5-0.4c0-0.2-0.6-0.3-1.4-0.4l-2.2-0.1
							C73.7,6.9,73.3,7.1,73.6,7.3z"/>
						<path class="st0" d="M84.3,25.2c-0.8,0-1.5,0.2-1.5,0.4c0,0.2,0.7,0.4,1.5,0.3l5.5-0.2c0.8,0,1.4,0.6,1.3,1.4L90,34.7
							c-0.1,0.8,0,2.1,0.2,2.9l0.3,1c0.2,0.8,0.7,1.9,1.1,2.4s0.5,0.3,0.2-0.5l-0.9-3c-0.2-0.8-0.3-2.1-0.2-2.9l1.2-8.3
							c0.1-0.8-0.4-1.5-1.3-1.4L84.3,25.2z"/>
						<path class="st0" d="M86.2,7.1c0,0.2,0.6,0.5,1.4,0.6l9.2,1.1c0.8,0.1,1.5,0,1.5-0.2c0-0.2-0.7-0.5-1.5-0.6l-9-1
							C87,6.9,86.3,6.9,86.2,7.1z"/>
						<path class="st0" d="M105.8,29.8c0-0.8-0.6-1.5-1.4-1.5h-3.5c-0.8,0-1.5,0.2-1.5,0.4c0,0.2,0.7,0.4,1.5,0.4h2.7
							c0.8,0,1.5,0.7,1.4,1.5l-0.1,4c0,0.8,0.1,2.1,0.3,2.9l0.7,2.6c0.2,0.8,0.6,1.9,0.9,2.4c0.3,0.5,0.4,0.3,0.2-0.5l-1-4.5
							c-0.2-0.8-0.3-2.1-0.3-3L105.8,29.8z"/>
						<path class="st0" d="M101.3,11.5c0,0.2,0.7,0.4,1.5,0.4h3.3c0.8,0,1.9-0.2,2.3-0.4c0.5-0.2,0.1-0.4-0.7-0.4l-5,0.1
							C101.9,11.1,101.3,11.3,101.3,11.5z"/>
						<path class="st0" d="M122.1,15.3c0-0.8-0.2-1.5-0.4-1.5c-0.2,0-0.4,0.7-0.4,1.5v3.9c0,0.8,0.2,1.1,0.4,0.6
							c0.2-0.5,0.4-1.6,0.4-2.4V15.3z"/>
						<path class="st0" d="M125.8,29.3c0,0.8-0.7,1.5-1.5,1.5h-2.7c-0.8,0-1.5,0.7-1.5,1.5V35c0,0.8,0.2,1.5,0.4,1.5
							s0.4-0.7,0.4-1.5v-1.9c0-0.8,0.7-1.5,1.5-1.5h2.7c0.8,0,1.5-0.7,1.5-1.5v-1c0-0.8-0.1-1.5-0.3-1.5c-0.2,0-0.4,0.7-0.4,1.5
							L125.8,29.3z"/>
						<path class="st0" d="M156.9,30.9c-0.2,0.3-0.2,1.3-0.2,2.1l0.2,1.8c0.1,0.8,0.1,2.2,0,3l-1.1,8c-0.1,0.8,0,1.5,0.3,1.5
							c0.3,0,0.5-0.7,0.6-1.5l1-7.9c0.1-0.8,0.1-2.2,0-3l-0.3-3C157.2,31,157,30.6,156.9,30.9z"/>
						<path class="st0" d="M134.1,42.8c0,0.2,0.7,0.4,1.5,0.4h0.7c0.8,0,1.5-0.2,1.5-0.4s-0.7-0.4-1.5-0.4h-0.7
							C134.7,42.5,134.1,42.6,134.1,42.8z"/>
						<path class="st0" d="M137,12.5c0.4,0.2,1.4,0.5,2.2,0.7l6.5,1.2c0.8,0.3,1.4,0.4,1.5,0.2c0.1-0.2-0.5-0.6-1.3-0.8l-8.2-1.4
							C136.9,12.3,136.6,12.3,137,12.5z"/>
						<path class="st0" d="M136.8,19.5c0.3-0.2,0-0.4-0.9-0.4h-0.5c-0.8,0-1.5,0.2-1.5,0.4s0.5,0.4,1.1,0.4S136.5,19.8,136.8,19.5z"
							/>
						<path class="st0" d="M172.1,12.9c0.1,0.5,0.8,0.9,1.6,0.9h1c0.8,0,1.6,0,1.7,0.1c0.1,0,0.6,0.4,0.8,0.3c0.2-0.1,0-0.4-0.3-0.7
							c-0.3-0.3-1.3-0.5-2.1-0.5h-0.4c-0.8,0-1.6-0.7-1.7-1.5l-1-9.2c-0.1-0.8-0.3-1.5-0.5-1.4c-0.2,0-0.3,0.7-0.2,1.5l0.8,7.3
							c0.1,0.8-0.5,1.5-1.3,1.5h-2.8c-0.8,0-1.5,0.2-1.5,0.4c0,0.2,0.7,0.4,1.5,0.4h2.9C171.4,12,172.1,12.4,172.1,12.9z"/>
						<path class="st0" d="M171.1,30.8c0.1,0.8-0.2,2.1-0.6,2.8l-0.8,1c-0.2,0.8-0.2,1.5,0,1.5s0.6-0.6,0.8-1.3c0,0,0.1-0.5,0.5-1
							c0.3-0.5,0.7-0.9,0.8-0.9c0.1,0,0.2-0.7,0.1-1.5l-0.3-4.3c-0.1-0.8,0.6-1.5,1.4-1.5h6.3c0.8,0,1.5-0.2,1.5-0.4
							c0-0.2-0.7-0.4-1.5-0.4h-7.1c-0.8,0-1.5,0.7-1.4,1.5L171.1,30.8z"/>
						<path class="st0" d="M183.8,27.6c0,0.2,0.7,0.4,1.5,0.4h4.3c0.8,0,1.8-0.2,2.2-0.4c0.4-0.2,0-0.4-0.8-0.4h-5.7
							C184.5,27.2,183.8,27.4,183.8,27.6z"/>
						<path class="st0" d="M187.3,16.9c0.2,0.2,1.1,0.3,1.9,0.3h1.4c0.8,0,1.5-0.2,1.5-0.4c0-0.2-0.7-0.4-1.5-0.4h-2.2
							C187.6,16.5,187.1,16.7,187.3,16.9z"/>
						<path class="st0" d="M166.5,43.5c0,0.2,0.6,0.4,1.5,0.5l9.3,0.7c0.8,0.1,1.5-0.1,1.5-0.3c0-0.2-0.6-0.4-1.5-0.5l-9.3-0.7
							C167.2,43.1,166.5,43.3,166.5,43.5z"/>
						<path class="st0" d="M219,27.3c-0.8,0-1.5,0.2-1.5,0.4c0,0.2,0.7,0.4,1.5,0.4l11.3,1.2c0.8,0.1,1.5,0,1.6-0.2
							c0.1-0.2-0.5-0.4-1.4-0.5L219,27.3z"/>
						<path class="st0" d="M253.5,13.3c-0.2,0.1-0.3,0.8-0.3,1.6l1,5.3c-0.4,0.7-0.5,1.4-0.3,1.5c0.2,0.1,0.6-0.4,1-1.2l-0.9-5.9
							C253.9,13.8,253.7,13.2,253.5,13.3z"/>
						<path class="st0" d="M247.6,3.8c-0.8,0-1.6-0.6-1.9-1.4V2.2c-0.2-0.8-0.6-1.4-0.8-1.3c-0.2,0.1-0.2,0.8,0.1,1.5l0.2,0.7
							c0.2,0.8,1.1,1.4,1.9,1.4c0.8,0,1.7,0.6,1.9,1.4l0.5,1.3c0.3,0.8,0.6,1.4,0.8,1.3s0.1-0.8-0.1-1.5l-0.6-1.8
							C249.3,4.5,248.4,3.8,247.6,3.8z"/>
						<path class="st0" d="M277.4,25.8c-0.8,0-1.5,0.2-1.5,0.4c0,0.2,0.7,0.4,1.5,0.4H288c0.8,0,1.5-0.2,1.5-0.4
							c0-0.2-0.7-0.4-1.5-0.4H277.4z"/>
						<path class="st0" d="M285.4,8c0.2-0.1,0.2-0.7,0-1.5l-1.1-4.1c-0.2-0.8-0.6-1.4-0.8-1.3s-0.2,0.7,0,1.5l1.1,4.1
							C284.9,7.4,285.2,8.1,285.4,8z"/>
					</g>
				</g>
				<path class="st0" d="M39.5,8.8H43c0.8,0,0.8-0.1,0-0.3l-1.4-0.3c-0.8-0.2-1.4,0-1.4,0.4C40.3,8.6,40.3,8.6,39.5,8.8z"/>
				<path class="st0" d="M20.5,42.4c-0.3-0.4-1.3-0.6-2.1-0.5l-2.2,0.3c-0.8,0.1-0.8,0.3,0,0.4l3.5,0.4C20.5,43,20.9,42.8,20.5,42.4
					z"/>
				<path class="st0" d="M52.7,46.5c-0.2-0.4-1.1-0.6-1.9-0.6l-4.5,0.4c-0.8,0.1-0.8,0.2,0,0.3l5.3,0.5
					C52.4,47.2,52.9,46.9,52.7,46.5z"/>
				<path class="st0" d="M91.5,45c-0.1-0.3,0.5-0.6,1.3-0.6h1.3c0.8,0,0.8,0.2,0.1,0.5l-1,0.3C92.4,45.4,91.6,45.3,91.5,45z"/>
				<path class="st0" d="M136,42.5c-0.1-0.5-0.8-0.9-1.6-0.7l-3.2,0.5c-0.8,0.1-0.8,0.3,0,0.4l3.5,0.5C135.5,43.4,136.1,43,136,42.5
					z"/>
				<path class="st0" d="M139.8,44.3c0-0.5,0.6-0.9,1.4-0.8h0.3c0.8,0.1,0.9,0.5,0.1,0.8l-0.5,0.2C140.4,45,139.8,44.8,139.8,44.3z"
					/>
				<path class="st0" d="M111.6,35.6c-0.1-0.8-0.3-0.8-0.4-0.1c-0.1,0.7-0.1,1.9,0.2,2.7l0.3,0.9c0.2,0.8,0.4,0.8,0.3-0.1v-0.5
					C111.9,37.7,111.7,36.4,111.6,35.6z"/>
				<path class="st0" d="M126.4,36.2c-0.2-0.3-0.3,0.1-0.3,0.9v0.7c0,0.8,0.2,0.9,0.3,0.2C126.6,37.3,126.6,36.5,126.4,36.2z"/>
				<path class="st0" d="M96.5,35.9c0-0.8-0.2-0.8-0.3,0c-0.1,0.8,0,2,0.2,2.8l0.3,0.9c0.3,0.8,0.4,0.8,0.2-0.1l-0.1-0.8
					C96.6,37.9,96.5,36.6,96.5,35.9z"/>
				<path class="st0" d="M72.4,36.5c-0.1-0.3-0.4-0.3-0.5,0.1c-0.1,0.4,0,1.1,0.3,1.6c0.3,0.5,0.5,0.4,0.5-0.1
					C72.7,37.5,72.6,36.8,72.4,36.5z"/>
				<path class="st0" d="M55.6,35.9c-0.2-0.8-0.5-0.7-0.7,0.1l-0.1,0.2c-0.2,0.8,0.1,1.9,0.7,2.5l0.2,0.2c0.6,0.6,0.9,0.5,0.6-0.3
					C56,37.8,55.8,36.7,55.6,35.9z"/>
				<path class="st0" d="M25.4,34.8c-0.2-0.3,0.2-0.5,1-0.4l2.8,0.2c0.8,0.1,0.8,0.2,0,0.3l-2,0.3C26.5,35.3,25.6,35.1,25.4,34.8z"
					/>
				<path class="st0" d="M163.1,35.2c0.1-0.8,0.4-0.8,0.5,0l0.1,0.6c0.2,0.8,0.1,2.1-0.1,2.9l-0.4,1.4c-0.2,0.8-0.4,0.8-0.4,0v-1.3
					c0-0.8,0.1-2.2,0.2-3L163.1,35.2z"/>
				<path class="st0" d="M152.9,15.9c0,0.4-0.6,0.3-1.2-0.1l-0.7-0.5c-0.7-0.5-0.6-0.7,0.2-0.5l0.2,0.1
					C152.3,15,152.9,15.5,152.9,15.9z"/>
				<path class="st0" d="M202.2,41.6c0.1-0.3-0.5-0.6-1.3-0.6h-1.4c-0.8,0-0.8,0.2-0.1,0.4l1.2,0.3C201.4,42,202.1,41.9,202.2,41.6z
					"/>
				<path class="st0" d="M195.9,36.2c-0.2-0.5-0.4-0.3-0.4,0.5v0.4c0,0.8,0.2,1.2,0.4,0.7C196.1,37.3,196.2,36.7,195.9,36.2z"/>
				<path class="st0" d="M218.3,43.1c0.1-0.4-0.4-0.6-1.2-0.6l-3.3,0.3c-0.8,0.1-0.8,0.2,0,0.3l2.8,0.4
					C217.4,43.7,218.2,43.5,218.3,43.1z"/>
				<path class="st0" d="M215.2,36.4c-0.1-0.4-0.3-0.4-0.4-0.1c-0.1,0.4-0.1,1.2,0.1,1.9c0.2,0.7,0.3,0.7,0.4,0.1
					C215.4,37.7,215.3,36.8,215.2,36.4z"/>
				<path class="st0" d="M259.9,22.9c-0.3-0.1-0.3-0.8,0-1.6l0.1-0.2c0.3-0.8,0.6-0.7,0.5,0.1v0.3C260.5,22.5,260.2,23,259.9,22.9z"
					/>
				<path class="st0" d="M238.7,42.3c0.3-0.4,1.2-0.6,2-0.5l4.6,0.7c0.8,0.1,0.8,0.2,0,0.3l-5.7,0.2
					C238.8,42.9,238.4,42.6,238.7,42.3z"/>
				<path class="st0" d="M280.1,42.3c0.4-0.5,1.4-0.8,2.2-0.7l4.3,0.8c0.8,0.2,0.8,0.3,0,0.4l-5.6,0.3
					C280.1,43.2,279.7,42.8,280.1,42.3z"/>
				<path class="st0" d="M281.8,27.1c-0.2-0.6,0.4-1,1.2-0.9l3.9,0.6c0.8,0.1,0.8,0.3,0,0.5l-3.2,0.6
					C282.7,28.1,281.9,27.7,281.8,27.1z"/>
				<g transform="translate(276.000000, 6.000000)" class="st4">
					<path class="st0" d="M1.5,3.6C1.2,3.4,1,2.5,0.9,1.7V1.3c0-0.8,0.1-0.8,0.3,0l0.4,1.4C1.9,3.4,1.8,3.8,1.5,3.6z"/>
				</g>
				<path class="st0" d="M237.4,30.7l-2.4-1c-0.8-0.3-0.7-0.5,0.1-0.4l2.5,0.2"/>
				<g transform="translate(145.000000, 35.000000)" class="st4">
					<path class="st0" d="M5.7,3c0.2-0.5,0.2-1.3,0-1.7c-0.2-0.5-1-0.8-1.8-0.8H2.7c-0.8,0-1.8,0.4-2.1,0.9s0.1,1.1,0.9,1.4l2.4,0.7
						C4.8,3.7,5.6,3.5,5.7,3z"/>
				</g>
				<path class="st0" d="M149.2,36.7c-0.6-0.6-0.5-1.1,0.1-1.1c0.6,0,1.4,0.3,1.7,0.7c0.3,0.4,0.2,1.3-0.2,2l-0.3,0.5
					c-0.4,0.7-0.7,0.8-0.5,0.2S149.8,37.4,149.2,36.7L149.2,36.7z"/>
				<path class="st0" d="M92.1,8.4c0.1-0.5,0.8-0.7,1.6-0.5L94.3,8c0.8,0.2,0.8,0.5,0,0.7l-0.9,0.2C92.6,9.1,92,8.9,92.1,8.4z"/>
				<path class="st0" d="M51.3,15.2c-0.2,0.3-1,0.4-1.8,0.2l-0.7-0.2c-0.8-0.2-0.8-0.4,0-0.4l1.3-0.1C50.9,14.7,51.5,14.9,51.3,15.2
					z"/>
				<path class="st0" d="M18.4,29.2c0.1-0.4-0.4-0.6-1.2-0.5L15.6,29c-0.8,0.2-0.8,0.4,0,0.5l1.1,0.2C17.5,29.8,18.3,29.6,18.4,29.2
					z"/>
				<path class="st2" d="M20.9,42.5c-0.3-0.3-0.3-1.2-0.1-2l0.4-1.4c0.2-0.8,0.4-0.8,0.4,0.1l-0.1,2.4
					C21.5,42.4,21.2,42.8,20.9,42.5z"/>
				<path class="st2" d="M52.5,46.7c-0.3-0.2-0.3-0.9,0-1.7s0.5-0.7,0.5,0.1v0.4C53,46.3,52.8,46.8,52.5,46.7z"/>
				<path class="st2" d="M80.9,27.7c0-0.6,0.2-0.4,0.5,0.4l0.3,0.7c0.3,0.8,0.3,1.1-0.1,0.6C81.3,29,81,28.2,80.9,27.7z"/>
				<path class="st2" d="M239.1,42.8c0.3-0.2,0.4-1.1,0.2-1.9l-0.4-1.5c-0.2-0.8-0.4-0.8-0.4,0.1l0.1,2.3
					C238.5,42.5,238.8,43,239.1,42.8z"/>
				<path class="st2" d="M280.7,42.5c0.5-0.2,0.5-1.1,0.2-1.8l-1.8-3.8c-0.3-0.7-0.5-0.7-0.4,0.1l0.8,4.5
					C279.8,42.3,280.3,42.8,280.7,42.5z"/>
				<path class="st2" d="M282.5,27c-0.2-0.3-0.6,0-1,0.7l-1.8,3.8c-0.4,0.7-0.3,0.8,0.2,0.1l2-2.8C282.4,28.2,282.7,27.4,282.5,27z"
					/>
				<path class="st0" d="M255.4,9.8l0.1-2.2c0-0.8,0.2-0.8,0.4,0l0.6,2.5"/>
				<path class="st5" d="M14.9,43.4c-0.8-0.2-0.8-0.4,0.1-0.3h0.2c0.8,0.1,2.1,0.2,2.8,0.3c0.7,0.1,0.6,0.2-0.1,0.3
					C17.2,43.8,15.7,43.6,14.9,43.4L14.9,43.4z"/>
				<path class="st5" d="M54.8,38.8c-0.6-0.6-0.7-0.5-0.2,0.2l0.8,1.1c0.5,0.7,1.3,1.5,1.8,1.8c0.5,0.3,0.5,0.1-0.1-0.6
					c-0.6-0.7-1.4-1.6-2-2.2L54.8,38.8z"/>
				<path class="st5" d="M71.2,37.1c-0.2,0-0.1,0.6,0.3,1.3c0.3,0.7,0.5,0.7,0.4,0C71.7,37.7,71.4,37.1,71.2,37.1z"/>
				<path class="st5" d="M94.4,45.2c-0.7-0.1-0.6-0.2,0.2-0.4l1.2-0.2c0.8-0.1,1.1,0,0.7,0.2C96,45.1,95.1,45.3,94.4,45.2z"/>
				<path class="st5" d="M110.6,38.5c-0.3-0.5-0.4-0.2-0.3,0.6c0.2,0.8,0.6,2,1,2.7c0.4,0.7,0.5,0.6,0.4-0.2l-0.2-0.9
					C111.3,39.9,110.9,38.9,110.6,38.5z"/>
				<path class="st5" d="M164.2,39.9c-0.1-0.5-0.4-0.4-0.6,0.2c-0.2,0.6-0.4,1.8-0.4,2.6l0,0c0,0.8,0.2,0.9,0.5,0.1l0.2-0.6
					C164.2,41.4,164.3,40.4,164.2,39.9z"/>
				<path class="st5" d="M146.4,36.4c-0.2-0.5-0.6-0.4-0.9,0.2c-0.3,0.6,0,1.5,0.8,1.8l0.3,0.1c0.7,0.4,1.1,0.2,0.8-0.3
					C147,37.8,146.6,36.9,146.4,36.4z"/>
				<path class="st5" d="M176.4,45.5c-0.8-0.2-0.8-0.4,0-0.4h0.5c0.8,0,2.1,0.2,2.9,0.5h0.1c0.8,0.3,0.7,0.4-0.1,0.4h-0.5
					C178.5,45.9,177.2,45.7,176.4,45.5L176.4,45.5z"/>
				<path class="st5" d="M196.6,38.5c-0.1-0.3-0.3,0-0.6,0.6c-0.3,0.6-0.2,0.9,0.1,0.6C196.5,39.3,196.7,38.8,196.6,38.5z"/>
				<path class="st5" d="M216.1,37.8c-0.1-0.3-0.3,0-0.6,0.6c-0.2,0.7-0.2,0.9,0.1,0.6C216,38.6,216.2,38.1,216.1,37.8z"/>
				<path class="st5" d="M212.9,43.6c-0.8-0.2-0.8-0.3,0-0.4l0.9-0.1c0.8-0.1,1.9,0.1,2.3,0.4c0.5,0.3,0.3,0.5-0.3,0.5
					c-0.6,0-1.8-0.1-2.6-0.3L212.9,43.6z"/>
				<path class="st5" d="M241.6,43.6c-0.8,0.1-0.8-0.1,0-0.3l0,0c0.8-0.2,2.1-0.4,2.9-0.3l1.4,0.1c0.8,0.1,0.8,0.2,0,0.2l-1.4,0.1
					C243.7,43.4,242.4,43.5,241.6,43.6z"/>
				<path class="st2" d="M260.1,23.2c-0.4,0.2-1,0.9-1.3,1.7l-0.1,0.3c-0.3,0.8-0.2,0.8,0.3,0.2l1-1.3
					C260.5,23.4,260.5,23,260.1,23.2z"/>
				<path class="st0" d="M291.5,9.4c-0.4,0-0.8-0.7-0.8-1.5L290.5,7c-0.1-0.8,0.1-0.9,0.5-0.1l0.5,1.2
					C291.9,8.8,291.9,9.4,291.5,9.4z"/>
				<path class="st0" d="M172.2,13c0-0.5,0.6-0.8,1.4-0.8h0.8c0.8,0,0.9,0.3,0.1,0.6l-0.9,0.4C172.9,13.5,172.2,13.4,172.2,13z"/>
				<path class="st0" d="M127.8,14.6c-0.3-0.2-0.5,0.4-0.4,1.2l0.1,0.9c0.1,0.8,0.3,0.8,0.5,0l0.1-0.4
					C128.3,15.6,128.2,14.8,127.8,14.6z"/>
				<path class="st0" d="M88.1,26.9c-0.1-0.3,0.5-0.6,1.3-0.6h3.7c0.8,0,0.8,0.1,0,0.3l-3.4,0.7C89,27.4,88.2,27.3,88.1,26.9z"/>
				<path class="st0" d="M17.7,33.9c0.1-0.3-0.6-0.5-1.4-0.5h-1.1c-0.8,0-0.8,0.2,0,0.4l1,0.2C16.9,34.2,17.6,34.1,17.7,33.9z"/>
				<path class="st6" d="M5,36.7c-0.8,0-1.4,0.2-1.2,0.3s1,0.3,1.8,0.3h6.9c0.8,0,1.6-0.2,1.8-0.4c0.2-0.2-0.4-0.4-1.2-0.4L5,36.7z"
					/>
				<path class="st6" d="M34.9,36.7c-0.8,0-1.4,0.2-1.2,0.3s1,0.3,1.8,0.3h6.8c0.8,0,1.6-0.2,1.8-0.4c0.2-0.2-0.4-0.4-1.2-0.4
					L34.9,36.7z"/>
				<path class="st6" d="M51.7,36.6c-0.8,0-1.4,0.2-1.4,0.4s0.8,0.3,1.6,0.3h0.4c0.8,0,1.5-0.2,1.6-0.4c0.1-0.2-0.6-0.4-1.4-0.3
					H51.7z"/>
				<path class="st6" d="M21.7,21.9c-0.8,0-1.4,0.2-1.4,0.4c0,0.2,0.8,0.3,1.6,0.3h0.4c0.8,0,1.5-0.2,1.6-0.4
					c0.1-0.2-0.6-0.4-1.4-0.3H21.7z"/>
				<path class="st6" d="M34.1,21.9c-0.8,0-1.4,0.2-1.4,0.4c0,0.2,0.8,0.3,1.6,0.3h0.4c0.8,0,1.5-0.2,1.6-0.4
					c0.1-0.2-0.6-0.4-1.4-0.3H34.1z"/>
				<path class="st6" d="M9.3,23.9c-0.8,0-1.5,0.2-1.4,0.4c0.1,0.2,0.8,0.3,1.6,0.3l0,0c0.8,0,1.5-0.2,1.6-0.4
					c0.1-0.2-0.6-0.4-1.4-0.3H9.3z"/>
				<path class="st6" d="M24.2,29c-0.8,0-1.4,0.2-1.3,0.3c0.1,0.2,0.9,0.3,1.7,0.3h3.2c0.8,0,1.6-0.2,1.7-0.4
					c0.1-0.2-0.5-0.4-1.3-0.4L24.2,29z"/>
				<path class="st6" d="M17.4,7.4c-0.8,0-1.4,0.2-1.3,0.3C16.2,7.9,16.9,8,17.8,8H21c0.8,0,1.6-0.2,1.7-0.4
					c0.1-0.2-0.5-0.4-1.3-0.4L17.4,7.4z"/>
				<path class="st6" d="M69,36.6c-0.8,0-1.4,0.2-1.4,0.4s0.8,0.3,1.6,0.3h0.4c0.8,0,1.5-0.2,1.6-0.4c0.1-0.2-0.6-0.4-1.4-0.3H69z"
					/>
				<path class="st6" d="M98.4,36.6c-0.8,0-1.5,0.2-1.4,0.4s0.8,0.3,1.6,0.3l0,0c0.8,0,1.5-0.2,1.6-0.4c0.1-0.2-0.6-0.4-1.4-0.3
					H98.4z"/>
				<path class="st6" d="M74.5,36.6c-0.8,0-1.4,0.2-1.3,0.3c0.1,0.1,0.8,0.3,1.7,0.3h2.5c0.8,0,1.6-0.2,1.7-0.4s-0.5-0.4-1.3-0.3
					L74.5,36.6z"/>
				<path class="st6" d="M90.1,36.6c-0.8,0-1.4,0.2-1.3,0.3c0.1,0.2,0.9,0.3,1.7,0.3h3c0.8,0,1.6-0.2,1.7-0.4
					c0.1-0.2-0.5-0.4-1.3-0.4L90.1,36.6z"/>
				<path class="st6" d="M107.3,36.6c-0.8,0-1.4,0.2-1.4,0.4c0.1,0.2,0.8,0.3,1.6,0.3h1.5c0.8,0,1.6-0.2,1.6-0.4
					c0.1-0.2-0.5-0.4-1.4-0.3H107.3z"/>
				<path class="st6" d="M141.5,36.6c-0.8,0-1.4,0.2-1.4,0.4s0.8,0.3,1.6,0.3h1.5c0.8,0,1.6-0.2,1.6-0.4c0-0.2-0.5-0.4-1.4-0.3
					H141.5z"/>
				<path class="st6" d="M165.8,36.6c-0.8,0-1.4,0.2-1.4,0.4c0.1,0.2,0.8,0.3,1.6,0.3h1c0.8,0,1.6-0.2,1.6-0.4
					c0.1-0.2-0.5-0.4-1.4-0.3H165.8z"/>
				<path class="st6" d="M177.9,36.7c-0.8,0-1.4,0.2-1.2,0.3s0.9,0.3,1.8,0.3h5.5c0.8,0,1.6-0.2,1.8-0.4c0.2-0.2-0.4-0.4-1.2-0.4
					L177.9,36.7z"/>
				<path class="st6" d="M192.9,36.6c-0.8,0-1.4,0.2-1.4,0.4c0.1,0.2,0.8,0.3,1.6,0.3h0.5c0.8,0,1.5-0.2,1.6-0.4
					c0.1-0.2-0.6-0.4-1.4-0.3H192.9z"/>
				<path class="st6" d="M198.3,36.6c-0.8,0-1.4,0.2-1.3,0.3c0.1,0.2,0.9,0.3,1.7,0.3h2.5c0.8,0,1.6-0.2,1.7-0.4
					c0.1-0.2-0.5-0.4-1.3-0.3L198.3,36.6z"/>
				<path class="st6" d="M210.2,36.6c-0.8,0-1.4,0.2-1.3,0.4c0.1,0.2,0.8,0.3,1.6,0.3h1.7c0.8,0,1.6-0.2,1.6-0.4
					c0-0.2-0.5-0.4-1.3-0.3H210.2z"/>
				<path class="st6" d="M217.3,36.6c-0.8,0-1.4,0.2-1.4,0.4s0.8,0.3,1.6,0.3h0.8c0.8,0,1.6-0.2,1.6-0.4c0.1-0.2-0.6-0.4-1.4-0.3
					H217.3z"/>
				<path class="st6" d="M227.3,36.7c-0.8,0-1.3,0.2-1.2,0.3c0.1,0.1,1,0.3,1.8,0.3h7.6c0.8,0,1.6-0.2,1.8-0.4
					c0.2-0.2-0.3-0.4-1.2-0.4L227.3,36.7z"/>
				<path class="st6" d="M244.4,36.7c-0.8,0-1.3,0.2-1.2,0.3c0.2,0.2,1,0.3,1.8,0.3h7.6c0.8,0,1.6-0.2,1.8-0.4
					c0.2-0.2-0.3-0.4-1.2-0.4L244.4,36.7z"/>
				<path class="st6" d="M287.5,36.7c-0.8,0-1.3,0.2-1.2,0.3c0.2,0.2,1,0.3,1.8,0.3h7.6c0.8,0,1.6-0.2,1.8-0.4
					c0.2-0.2-0.3-0.4-1.2-0.4L287.5,36.7z"/>
				<path class="st6" d="M271.6,8c-0.8,0-1.4,0.2-1.3,0.3c0.1,0.2,0.9,0.3,1.7,0.3h2.9c0.8,0,1.6-0.2,1.7-0.4s-0.5-0.4-1.3-0.4
					L271.6,8z"/>
				<path class="st6" d="M258.2,8c-0.8,0-1.4,0.2-1.3,0.3c0.1,0.1,0.9,0.3,1.7,0.3h3.8c0.8,0,1.6-0.2,1.7-0.4s-0.5-0.4-1.3-0.4
					L258.2,8z"/>
				<path class="st6" d="M251.4,8c-0.8,0-1.4,0.2-1.3,0.4c0.1,0.2,0.8,0.3,1.6,0.3h1.8c0.8,0,1.6-0.2,1.7-0.4
					c0.1-0.2-0.5-0.4-1.3-0.3H251.4z"/>
				<path class="st6" d="M253.7,21.9c-0.8,0-1.4,0.2-1.3,0.3c0.1,0.2,0.9,0.3,1.7,0.3h3.1c0.8,0,1.6-0.2,1.7-0.4
					c0.1-0.2-0.5-0.4-1.3-0.4L253.7,21.9z"/>
				<path class="st6" d="M212.1,7c-0.8,0-1.4,0.2-1.3,0.4c0.1,0.2,0.8,0.3,1.7,0.3h1.8c0.8,0,1.6-0.2,1.6-0.4
					c0.1-0.2-0.5-0.4-1.3-0.3H212.1z"/>
				<path class="st6" d="M221.8,7c-0.8,0-1.4,0.2-1.3,0.4c0.1,0.2,0.8,0.3,1.6,0.3h1.8c0.8,0,1.6-0.2,1.6-0.4c0-0.2-0.5-0.4-1.3-0.3
					H221.8z"/>
				<path class="st6" d="M215.7,13.1c-0.7,0-1.3,0.2-1.2,0.4s0.6,0.3,1.2,0.3c0.6,0,1.2-0.2,1.2-0.4C217,13.2,216.4,13.1,215.7,13.1
					z"/>
				<path class="st6" d="M219,11.1c-0.8,0-1.5,0.2-1.4,0.4c0.1,0.2,0.7,0.3,1.5,0.3c0.8,0,1.5-0.2,1.5-0.4c0.1-0.2-0.6-0.4-1.4-0.3
					H219z"/>
				<path class="st6" d="M176,11.5c-0.8,0-1.5,0.2-1.4,0.4c0.1,0.2,0.7,0.3,1.5,0.3c0.8,0,1.5-0.2,1.5-0.4s-0.6-0.4-1.4-0.3H176z"/>
				<path class="st6" d="M186.8,21.6c-0.8,0-1.4,0.2-1.4,0.4c0.1,0.2,0.8,0.3,1.6,0.3h0.5c0.8,0,1.5-0.2,1.6-0.4
					c0.1-0.2-0.6-0.4-1.4-0.3H186.8z"/>
				<path class="st6" d="M179.2,25.2c-0.8,0-1.4,0.2-1.3,0.3c0.1,0.2,0.8,0.3,1.7,0.3h2.5c0.8,0,1.6-0.2,1.7-0.4
					c0.1-0.2-0.5-0.4-1.3-0.3L179.2,25.2z"/>
				<path class="st6" d="M286.4,25.9c-0.8,0-1.4,0.2-1.3,0.3c0.1,0.2,0.8,0.3,1.7,0.3h2.5c0.8,0,1.6-0.2,1.7-0.4
					c0.1-0.2-0.5-0.4-1.3-0.3L286.4,25.9z"/>
				<path class="st6" d="M108.2,28.8c-0.8,0-1.4,0.2-1.4,0.4c0.1,0.2,0.8,0.3,1.6,0.3h1.1c0.8,0,1.6-0.2,1.6-0.4
					c0.1-0.2-0.5-0.4-1.4-0.3H108.2z"/>
				<path class="st6" d="M93,25.7c-0.8,0-1.4,0.2-1.4,0.4c0.1,0.2,0.8,0.3,1.6,0.3h1.1c0.8,0,1.6-0.2,1.6-0.4
					c0.1-0.2-0.5-0.4-1.4-0.3H93z"/>
				<path class="st6" d="M71.4,25.5c-0.8,0-1.4,0.2-1.4,0.4c0,0.2,0.8,0.3,1.6,0.3h1.1c0.8,0,1.6-0.2,1.6-0.4
					c0.1-0.2-0.5-0.4-1.4-0.3H71.4z"/>
				<path class="st6" d="M38.8,13.9c-0.8,0-1.4,0.2-1.3,0.3c0.1,0.2,0.9,0.3,1.7,0.3h2.6c0.8,0,1.6-0.2,1.7-0.4
					c0.1-0.2-0.5-0.4-1.3-0.4L38.8,13.9z"/>
				<path class="st6" d="M100.1,8.4c-0.8-0.1-1.4,0-1.4,0.2c0,0.2,0.8,0.4,1.6,0.5l1.1,0.2c0.8,0.1,1.6,0,1.7-0.2
					c0.1-0.2-0.5-0.4-1.3-0.5L100.1,8.4z"/>
				<path class="st6" d="M193,27.5c-0.8,0-1.4,0.2-1.4,0.4c0,0.2,0.8,0.3,1.6,0.3h1.1c0.8,0,1.6-0.2,1.6-0.4
					c0.1-0.2-0.5-0.4-1.4-0.3H193z"/>
				<path class="st6" d="M220.2,24.9c-0.8,0-1.4,0.2-1.4,0.4c0.1,0.2,0.8,0.3,1.6,0.3h1.1c0.8,0,1.6-0.2,1.6-0.4
					c0.1-0.2-0.5-0.4-1.4-0.3H220.2z"/>
				<path class="st6" d="M154.7,7.7c-0.8,0-1.3,0.2-1.1,0.3c0.2,0.2,1.1,0.3,1.9,0.3h9.8c0.8,0,1.7-0.2,1.9-0.4s-0.3-0.4-1.1-0.4
					L154.7,7.7z"/>
				<path class="st6" d="M122.3,7.8c-0.8,0-1.3,0.2-1.1,0.3c0.2,0.2,1.1,0.3,1.9,0.3h10.3c0.8,0,1.7-0.2,1.9-0.4s-0.2-0.4-1.1-0.4
					L122.3,7.8z"/>
				<path class="st6" d="M120.6,21.6c-0.8,0-1.4,0.2-1.3,0.3c0.1,0.2,0.9,0.3,1.7,0.3h4.2c0.8,0,1.6-0.2,1.7-0.4
					c0.1-0.2-0.4-0.4-1.3-0.4L120.6,21.6z"/>
				<path class="st6" d="M129.3,21.6c-0.8,0-1.4,0.2-1.3,0.3c0.1,0.2,0.9,0.3,1.7,0.3h3.8c0.8,0,1.6-0.2,1.7-0.4
					c0.1-0.2-0.5-0.4-1.3-0.4L129.3,21.6z"/>
				<path class="st6" d="M147.9,34.8c-0.8,0-1.4,0.2-1.4,0.4c0.1,0.2,0.8,0.3,1.6,0.3h0.3c0.8,0,1.5-0.2,1.6-0.4
					c0.1-0.2-0.6-0.4-1.4-0.3H147.9z"/>
				<path class="st6" d="M145.4,12.6c-0.8-0.1-1.4,0-1.4,0.2c0.1,0.2,0.8,0.4,1.6,0.5l1.9,0.3c0.8,0.1,1.6,0,1.7-0.1
					c0.1-0.2-0.5-0.4-1.3-0.5L145.4,12.6z"/>
				<path class="st6" d="M226.8,27.6c-0.8-0.1-1.4,0-1.4,0.2c0.1,0.2,0.8,0.4,1.6,0.5l1.9,0.3c0.8,0.1,1.6,0,1.7-0.1
					c0.1-0.2-0.5-0.4-1.3-0.5L226.8,27.6z"/>
				<path class="st6" d="M223.9,13.1c-0.7,0-1.2,0.2-1.1,0.4c0,0.2,0.6,0.3,1.1,0.3s1.1-0.2,1.1-0.4C225,13.2,224.6,13.1,223.9,13.1
					z"/>
				<path class="st6" d="M262.3,21.9c-0.8,0-1.4,0.2-1.3,0.3c0.1,0.1,0.9,0.3,1.7,0.3h3.8c0.8,0,1.6-0.2,1.7-0.4
					c0.1-0.2-0.5-0.4-1.3-0.4L262.3,21.9z"/>
				<path class="st6" d="M293.5,8c-0.8,0-1.4,0.2-1.3,0.3c0.1,0.1,0.8,0.3,1.7,0.3h1.9c0.8,0,1.6-0.2,1.7-0.4s-0.5-0.4-1.3-0.3
					L293.5,8z"/>
				<path class="st6" d="M153.4,36.7c-0.8,0-1.4,0.2-1.2,0.3s1,0.3,1.8,0.3h6.3c0.8,0,1.6-0.2,1.8-0.4c0.2-0.2-0.4-0.4-1.2-0.4
					L153.4,36.7z"/>
				<path class="st6" d="M113.6,36.7c-0.8,0-1.3,0.2-1.1,0.3s1.1,0.3,1.9,0.3h9.3c0.8,0,1.7-0.2,1.9-0.4c0.2-0.2-0.3-0.4-1.1-0.4
					L113.6,36.7z"/>
				<path class="st6" d="M128.4,36.6c-0.8,0-1.4,0.2-1.3,0.3c0.1,0.1,0.9,0.3,1.7,0.3h3.7c0.8,0,1.6-0.2,1.7-0.4
					c0.1-0.2-0.5-0.4-1.3-0.4L128.4,36.6z"/>
				<path class="st6" d="M58.1,36.7c-0.8,0-1.4,0.2-1.3,0.4c0.1,0.2,0.8,0.3,1.6,0.3h1.7c0.8,0,1.6-0.2,1.6-0.4s-0.5-0.4-1.3-0.3
					H58.1z"/>
			</g>
			<g>
				<g>
					<polygon class="st0" points="13.5,49.9 0.7,38 12.8,0.5 26.8,0.5 33.8,10.1 34.6,7 38.6,7 40.3,0.5 54.7,0.5 55.7,2.2 56,0.5 
						70.6,0.5 71.5,2.4 71.8,0.5 86.5,0.5 89.1,7.1 89.4,7.1 90.3,9.2 91.5,0.5 106.4,0.4 107.1,2.9 107.3,0.4 138.3,0.4 
						139.8,14.4 139.5,22.6 138.8,22.6 139.3,27.1 139,35.8 138.1,35.8 138.8,40.7 138.4,49.8 107.7,49.8 106.9,47.6 106.7,49.8 
						92,49.8 88.1,41.7 86.9,49.8 72.4,49.8 71.3,48.2 71,49.8 56.6,49.8 55.5,48.3 55.2,49.8 40.9,49.8 34.7,42.7 30.9,42.7 
						29.7,41.3 27.4,49.9 					"/>
					<path class="st0" d="M186.4,46.9l-0.6,3h-15.1l-1.2-35.4l1.3-14h31.1l0.3,2.6l0.7-2.6h30.8l0.3,2l0.9-2h30.6l0.4,1.7l1-1.7
						h30.4L300,9l-6.1,7.3l0.1,0.3c0.4,1.4,0.9,2.9,1.3,4.3c0.3,1,1.4,4.4,1.4,4.4l1.2,3.8l0.6,1.9c0.3,1,0.6,1.9,0.9,2.9
						c0.3,1,0.6,2,0.9,2.9l0.3,1.1l-11.9,11.9h-14.3l-5.8-23.4l-6.8,9.4H257l0.4,2l-8.4,12h-14.5l-0.3-1.8l-1,1.8h-14.6l-0.3-2
						l-0.9,2h-14.8l-0.2-2.3l-0.8,2.3h-14.9L186.4,46.9z"/>
					<polygon class="st0" points="137.7,37.6 139,0.4 170.2,0.4 170.4,8.9 169.4,22.6 154.6,22.6 154.5,28 171,28 171.3,37.6 
						170.1,49.8 139.1,49.8 					"/>
				</g>
				<g transform="translate(3.000000, 2.000000)">
					
						<linearGradient id="SVGID_1_" gradientUnits="userSpaceOnUse" x1="-523.8812" y1="409.0288" x2="-523.8812" y2="410.0301" gradientTransform="matrix(50.1 0 0 -34.7 26271.6016 14228.5)">
						<stop  offset="0" style="stop-color:#D8CCC9"/>
						<stop  offset="1" style="stop-color:#A89E9B"/>
					</linearGradient>
					<polygon class="st7" points="24.5,6.9 22.6,13.8 31.3,13.8 33.1,7 37.1,7 38.8,0.5 50.2,0.5 42.2,35.2 29.8,35.2 33.5,20.4 
						29,20.4 27.1,27.6 19.1,27.6 21.1,20.4 16.6,20.5 12.2,35.2 0.1,35.2 11.2,0.5 22.5,0.5 20.6,6.8 					"/>
					
						<linearGradient id="SVGID_2_" gradientUnits="userSpaceOnUse" x1="-506.6466" y1="409.0575" x2="-506.6466" y2="410.056" gradientTransform="matrix(19.1 0 0 -34.8 9733.3994 14270.5)">
						<stop  offset="0" style="stop-color:#D8CCC9"/>
						<stop  offset="1" style="stop-color:#A89E9B"/>
					</linearGradient>
					<polygon class="st8" points="66,0.5 59.2,35.3 46.9,35.3 54.6,0.5 					"/>
					
						<linearGradient id="SVGID_3_" gradientUnits="userSpaceOnUse" x1="-520.3886" y1="409.0575" x2="-520.3886" y2="410.0575" gradientTransform="matrix(37.7 0 0 -34.8 19701.498 14270.3994)">
						<stop  offset="0" style="stop-color:#D8CCC9"/>
						<stop  offset="1" style="stop-color:#A89E9B"/>
					</linearGradient>
					<polygon class="st9" points="82.8,24 83.8,16.8 79.3,16.7 76.3,35.2 64,35.2 70.5,0.4 81.9,0.4 80.9,6.9 84.9,7 83.9,13.7 
						88.3,13.7 90.2,0.4 101.7,0.4 97.7,35.2 85.3,35.2 86.8,24.1 					"/>
					
						<linearGradient id="SVGID_4_" gradientUnits="userSpaceOnUse" x1="-517.3939" y1="409.0575" x2="-517.3939" y2="410.0575" gradientTransform="matrix(31.1 0 0 -34.8 16208.8994 14270.3994)">
						<stop  offset="0" style="stop-color:#D8CCC9"/>
						<stop  offset="1" style="stop-color:#A89E9B"/>
					</linearGradient>
					<polygon class="st10" points="132.2,28 131.9,35.2 102.4,35.2 106.1,0.4 133.5,0.4 133.2,6.5 117.1,6.5 116.6,13.6 132.9,13.7 
						132.6,20.4 116,20.4 115.4,27.9 					"/>
					
						<linearGradient id="SVGID_5_" gradientUnits="userSpaceOnUse" x1="-516.7073" y1="409.0828" x2="-516.7073" y2="410.0828" gradientTransform="matrix(29.9 0 0 -34.9 15729.6963 14312.1006)">
						<stop  offset="0" style="stop-color:#D8CCC9"/>
						<stop  offset="1" style="stop-color:#A89E9B"/>
					</linearGradient>
					<path class="st11" d="M292.8,0.2l2,6.2h-8v0.2c0.3,1.3,0.7,2.7,1.1,4.1s0.8,2.8,1.2,4.3s0.9,2.9,1.3,4.4c0.5,1.5,0.9,3,1.4,4.5
						c0.3,0.9,0.6,1.8,0.8,2.7c0.3,0.9,0.6,1.9,0.9,2.8s0.6,1.9,0.8,2.8c0.3,0.9,0.6,1.9,0.8,2.8h-12.5l-7.8-28.7h-8l-1.6-6.2
						L292.8,0.2z"/>
					
						<linearGradient id="SVGID_6_" gradientUnits="userSpaceOnUse" x1="-518.1307" y1="409.0575" x2="-518.1307" y2="410.0596" gradientTransform="matrix(32.5 0 0 -34.8 17088.791 14270.2998)">
						<stop  offset="0" style="stop-color:#D8CCC9"/>
						<stop  offset="1" style="stop-color:#A89E9B"/>
					</linearGradient>
					<polygon class="st12" points="264.1,13.4 265.8,20.3 249.1,20.3 252.2,35.1 239.7,35.1 233.3,0.3 260.8,0.3 262.4,6.4 
						246.2,6.4 247.6,13.4 					"/>
					
						<linearGradient id="SVGID_7_" gradientUnits="userSpaceOnUse" x1="-518.6194" y1="409.0564" x2="-518.6194" y2="410.058" gradientTransform="matrix(33.5 0 0 -34.8 17591.9004 14270.2998)">
						<stop  offset="0" style="stop-color:#D8CCC9"/>
						<stop  offset="1" style="stop-color:#A89E9B"/>
					</linearGradient>
					<path class="st13" d="M216.2,23.9l1.5,11.2h-12.4l-3.9-34.8h27.5l6,34.8h-12.4l-1.6-11.2H216.2z M224.3,10.2l-0.7-4.4h-5.4
						l0.5,4.1h-4.3l-0.6-4h-5.3l0.6,4.4h4.8l0.2,1.6h-2.4l0.9,6.8h2.9l-0.2-2.3h4.3l0.4,2.3h3l-1-6.8h-2.4l-0.2-1.6L224.3,10.2
						L224.3,10.2z"/>
					
						<linearGradient id="SVGID_8_" gradientUnits="userSpaceOnUse" x1="-517.2832" y1="409.0589" x2="-517.2832" y2="410.0589" gradientTransform="matrix(30.9 0 0 -34.8 16169.2051 14270.3994)">
						<stop  offset="0" style="stop-color:#D8CCC9"/>
						<stop  offset="1" style="stop-color:#A89E9B"/>
					</linearGradient>
					<path class="st14" d="M194.7,17.1h4.1l1.8,18h-12.4L187,20.5l-4.6-0.1l1,14.8H171l-1.3-34.8h27.4l1.3,12.9h-4.1L194.7,17.1z
						 M186.6,13.6L186,6.5h-4.5l0.5,7.2L186.6,13.6L186.6,13.6z"/>
					
						<linearGradient id="SVGID_9_" gradientUnits="userSpaceOnUse" x1="-516.4661" y1="409.0871" x2="-516.4661" y2="410.0846" gradientTransform="matrix(29.5 0 0 -34.9 15387.2002 14312.3008)">
						<stop  offset="0" style="stop-color:#D8CCC9"/>
						<stop  offset="1" style="stop-color:#A89E9B"/>
					</linearGradient>
					<polygon class="st15" points="149.5,6.5 165.4,6.5 165.2,0.3 137.9,0.4 136.7,35.2 166.2,35.2 166,28 149.1,28 					"/>
				</g>
				<path class="st2" d="M4.6,37.2c-0.8,0-1,0.5-0.4,1l9,8.6c0.6,0.6,1.8,1,2.6,1h8c0.8,0,1-0.5,0.5-1.1l-7.9-8.5
					c-0.6-0.6-1.7-1.1-2.5-1.1L4.6,37.2z"/>
				<path class="st2" d="M34.3,37.2c-0.8,0-1.1,0.5-0.5,1.1l7,8.4c0.5,0.6,1.6,1.1,2.5,1.1h8.4c0.8,0,1.1-0.5,0.6-1.2l-6.2-8.3
					c-0.5-0.7-1.6-1.2-2.4-1.2L34.3,37.2z"/>
				<path class="st2" d="M23.6,29.6c-0.8,0-1.1,0.5-0.5,1.1l7.8,8.8c0.5,0.6,1.6,1.1,2.3,1.1s0.9-0.6,0.5-1.3l-0.7-1
					c-0.5-0.7-0.7-1.9-0.5-2.7l0.2-0.8c0.2-0.8,0-2-0.5-2.6L31,30.8c-0.5-0.6-1.6-1.2-2.4-1.2H23.6z"/>
				<path class="st2" d="M51.4,37.3c-0.8,0-1.1,0.5-0.6,1.2l6,8.2c0.5,0.7,1.6,1.2,2.4,1.2h8.2c0.8,0,1.1-0.6,0.7-1.3L63,38.5
					c-0.4-0.7-1.5-1.3-2.3-1.3L51.4,37.3z"/>
				<path class="st2" d="M68.5,37.2c-0.8,0-1.1,0.6-0.7,1.3l4.9,8c0.4,0.7,1.5,1.3,2.3,1.3h8c0.8,0,1.2-0.6,0.8-1.3l-3.8-8
					c-0.4-0.7-1.3-1.3-2.2-1.3H68.5z"/>
				<path class="st2" d="M89.8,37.2c-0.8,0-1.2,0.6-0.9,1.4l3.7,8c0.3,0.7,1.3,1.4,2.1,1.4h8.4c0.8,0,1.3-0.6,1-1.4l-2.9-7.9
					c-0.3-0.8-1.2-1.4-2-1.4L89.8,37.2z"/>
				<path class="st2" d="M106.9,37.2c-0.8,0-1.3,0.6-1,1.4l2.7,7.6c0.3,0.8,1.2,1.4,2,1.4h24.3c0.8,0,1.4-0.7,1.3-1.5l-1.1-7.5
					c-0.1-0.8-0.9-1.5-1.7-1.5L106.9,37.2z"/>
				<path class="st2" d="M141.2,37.2c-0.8,0-1.4,0.7-1.3,1.5l0.8,7.7c0.1,0.8,0.8,1.5,1.7,1.5h24.1c0.8,0,1.6-0.7,1.7-1.5l0.9-7.8
					c0.1-0.8-0.5-1.5-1.3-1.5L141.2,37.2z"/>
				<path class="st2" d="M175.5,37.1c-0.8,0-1.6,0.7-1.7,1.5l-1,7.6c-0.1,0.8,0.5,1.5,1.3,1.5h8.2c0.8,0,1.7-0.7,1.8-1.5l1.8-7.7
					c0.2-0.8-0.3-1.5-1.1-1.5L175.5,37.1z"/>
				<path class="st2" d="M192.7,37.1c-0.8,0-1.7,0.7-1.8,1.5l-1.8,7.6c-0.2,0.8,0.3,1.5,1.2,1.5h8.2c0.8,0,1.7-0.6,2-1.4l2.7-7.7
					c0.3-0.8-0.2-1.4-1-1.4L192.7,37.1z"/>
				<path class="st2" d="M209.8,37.1c-0.8,0-1.7,0.6-2,1.4l-2.8,7.8c-0.3,0.8,0.2,1.4,1,1.4h8.2c0.8,0,1.8-0.6,2.1-1.4l3.7-7.9
					c0.3-0.7,0-1.4-0.9-1.4L209.8,37.1z"/>
				<path class="st2" d="M227,37.1c-0.8,0-1.8,0.6-2.2,1.3l-3.9,7.9c-0.4,0.7,0,1.3,0.8,1.3h8.5c0.8,0,1.8-0.6,2.2-1.3l4.6-8
					c0.4-0.7,0.1-1.3-0.7-1.3L227,37.1z"/>
				<path class="st2" d="M244.2,37.1c-0.8,0-1.8,0.6-2.3,1.3l-4.9,8.1c-0.4,0.7-0.1,1.3,0.7,1.3h8.4c0.8,0,1.9-0.5,2.4-1.2l5.8-8.2
					c0.5-0.7,0.2-1.2-0.6-1.2L244.2,37.1z"/>
				<path class="st2" d="M287.2,37.1c-0.8,0-1.9,0.5-2.5,1.1l-7.3,8.3c-0.5,0.6-0.3,1.1,0.5,1.1h8c0.8,0,2-0.5,2.6-1l8.6-8.4
					c0.6-0.6,0.4-1-0.4-1L287.2,37.1z"/>
				<g transform="translate(6.000000, 1.000000)" class="st3">
					<g>
						<path class="st0" d="M6.2,7.3C6.1,7.5,6.7,7.7,7.5,7.7h8.7c0.8,0,1.5-0.2,1.5-0.4c0-0.2-0.7-0.4-1.5-0.4H7.7
							C7,6.9,6.3,7,6.2,7.3z"/>
						<path class="st0" d="M5.6,24.8c0.3-0.8-0.2-1.4-1-1.4H2.3c-0.8,0-1.5,0.2-1.5,0.4c0,0.2,0.7,0.4,1.5,0.4h1.3
							c0.8,0,1.3,0.6,1,1.4l-2,6c-0.3,0.8,0.2,1.4,1,1.4h6.6c0.8,0,1.5-0.2,1.5-0.4c0-0.2-0.7-0.4-1.5-0.4H4.7c-0.8,0-1.3-0.6-1-1.4
							l0.2-0.7c0.3-0.8,1.1-1.4,2-1.4H11c0.8,0,1.5-0.2,1.5-0.4c0-0.2-0.7-0.4-1.5-0.4H6.1c-0.8,0-1.3-0.6-1-1.4L5.6,24.8z"/>
						<path class="st0" d="M39.5,8.6c0.1-0.8-0.5-1.5-1.3-1.5h-2.7c-0.8,0-1.6,0.2-1.6,0.4c-0.1,0.2,0.5,0.4,1.4,0.4h2.1
							c0.8,0,1.4,0.7,1.3,1.5l-0.4,2.8c-0.1,0.8-0.9,1.5-1.7,1.5h-8c-0.8,0-1.5,0.2-1.5,0.4c0,0.2,0.7,0.4,1.5,0.4h7.9h1.7h1.7h4.2
							c0.8,0,1.5-0.2,1.5-0.4c0-0.2-0.7-0.4-1.5-0.4h-3.8c-0.8,0-1.4-0.7-1.3-1.5L39.5,8.6z"/>
						<path class="st0" d="M50.2,31.8c0.1-0.8,0-1.1-0.3-0.6c-0.3,0.5-0.6,1.5-0.8,2.3L48.9,35c-0.2,0.8,0.1,2,0.6,2.7l0.5,0.8
							c0.5,0.7,1.2,1.5,1.7,1.9c0.5,0.4,0.5,0.1,0-0.6l-1.5-2.3c-0.5-0.7-0.7-1.9-0.6-2.7L50.2,31.8z"/>
						<path class="st0" d="M62.4,8.5c0-0.2-0.7-0.4-1.5-0.3l-3.4,0.1c-0.8,0-1.1,0.2-0.7,0.3c0.5,0.2,1.5,0.3,2.3,0.3h1.8
							C61.7,8.9,62.4,8.7,62.4,8.5z"/>
						<path class="st0" d="M67.1,33.7c0.2-0.8,0.1-1.1-0.2-0.6c-0.3,0.5-0.7,1.4-0.8,2c-0.1,0.6,0,1.8,0.3,2.5
							c0.3,0.8,0.8,1.7,1.1,2.1c0.3,0.4,0.4,0.1,0.1-0.7L67,37.5c-0.3-0.8-0.3-2.1-0.1-2.9L67.1,33.7z"/>
						<path class="st0" d="M63.9,25c-0.8,0-1.5,0.1-1.5,0.3c0,0.2,0.7,0.4,1.5,0.5l9.3,0.5c0.8,0,1.7,0.4,2,0.9
							c0.3,0.5,0.7,0.7,0.8,0.6c0.2-0.1,0-0.6-0.3-1.2c-0.3-0.5-1.3-1-2.1-1L63.9,25z"/>
						<path class="st0" d="M73.6,7.3c0.3,0.2,1.3,0.4,2.1,0.4h0.9c0.8,0,1.5-0.2,1.5-0.4c0-0.2-0.6-0.3-1.4-0.4h-2.2
							C73.7,6.9,73.3,7.1,73.6,7.3z"/>
						<path class="st0" d="M84.3,25.2c-0.8,0-1.5,0.2-1.5,0.4c0,0.2,0.7,0.4,1.5,0.3l5.5-0.2c0.8,0,1.4,0.6,1.3,1.4L90,34.7
							c-0.1,0.8,0,2.1,0.2,2.9l0.3,1c0.2,0.8,0.7,1.9,1.1,2.4s0.5,0.3,0.2-0.5l-0.9-3c-0.2-0.8-0.3-2.1-0.2-2.9l1.2-8.3
							c0.1-0.8-0.4-1.5-1.3-1.4L84.3,25.2z"/>
						<path class="st0" d="M86.2,7.1c0,0.2,0.6,0.5,1.4,0.6l9.2,1.1c0.8,0.1,1.5,0,1.5-0.2c0-0.2-0.7-0.5-1.5-0.6l-9-1
							C87,6.9,86.3,6.9,86.2,7.1z"/>
						<path class="st0" d="M105.8,29.8c0-0.8-0.6-1.5-1.4-1.5h-3.5c-0.8,0-1.5,0.2-1.5,0.4c0,0.2,0.7,0.4,1.5,0.4h2.7
							c0.8,0,1.5,0.7,1.4,1.5l-0.1,4c0,0.8,0.1,2.1,0.3,2.9l0.7,2.6c0.2,0.8,0.6,1.9,0.9,2.4c0.3,0.5,0.4,0.3,0.2-0.5l-1-4.5
							c-0.2-0.8-0.3-2.1-0.3-3L105.8,29.8z"/>
						<path class="st0" d="M101.3,11.5c0,0.2,0.7,0.4,1.5,0.4h3.3c0.8,0,1.9-0.2,2.3-0.4c0.5-0.2,0.1-0.4-0.7-0.4l-5,0.1
							C101.9,11.1,101.3,11.3,101.3,11.5z"/>
						<path class="st0" d="M122.1,15.3c0-0.8-0.2-1.5-0.4-1.5c-0.2,0-0.4,0.7-0.4,1.5v3.9c0,0.8,0.2,1.1,0.4,0.6
							c0.2-0.5,0.4-1.6,0.4-2.4V15.3z"/>
						<path class="st0" d="M125.8,29.3c0,0.8-0.7,1.5-1.5,1.5h-2.7c-0.8,0-1.5,0.7-1.5,1.5V35c0,0.8,0.2,1.5,0.4,1.5
							s0.4-0.7,0.4-1.5v-1.9c0-0.8,0.7-1.5,1.5-1.5h2.7c0.8,0,1.5-0.7,1.5-1.5v-1c0-0.8-0.1-1.5-0.3-1.5c-0.2,0-0.4,0.7-0.4,1.5
							L125.8,29.3z"/>
						<path class="st0" d="M156.9,30.9c-0.2,0.3-0.2,1.3-0.2,2.1l0.2,1.8c0.1,0.8,0.1,2.2,0,3l-1.1,8c-0.1,0.8,0,1.5,0.3,1.5
							c0.3,0,0.5-0.7,0.6-1.5l1-7.9c0.1-0.8,0.1-2.2,0-3l-0.3-3C157.2,31,157,30.6,156.9,30.9z"/>
						<path class="st0" d="M134.1,42.8c0,0.2,0.7,0.4,1.5,0.4h0.7c0.8,0,1.5-0.2,1.5-0.4s-0.7-0.4-1.5-0.4h-0.7
							C134.7,42.5,134.1,42.6,134.1,42.8z"/>
						<path class="st0" d="M137,12.5c0.4,0.2,1.4,0.5,2.2,0.7l6.5,1.2c0.8,0.3,1.4,0.4,1.5,0.2c0.1-0.2-0.5-0.6-1.3-0.8l-8.2-1.4
							C136.9,12.3,136.6,12.3,137,12.5z"/>
						<path class="st0" d="M136.8,19.5c0.3-0.2,0-0.4-0.9-0.4h-0.5c-0.8,0-1.5,0.2-1.5,0.4s0.5,0.4,1.1,0.4S136.5,19.8,136.8,19.5z"
							/>
						<path class="st0" d="M172.1,12.9c0.1,0.5,0.8,0.9,1.6,0.9h1c0.8,0,1.6,0,1.7,0.1c0.1,0,0.6,0.4,0.8,0.3c0.2-0.1,0-0.4-0.3-0.7
							c-0.3-0.3-1.3-0.5-2.1-0.5h-0.4c-0.8,0-1.6-0.7-1.7-1.5l-1-9.2c-0.1-0.8-0.3-1.5-0.5-1.4c-0.2,0-0.3,0.7-0.2,1.5l0.8,7.3
							c0.1,0.8-0.5,1.5-1.3,1.5h-2.8c-0.8,0-1.5,0.2-1.5,0.4c0,0.2,0.7,0.4,1.5,0.4h2.9C171.4,12,172.1,12.4,172.1,12.9z"/>
						<path class="st0" d="M171.1,30.8c0.1,0.8-0.2,2.1-0.6,2.8l-0.8,1c-0.2,0.8-0.2,1.5,0,1.5s0.6-0.6,0.8-1.3c0,0,0.1-0.5,0.5-1
							c0.3-0.5,0.7-0.9,0.8-0.9c0.1,0,0.2-0.7,0.1-1.5l-0.3-4.3c-0.1-0.8,0.6-1.5,1.4-1.5h6.3c0.8,0,1.5-0.2,1.5-0.4
							c0-0.2-0.7-0.4-1.5-0.4h-7.1c-0.8,0-1.5,0.7-1.4,1.5L171.1,30.8z"/>
						<path class="st0" d="M183.8,27.6c0,0.2,0.7,0.4,1.5,0.4h4.3c0.8,0,1.8-0.2,2.2-0.4c0.4-0.2,0-0.4-0.8-0.4h-5.7
							C184.5,27.2,183.8,27.4,183.8,27.6z"/>
						<path class="st0" d="M187.3,16.9c0.2,0.2,1.1,0.3,1.9,0.3h1.4c0.8,0,1.5-0.2,1.5-0.4c0-0.2-0.7-0.4-1.5-0.4h-2.2
							C187.6,16.5,187.1,16.7,187.3,16.9z"/>
						<path class="st0" d="M166.5,43.5c0,0.2,0.6,0.4,1.5,0.5l9.3,0.7c0.8,0.1,1.5-0.1,1.5-0.3c0-0.2-0.6-0.4-1.5-0.5l-9.3-0.7
							C167.2,43.1,166.5,43.3,166.5,43.5z"/>
						<path class="st0" d="M219,27.3c-0.8,0-1.5,0.2-1.5,0.4c0,0.2,0.7,0.4,1.5,0.4l11.3,1.2c0.8,0.1,1.5,0,1.6-0.2
							c0.1-0.2-0.5-0.4-1.4-0.5L219,27.3z"/>
						<path class="st0" d="M253.5,13.3c-0.2,0.1-0.3,0.8-0.3,1.6l1,5.3c-0.4,0.7-0.5,1.4-0.3,1.5c0.2,0.1,0.6-0.4,1-1.2l-0.9-5.9
							C253.9,13.8,253.7,13.2,253.5,13.3z"/>
						<path class="st0" d="M247.6,3.8c-0.8,0-1.6-0.6-1.9-1.4V2.2c-0.2-0.8-0.6-1.4-0.8-1.3c-0.2,0.1-0.2,0.8,0.1,1.5l0.2,0.7
							c0.2,0.8,1.1,1.4,1.9,1.4c0.8,0,1.7,0.6,1.9,1.4l0.5,1.3c0.3,0.8,0.6,1.4,0.8,1.3s0.1-0.8-0.1-1.5l-0.6-1.8
							C249.3,4.5,248.4,3.8,247.6,3.8z"/>
						<path class="st0" d="M277.4,25.8c-0.8,0-1.5,0.2-1.5,0.4c0,0.2,0.7,0.4,1.5,0.4H288c0.8,0,1.5-0.2,1.5-0.4
							c0-0.2-0.7-0.4-1.5-0.4H277.4z"/>
						<path class="st0" d="M285.4,8c0.2-0.1,0.2-0.7,0-1.5l-1.1-4.1c-0.2-0.8-0.6-1.4-0.8-1.3s-0.2,0.8,0,1.5l1.1,4.1
							C284.9,7.4,285.2,8.1,285.4,8z"/>
					</g>
				</g>
				<path class="st0" d="M39.5,8.8H43c0.8,0,0.8-0.1,0-0.3l-1.4-0.3c-0.8-0.2-1.4,0-1.4,0.4C40.3,8.6,40.3,8.6,39.5,8.8z"/>
				<path class="st0" d="M20.5,42.4c-0.3-0.4-1.3-0.6-2.1-0.5l-2.2,0.3c-0.8,0.1-0.8,0.3,0,0.4l3.5,0.4C20.5,43,20.9,42.8,20.5,42.4
					z"/>
				<path class="st0" d="M52.7,46.5c-0.2-0.4-1.1-0.6-1.9-0.6l-4.5,0.4c-0.8,0.1-0.8,0.2,0,0.3l5.3,0.5
					C52.4,47.2,52.9,46.9,52.7,46.5z"/>
				<path class="st0" d="M91.5,45c-0.1-0.3,0.5-0.6,1.3-0.6h1.3c0.8,0,0.8,0.2,0.1,0.5l-1,0.3C92.4,45.4,91.6,45.3,91.5,45z"/>
				<path class="st0" d="M136,42.5c-0.1-0.5-0.8-0.9-1.6-0.7l-3.2,0.5c-0.8,0.1-0.8,0.3,0,0.4l3.5,0.5C135.5,43.4,136.1,43,136,42.5
					z"/>
				<path class="st0" d="M139.8,44.3c0-0.5,0.6-0.9,1.4-0.8h0.3c0.8,0.1,0.9,0.5,0.1,0.8l-0.5,0.2C140.4,45,139.8,44.8,139.8,44.3z"
					/>
				<path class="st0" d="M111.6,35.6c-0.1-0.8-0.3-0.8-0.4-0.1c-0.1,0.7-0.1,1.9,0.2,2.7l0.3,0.9c0.2,0.8,0.4,0.8,0.3-0.1v-0.5
					C111.9,37.7,111.7,36.4,111.6,35.6z"/>
				<path class="st0" d="M126.4,36.2c-0.2-0.3-0.3,0.1-0.3,0.9v0.7c0,0.8,0.2,0.9,0.3,0.2C126.6,37.3,126.6,36.5,126.4,36.2z"/>
				<path class="st0" d="M96.5,35.9c0-0.8-0.2-0.8-0.3,0c-0.1,0.8,0,2,0.2,2.8l0.3,0.9c0.3,0.8,0.4,0.8,0.2-0.1l-0.1-0.8
					C96.6,37.9,96.5,36.6,96.5,35.9z"/>
				<path class="st0" d="M72.4,36.5c-0.1-0.3-0.4-0.3-0.5,0.1c-0.1,0.4,0,1.1,0.3,1.6c0.3,0.5,0.5,0.4,0.5-0.1
					C72.7,37.5,72.6,36.8,72.4,36.5z"/>
				<path class="st0" d="M55.6,35.9c-0.2-0.8-0.5-0.7-0.7,0.1l-0.1,0.2c-0.2,0.8,0.1,1.9,0.7,2.5l0.2,0.2c0.6,0.6,0.9,0.5,0.6-0.3
					C56,37.8,55.8,36.7,55.6,35.9z"/>
				<path class="st0" d="M25.4,34.8c-0.2-0.3,0.2-0.5,1-0.4l2.8,0.2c0.8,0.1,0.8,0.2,0,0.3l-2,0.3C26.5,35.3,25.6,35.1,25.4,34.8z"
					/>
				<path class="st0" d="M163.1,35.2c0.1-0.8,0.4-0.8,0.5,0l0.1,0.6c0.2,0.8,0.1,2.1-0.1,2.9l-0.4,1.4c-0.2,0.8-0.4,0.8-0.4,0v-1.3
					c0-0.8,0.1-2.2,0.2-3L163.1,35.2z"/>
				<path class="st0" d="M152.9,15.9c0,0.4-0.6,0.3-1.2-0.1l-0.7-0.5c-0.7-0.5-0.6-0.7,0.2-0.5l0.2,0.1
					C152.3,15,152.9,15.5,152.9,15.9z"/>
				<path class="st0" d="M202.2,41.6c0.1-0.3-0.5-0.6-1.3-0.6h-1.4c-0.8,0-0.8,0.2-0.1,0.4l1.2,0.3C201.4,42,202.1,41.9,202.2,41.6z
					"/>
				<path class="st0" d="M195.9,36.2c-0.2-0.5-0.4-0.3-0.4,0.5v0.4c0,0.8,0.2,1.2,0.4,0.7C196.1,37.3,196.2,36.7,195.9,36.2z"/>
				<path class="st0" d="M218.3,43.1c0.1-0.4-0.4-0.6-1.2-0.6l-3.3,0.3c-0.8,0.1-0.8,0.2,0,0.3l2.8,0.4
					C217.4,43.7,218.2,43.5,218.3,43.1z"/>
				<path class="st0" d="M215.2,36.4c-0.1-0.4-0.3-0.4-0.4-0.1c-0.1,0.3-0.1,1.2,0.1,1.9c0.2,0.7,0.3,0.7,0.4,0.1
					C215.4,37.7,215.3,36.8,215.2,36.4z"/>
				<path class="st0" d="M259.9,22.9c-0.3-0.1-0.3-0.8,0-1.6l0.1-0.2c0.3-0.8,0.6-0.7,0.5,0.1v0.3C260.5,22.5,260.2,23,259.9,22.9z"
					/>
				<path class="st0" d="M238.7,42.3c0.3-0.4,1.2-0.6,2-0.5l4.6,0.7c0.8,0.1,0.8,0.2,0,0.3l-5.7,0.2
					C238.8,42.9,238.4,42.6,238.7,42.3z"/>
				<path class="st0" d="M280.1,42.3c0.4-0.5,1.4-0.8,2.2-0.7l4.3,0.8c0.8,0.2,0.8,0.3,0,0.4l-5.6,0.3
					C280.1,43.2,279.7,42.8,280.1,42.3z"/>
				<path class="st0" d="M281.8,27.1c-0.2-0.6,0.4-1,1.2-0.9l3.9,0.6c0.8,0.1,0.8,0.3,0,0.5l-3.2,0.6
					C282.7,28.1,281.9,27.7,281.8,27.1z"/>
				<g transform="translate(276.000000, 6.000000)" class="st4">
					<path class="st0" d="M1.5,3.6C1.2,3.4,1,2.5,0.9,1.7V1.3c0-0.8,0.1-0.8,0.3,0l0.4,1.4C1.9,3.4,1.8,3.8,1.5,3.6z"/>
				</g>
				<path class="st0" d="M237.4,30.7l-2.4-1c-0.8-0.3-0.7-0.5,0.1-0.4l2.5,0.2"/>
				<g transform="translate(145.000000, 35.000000)" class="st4">
					<path class="st0" d="M5.7,3c0.2-0.5,0.2-1.3,0-1.7c-0.2-0.5-1-0.8-1.8-0.8H2.7c-0.8,0-1.8,0.4-2.1,0.9s0.1,1.1,0.9,1.4l2.4,0.7
						C4.8,3.7,5.6,3.5,5.7,3z"/>
				</g>
				<path class="st0" d="M149.2,36.7c-0.6-0.6-0.5-1.1,0.1-1.1c0.6,0,1.4,0.3,1.7,0.7c0.3,0.4,0.2,1.3-0.2,2l-0.3,0.5
					c-0.4,0.7-0.7,0.8-0.5,0.2S149.8,37.4,149.2,36.7L149.2,36.7z"/>
				<path class="st0" d="M92.1,8.4c0.1-0.5,0.8-0.7,1.6-0.5L94.3,8c0.8,0.2,0.8,0.5,0,0.7l-0.9,0.2C92.6,9.1,92,8.9,92.1,8.4z"/>
				<path class="st0" d="M51.3,15.2c-0.2,0.3-1,0.4-1.8,0.2l-0.8-0.2c-0.8-0.2-0.8-0.4,0-0.4l1.3-0.1C50.9,14.7,51.5,14.9,51.3,15.2
					z"/>
				<path class="st0" d="M18.4,29.2c0.1-0.4-0.4-0.6-1.2-0.5L15.6,29c-0.8,0.2-0.8,0.4,0,0.5l1.1,0.2C17.5,29.8,18.3,29.6,18.4,29.2
					z"/>
				<path class="st2" d="M20.9,42.5c-0.3-0.3-0.3-1.2-0.1-2l0.4-1.4c0.2-0.8,0.4-0.8,0.4,0.1l-0.1,2.4
					C21.5,42.4,21.2,42.8,20.9,42.5z"/>
				<path class="st2" d="M52.5,46.7c-0.3-0.2-0.3-0.9,0-1.7s0.5-0.7,0.5,0.1v0.4C53,46.3,52.8,46.8,52.5,46.7z"/>
				<path class="st2" d="M80.9,27.7c0-0.6,0.2-0.4,0.5,0.4l0.3,0.7c0.3,0.8,0.3,1.1-0.1,0.6S81,28.2,80.9,27.7z"/>
				<path class="st2" d="M239.1,42.8c0.3-0.2,0.4-1.1,0.2-1.9l-0.4-1.5c-0.2-0.8-0.4-0.8-0.4,0.1l0.1,2.3
					C238.5,42.5,238.8,43,239.1,42.8z"/>
				<path class="st2" d="M280.7,42.5c0.5-0.2,0.5-1.1,0.2-1.8l-1.8-3.8c-0.3-0.7-0.5-0.7-0.4,0.1l0.8,4.5
					C279.8,42.3,280.3,42.8,280.7,42.5z"/>
				<path class="st2" d="M282.5,27c-0.2-0.3-0.6,0-1,0.7l-1.8,3.7c-0.4,0.7-0.3,0.8,0.2,0.1l2-2.8C282.4,28.2,282.7,27.4,282.5,27z"
					/>
				<path class="st0" d="M255.4,9.8l0.1-2.2c0-0.8,0.2-0.8,0.4,0l0.6,2.5"/>
				<path class="st5" d="M14.9,43.4c-0.8-0.2-0.8-0.4,0.1-0.3h0.2c0.8,0.1,2.1,0.2,2.8,0.3c0.7,0.1,0.6,0.2-0.1,0.3
					C17,43.8,15.7,43.6,14.9,43.4L14.9,43.4z"/>
				<path class="st5" d="M54.8,38.8c-0.6-0.6-0.7-0.5-0.2,0.2l0.8,1.1c0.5,0.7,1.3,1.5,1.8,1.8c0.5,0.3,0.5,0.1-0.1-0.6
					c-0.6-0.7-1.4-1.6-2-2.2L54.8,38.8z"/>
				<path class="st5" d="M71.2,37.1c-0.2,0-0.1,0.6,0.3,1.3c0.3,0.7,0.5,0.7,0.4,0C71.7,37.7,71.4,37.1,71.2,37.1z"/>
				<path class="st5" d="M94.4,45.2c-0.7-0.1-0.6-0.2,0.2-0.4l1.2-0.2c0.8-0.1,1.1,0,0.7,0.2C96,45.1,95.1,45.3,94.4,45.2z"/>
				<path class="st5" d="M110.6,38.5c-0.3-0.5-0.4-0.2-0.3,0.6c0.2,0.8,0.6,2,1,2.7c0.4,0.7,0.5,0.6,0.4-0.2l-0.2-0.9
					C111.3,39.9,110.9,38.9,110.6,38.5z"/>
				<path class="st5" d="M164.2,39.9c-0.1-0.5-0.4-0.4-0.6,0.2c-0.2,0.6-0.4,1.8-0.4,2.6l0,0c0,0.8,0.2,0.9,0.5,0.1l0.2-0.6
					C164.2,41.4,164.3,40.4,164.2,39.9z"/>
				<path class="st5" d="M146.4,36.4c-0.2-0.5-0.6-0.4-0.9,0.2c-0.3,0.6,0,1.5,0.8,1.8l0.3,0.1c0.7,0.4,1.1,0.2,0.8-0.3
					C147,37.8,146.6,36.9,146.4,36.4z"/>
				<path class="st5" d="M176.4,45.5c-0.8-0.2-0.8-0.4,0-0.4h0.5c0.8,0,2.1,0.2,2.9,0.5h0.1c0.8,0.3,0.7,0.4-0.1,0.4h-0.5
					C178.5,45.9,177.2,45.7,176.4,45.5L176.4,45.5z"/>
				<path class="st5" d="M196.6,38.5c-0.1-0.3-0.3,0-0.6,0.6c-0.3,0.6-0.2,0.9,0.1,0.6C196.5,39.3,196.7,38.8,196.6,38.5z"/>
				<path class="st5" d="M216.1,37.8c-0.1-0.3-0.3,0-0.6,0.6c-0.2,0.7-0.2,0.9,0.1,0.6C216,38.6,216.2,38.1,216.1,37.8z"/>
				<path class="st5" d="M212.9,43.6c-0.8-0.2-0.8-0.3,0-0.4l0.9-0.1c0.8-0.1,1.9,0.1,2.3,0.4c0.4,0.3,0.3,0.5-0.3,0.5
					c-0.6,0-1.8-0.1-2.6-0.3L212.9,43.6z"/>
				<path class="st5" d="M241.6,43.6c-0.8,0.1-0.8-0.1,0-0.3l0,0c0.8-0.2,2.1-0.4,2.9-0.3l1.4,0.1c0.8,0.1,0.8,0.2,0,0.2l-1.4,0.1
					C243.7,43.4,242.4,43.5,241.6,43.6z"/>
				<path class="st2" d="M260.1,23.2c-0.4,0.2-1,0.9-1.3,1.7l-0.1,0.3c-0.3,0.8-0.2,0.8,0.3,0.2l1-1.3
					C260.5,23.4,260.5,23,260.1,23.2z"/>
				<path class="st0" d="M291.5,9.4c-0.4,0-0.8-0.7-0.8-1.5L290.5,7c-0.1-0.8,0.1-0.9,0.5-0.1l0.5,1.2
					C291.9,8.8,291.9,9.4,291.5,9.4z"/>
				<path class="st0" d="M172.2,13c0-0.5,0.6-0.8,1.4-0.8h0.8c0.8,0,0.9,0.3,0.1,0.6l-0.9,0.4C172.9,13.5,172.2,13.4,172.2,13z"/>
				<path class="st0" d="M127.8,14.6c-0.3-0.2-0.5,0.4-0.4,1.2l0.1,0.9c0.1,0.8,0.3,0.8,0.5,0l0.1-0.4
					C128.3,15.6,128.2,14.8,127.8,14.6z"/>
				<path class="st0" d="M88.1,26.9c-0.1-0.3,0.5-0.6,1.3-0.6h3.7c0.8,0,0.8,0.1,0,0.3l-3.4,0.7C89,27.4,88.2,27.3,88.1,26.9z"/>
				<path class="st0" d="M17.7,33.9c0.1-0.3-0.6-0.5-1.4-0.5h-1.1c-0.8,0-0.8,0.2,0,0.4l1,0.2C16.9,34.2,17.6,34.1,17.7,33.9z"/>
				<path class="st6" d="M5,36.7c-0.8,0-1.4,0.2-1.2,0.3s1,0.3,1.8,0.3h6.9c0.8,0,1.6-0.2,1.8-0.4c0.2-0.2-0.4-0.4-1.2-0.4L5,36.7z"
					/>
				<path class="st6" d="M34.9,36.7c-0.8,0-1.4,0.2-1.2,0.3s1,0.3,1.8,0.3h6.8c0.8,0,1.6-0.2,1.8-0.4c0.2-0.2-0.4-0.4-1.2-0.4
					L34.9,36.7z"/>
				<path class="st6" d="M51.7,36.6c-0.8,0-1.4,0.2-1.4,0.4c0.1,0.2,0.8,0.3,1.6,0.3h0.4c0.8,0,1.5-0.2,1.6-0.4
					c0.1-0.2-0.6-0.4-1.4-0.3H51.7z"/>
				<path class="st6" d="M21.7,21.9c-0.8,0-1.4,0.2-1.4,0.4c0,0.2,0.8,0.3,1.6,0.3h0.4c0.8,0,1.5-0.2,1.6-0.4
					c0.1-0.2-0.6-0.4-1.4-0.3H21.7z"/>
				<path class="st6" d="M34.1,21.9c-0.8,0-1.4,0.2-1.4,0.4c0,0.2,0.8,0.3,1.6,0.3h0.4c0.8,0,1.5-0.2,1.6-0.4
					c0.1-0.2-0.6-0.4-1.4-0.3H34.1z"/>
				<path class="st6" d="M9.3,23.9c-0.8,0-1.5,0.2-1.4,0.4c0.1,0.2,0.8,0.3,1.6,0.3l0,0c0.8,0,1.5-0.2,1.6-0.4
					c0.1-0.2-0.6-0.4-1.4-0.3H9.3z"/>
				<path class="st6" d="M24.2,29c-0.8,0-1.4,0.2-1.3,0.3c0.1,0.2,0.9,0.3,1.7,0.3h3.2c0.8,0,1.6-0.2,1.7-0.4
					c0.1-0.2-0.5-0.4-1.3-0.4L24.2,29z"/>
				<path class="st6" d="M17.4,7.4c-0.8,0-1.4,0.2-1.3,0.3C16.2,7.9,16.9,8,17.8,8H21c0.8,0,1.6-0.2,1.7-0.4
					c0.1-0.2-0.5-0.4-1.3-0.4L17.4,7.4z"/>
				<path class="st6" d="M69,36.6c-0.8,0-1.4,0.2-1.4,0.4s0.8,0.3,1.6,0.3h0.4c0.8,0,1.5-0.2,1.6-0.4c0.1-0.2-0.6-0.4-1.4-0.3H69z"
					/>
				<path class="st6" d="M98.4,36.6c-0.8,0-1.5,0.2-1.4,0.4s0.8,0.3,1.6,0.3l0,0c0.8,0,1.5-0.2,1.6-0.4c0.1-0.2-0.6-0.4-1.4-0.3
					H98.4z"/>
				<path class="st6" d="M74.5,36.6c-0.8,0-1.4,0.2-1.3,0.3c0.1,0.1,0.8,0.3,1.7,0.3h2.5c0.8,0,1.6-0.2,1.7-0.4s-0.5-0.4-1.3-0.3
					L74.5,36.6z"/>
				<path class="st6" d="M90.1,36.6c-0.8,0-1.4,0.2-1.3,0.3c0.1,0.2,0.9,0.3,1.7,0.3h3c0.8,0,1.6-0.2,1.7-0.4
					c0.1-0.2-0.5-0.4-1.3-0.4L90.1,36.6z"/>
				<path class="st6" d="M107.3,36.6c-0.8,0-1.4,0.2-1.4,0.4c0.1,0.2,0.8,0.3,1.6,0.3h1.5c0.8,0,1.6-0.2,1.6-0.4
					c0.1-0.2-0.5-0.4-1.4-0.3H107.3z"/>
				<path class="st6" d="M141.5,36.6c-0.8,0-1.4,0.2-1.4,0.4s0.8,0.3,1.6,0.3h1.5c0.8,0,1.6-0.2,1.6-0.4c0-0.2-0.5-0.4-1.4-0.3
					H141.5z"/>
				<path class="st6" d="M165.8,36.6c-0.8,0-1.4,0.2-1.4,0.4c0.1,0.2,0.8,0.3,1.6,0.3h1c0.8,0,1.6-0.2,1.6-0.4
					c0.1-0.2-0.5-0.4-1.4-0.3H165.8z"/>
				<path class="st6" d="M177.9,36.7c-0.8,0-1.4,0.2-1.2,0.3s0.9,0.3,1.8,0.3h5.5c0.8,0,1.6-0.2,1.8-0.4c0.2-0.2-0.4-0.4-1.2-0.4
					L177.9,36.7z"/>
				<path class="st6" d="M192.9,36.6c-0.8,0-1.4,0.2-1.4,0.4c0.1,0.2,0.8,0.3,1.6,0.3h0.5c0.8,0,1.5-0.2,1.6-0.4
					c0.1-0.2-0.6-0.4-1.4-0.3H192.9z"/>
				<path class="st6" d="M198.3,36.6c-0.8,0-1.4,0.2-1.3,0.3c0.1,0.2,0.9,0.3,1.7,0.3h2.5c0.8,0,1.6-0.2,1.7-0.4
					c0.1-0.2-0.5-0.4-1.3-0.3L198.3,36.6z"/>
				<path class="st6" d="M210.2,36.6c-0.8,0-1.4,0.2-1.3,0.4c0.1,0.2,0.8,0.3,1.6,0.3h1.7c0.8,0,1.6-0.2,1.6-0.4
					c0-0.2-0.5-0.4-1.3-0.3H210.2z"/>
				<path class="st6" d="M217.3,36.6c-0.8,0-1.4,0.2-1.4,0.4s0.8,0.3,1.6,0.3h0.8c0.8,0,1.6-0.2,1.6-0.4c0.1-0.2-0.6-0.4-1.4-0.3
					H217.3z"/>
				<path class="st6" d="M227.3,36.7c-0.8,0-1.3,0.2-1.2,0.3c0.1,0.1,1,0.3,1.8,0.3h7.6c0.8,0,1.6-0.2,1.8-0.4
					c0.2-0.2-0.3-0.4-1.2-0.4L227.3,36.7z"/>
				<path class="st6" d="M244.4,36.7c-0.8,0-1.3,0.2-1.2,0.3c0.2,0.2,1,0.3,1.8,0.3h7.6c0.8,0,1.6-0.2,1.8-0.4
					c0.2-0.2-0.3-0.4-1.2-0.4L244.4,36.7z"/>
				<path class="st6" d="M287.5,36.7c-0.8,0-1.3,0.2-1.2,0.3c0.2,0.2,1,0.3,1.8,0.3h7.6c0.8,0,1.6-0.2,1.8-0.4
					c0.2-0.2-0.3-0.4-1.2-0.4L287.5,36.7z"/>
				<path class="st6" d="M271.6,8c-0.8,0-1.4,0.2-1.3,0.3c0.1,0.2,0.9,0.3,1.7,0.3h2.9c0.8,0,1.6-0.2,1.7-0.4s-0.5-0.4-1.3-0.4
					L271.6,8z"/>
				<path class="st6" d="M258.2,8c-0.8,0-1.4,0.2-1.3,0.3c0.1,0.1,0.9,0.3,1.7,0.3h3.8c0.8,0,1.6-0.2,1.7-0.4s-0.5-0.4-1.3-0.4
					L258.2,8z"/>
				<path class="st6" d="M251.4,8c-0.8,0-1.4,0.2-1.3,0.4c0.1,0.2,0.8,0.3,1.6,0.3h1.8c0.8,0,1.6-0.2,1.7-0.4
					c0.1-0.2-0.5-0.4-1.3-0.3H251.4z"/>
				<path class="st6" d="M253.7,21.9c-0.8,0-1.4,0.2-1.3,0.3c0.1,0.2,0.9,0.3,1.7,0.3h3.1c0.8,0,1.6-0.2,1.7-0.4
					c0.1-0.2-0.5-0.4-1.3-0.4L253.7,21.9z"/>
				<path class="st6" d="M212.1,7c-0.8,0-1.4,0.2-1.3,0.4c0.1,0.2,0.8,0.3,1.7,0.3h1.8c0.8,0,1.6-0.2,1.6-0.4
					c0.1-0.2-0.5-0.4-1.3-0.3H212.1z"/>
				<path class="st6" d="M221.8,7c-0.8,0-1.4,0.2-1.3,0.4c0.1,0.2,0.8,0.3,1.6,0.3h1.8c0.8,0,1.6-0.2,1.6-0.4c0-0.2-0.5-0.4-1.3-0.3
					H221.8z"/>
				<path class="st6" d="M215.7,13.1c-0.7,0-1.3,0.2-1.2,0.4s0.6,0.3,1.2,0.3c0.6,0,1.2-0.2,1.2-0.4C217,13.2,216.4,13.1,215.7,13.1
					z"/>
				<path class="st6" d="M219,11.1c-0.8,0-1.5,0.2-1.4,0.4c0.1,0.2,0.7,0.3,1.5,0.3c0.8,0,1.5-0.2,1.5-0.4c0.1-0.2-0.6-0.4-1.4-0.3
					H219z"/>
				<path class="st6" d="M176,11.5c-0.8,0-1.5,0.2-1.4,0.4c0.1,0.2,0.7,0.3,1.5,0.3c0.8,0,1.5-0.2,1.5-0.4c0.1-0.2-0.6-0.4-1.4-0.3
					H176z"/>
				<path class="st6" d="M186.8,21.6c-0.8,0-1.4,0.2-1.4,0.4s0.8,0.3,1.6,0.3h0.5c0.8,0,1.5-0.2,1.6-0.4c0.1-0.2-0.6-0.4-1.4-0.3
					H186.8z"/>
				<path class="st6" d="M179.2,25.2c-0.8,0-1.4,0.2-1.3,0.3c0.1,0.2,0.8,0.3,1.7,0.3h2.5c0.8,0,1.6-0.2,1.7-0.4
					c0.1-0.2-0.5-0.4-1.3-0.3L179.2,25.2z"/>
				<path class="st6" d="M286.4,25.9c-0.8,0-1.4,0.2-1.3,0.3c0.1,0.1,0.8,0.3,1.7,0.3h2.5c0.8,0,1.6-0.2,1.7-0.4
					c0.1-0.2-0.5-0.4-1.3-0.3L286.4,25.9z"/>
				<path class="st6" d="M108.2,28.8c-0.8,0-1.4,0.2-1.4,0.4c0,0.2,0.8,0.3,1.6,0.3h1.1c0.8,0,1.6-0.2,1.6-0.4
					c0-0.2-0.5-0.4-1.4-0.3H108.2z"/>
				<path class="st6" d="M93,25.7c-0.8,0-1.4,0.2-1.4,0.4c0.1,0.2,0.8,0.3,1.6,0.3h1.1c0.8,0,1.6-0.2,1.6-0.4
					c0.1-0.2-0.5-0.4-1.4-0.3H93z"/>
				<path class="st6" d="M71.4,25.5c-0.8,0-1.4,0.2-1.4,0.4c0.1,0.2,0.8,0.3,1.6,0.3h1.1c0.8,0,1.6-0.2,1.6-0.4
					c0.1-0.2-0.5-0.4-1.4-0.3H71.4z"/>
				<path class="st6" d="M38.8,13.9c-0.8,0-1.4,0.2-1.3,0.3c0.1,0.2,0.9,0.3,1.7,0.3h2.6c0.8,0,1.6-0.2,1.7-0.4
					c0.1-0.2-0.5-0.4-1.3-0.4L38.8,13.9z"/>
				<path class="st6" d="M100.1,8.4c-0.8-0.1-1.4,0-1.4,0.2c0,0.2,0.8,0.4,1.6,0.5l1.1,0.2c0.8,0.1,1.6,0,1.7-0.2
					c0.1-0.2-0.5-0.4-1.3-0.5L100.1,8.4z"/>
				<path class="st6" d="M193,27.5c-0.8,0-1.4,0.2-1.4,0.4c0.1,0.2,0.8,0.3,1.6,0.3h1.1c0.8,0,1.6-0.2,1.6-0.4
					c0.1-0.2-0.5-0.4-1.4-0.3H193z"/>
				<path class="st6" d="M220.2,24.9c-0.8,0-1.4,0.2-1.4,0.4c0.1,0.2,0.8,0.3,1.6,0.3h1.1c0.8,0,1.6-0.2,1.6-0.4
					c0.1-0.2-0.5-0.4-1.4-0.3H220.2z"/>
				<path class="st6" d="M154.7,7.7c-0.8,0-1.3,0.2-1.1,0.3c0.2,0.2,1.1,0.3,1.9,0.3h9.8c0.8,0,1.7-0.2,1.9-0.4s-0.3-0.4-1.1-0.4
					L154.7,7.7z"/>
				<path class="st6" d="M122.3,7.8c-0.8,0-1.3,0.2-1.1,0.3c0.2,0.1,1.1,0.3,1.9,0.3h10.3c0.8,0,1.7-0.2,1.9-0.4s-0.2-0.4-1.1-0.4
					L122.3,7.8z"/>
				<path class="st6" d="M120.6,21.6c-0.8,0-1.4,0.2-1.3,0.3c0.1,0.2,0.9,0.3,1.7,0.3h4.2c0.8,0,1.6-0.2,1.7-0.4
					c0.1-0.2-0.4-0.4-1.3-0.4L120.6,21.6z"/>
				<path class="st6" d="M129.3,21.6c-0.8,0-1.4,0.2-1.3,0.3c0.1,0.2,0.9,0.3,1.7,0.3h3.8c0.8,0,1.6-0.2,1.7-0.4
					c0.1-0.2-0.5-0.4-1.3-0.4L129.3,21.6z"/>
				<path class="st6" d="M147.9,34.8c-0.8,0-1.4,0.2-1.4,0.4c0.1,0.2,0.8,0.3,1.6,0.3h0.3c0.8,0,1.5-0.2,1.6-0.4
					c0.1-0.2-0.6-0.4-1.4-0.3H147.9z"/>
				<path class="st6" d="M145.4,12.6c-0.8-0.1-1.4,0-1.4,0.2c0.1,0.2,0.8,0.4,1.6,0.5l1.9,0.3c0.8,0.1,1.6,0,1.7-0.1
					c0.1-0.2-0.5-0.4-1.3-0.5L145.4,12.6z"/>
				<path class="st6" d="M226.8,27.6c-0.8-0.1-1.4,0-1.4,0.2c0.1,0.2,0.8,0.4,1.6,0.5l1.9,0.3c0.8,0.1,1.6,0,1.7-0.1
					c0.1-0.2-0.5-0.4-1.3-0.5L226.8,27.6z"/>
				<path class="st6" d="M223.9,13.1c-0.7,0-1.2,0.2-1.1,0.4c0,0.2,0.6,0.3,1.1,0.3s1.1-0.2,1.1-0.4C225,13.2,224.6,13.1,223.9,13.1
					z"/>
				<path class="st6" d="M262.3,21.9c-0.8,0-1.4,0.2-1.3,0.3c0.1,0.1,0.9,0.3,1.7,0.3h3.8c0.8,0,1.6-0.2,1.7-0.4
					c0.1-0.2-0.5-0.4-1.3-0.4L262.3,21.9z"/>
				<path class="st6" d="M293.5,8c-0.8,0-1.4,0.2-1.3,0.3c0.1,0.1,0.8,0.3,1.7,0.3h1.9c0.8,0,1.6-0.2,1.7-0.4s-0.5-0.4-1.3-0.3
					L293.5,8z"/>
				<path class="st6" d="M153.4,36.7c-0.8,0-1.4,0.2-1.2,0.3s1,0.3,1.8,0.3h6.3c0.8,0,1.6-0.2,1.8-0.4c0.2-0.2-0.4-0.4-1.2-0.4
					L153.4,36.7z"/>
				<path class="st6" d="M113.6,36.7c-0.8,0-1.3,0.2-1.1,0.3s1.1,0.3,1.9,0.3h9.3c0.8,0,1.7-0.2,1.9-0.4c0.2-0.2-0.3-0.4-1.1-0.4
					L113.6,36.7z"/>
				<path class="st6" d="M128.4,36.6c-0.8,0-1.4,0.2-1.3,0.3c0.1,0.1,0.9,0.3,1.7,0.3h3.7c0.8,0,1.6-0.2,1.7-0.4
					c0.1-0.2-0.5-0.4-1.3-0.4L128.4,36.6z"/>
				<path class="st6" d="M58.1,36.7c-0.8,0-1.4,0.2-1.3,0.4c0.1,0.2,0.8,0.3,1.6,0.3h1.7c0.8,0,1.6-0.2,1.6-0.4s-0.5-0.4-1.3-0.3
					H58.1z"/>
			</g>
			<g transform="translate(59.000000, 43.000000)">
				<polygon class="st0" points="183,20.2 181,10.4 180.9,10.4 181,10.3 179.1,1 157.4,0.8 151,5.7 150.3,0.8 139.6,0.8 136.6,3.9 
					135.4,3.8 135.1,0.7 123.9,0.7 116.4,11.7 116.5,13.4 106.5,13.4 106.1,0.6 93.6,0.5 92.4,10.5 92.2,3.7 88.5,3.6 88.2,0.5 
					67.9,0.4 67.7,3.5 63.8,3.5 63.8,4.2 61.6,0.4 34.6,0.3 33.9,5.7 27.3,0.2 5,0.1 0.2,23.1 18.3,30.4 27.5,30.5 27.8,28.5 
					31.7,30.5 41.1,30.5 41.3,29 43.6,30.5 66.8,30.5 66.9,28.5 68.3,30.5 78.9,30.6 79.1,25 79.6,25 80.9,30.6 92.3,30.6 116,30.6 
					117.5,28.8 117.7,30.7 127.5,30.7 130.7,28.2 130.9,30.7 140.4,30.7 142.7,29.4 142.9,30.7 161.8,30.7 179.8,23.6 179.4,21.8 
									"/>
				<g transform="translate(3.000000, 3.000000)">
					<polygon class="st2" points="34.5,0.1 33.3,8.7 23,0.1 4.7,0 0.9,18.4 16.1,24.6 21.7,24.6 22.2,20.9 29.6,24.6 35.2,24.6 
						35.6,20.8 41.7,24.6 60.7,24.6 61,20 56,13.6 61.4,13.6 61.7,9.2 56.6,0.2 					"/>
					<polygon class="st2" points="82.5,3.5 82.2,0.3 68,0.3 67.8,3.4 63.9,3.4 63,18.6 67.2,24.7 72.7,24.7 72.9,19.1 79.3,19.1 
						80.6,24.7 86.1,24.7 86.2,11.9 86,3.5 					"/>
					<polygon class="st2" points="176.4,15.6 175.3,10.2 171.4,10.1 170.9,7.8 174.4,5.9 173.3,0.8 155.6,0.7 145.5,8.4 144.4,0.6 
						138.1,0.6 135.1,3.7 134.6,3.7 133.4,4.9 133.3,3.7 129.4,3.7 129.1,0.6 122.8,0.5 116.7,9.4 117.7,24.8 123.2,24.8 
						130.4,19.2 130.9,24.8 136.4,24.8 142.4,21.4 142.8,24.8 158.1,24.8 173.1,18.9 172.8,17.1 					"/>
					<polygon class="st2" points="100.3,13.1 99.9,0.4 93.5,0.4 92.4,9.3 92.5,24.7 111.3,24.7 116.5,18.7 116.1,13.2 					"/>
				</g>
				<polygon class="st0" points="63.7,27.6 58.1,21.6 39.8,16.5 41.4,5.2 59.6,3.2 65.4,11.5 				"/>
				<polygon class="st0" points="38.2,27.6 27.1,21.5 21.5,12.2 10.9,9.7 15.5,1.9 27.6,2.2 41,12.7 35,21.5 38.6,23.8 				"/>
				<polyline class="st0" points="24.7,27.6 10.7,21.5 12,14.7 20.8,18.5 20.3,21.5 25.2,23.9 				"/>
				<path class="st0" d="M75.7,27.7l-3-6c0,0-2.5-2.8-2.2-3.1c0.3-0.3,1.8-4.9,2.2-4.9c0.4,0,0.1,1.1,0.4,1.4
					c0.3,0.3,2.9,7.1,2.9,7.1L75.7,27.7z"/>
				<polygon class="st0" points="95.5,27.7 96.7,21.7 97.9,11.3 96.7,2.3 94.8,2.3 93,16.4 				"/>
				<polygon class="st0" points="120.7,27.8 127.3,21.8 129,16.9 126.6,3 123.9,3 118.5,12.3 119.5,27.2 				"/>
				<path class="st0" d="M133.9,27.8l9.3-6l0.6-8.3l-1.1-3.2L141.8,3l-2.4,0.1l-2.8,2.7c0,0-6,2-6.2,2.3c-0.2,0.4,3.5,13.7,3.5,13.7
					l-1.5,2.4L133.9,27.8z"/>
				<polygon class="st0" points="145.8,27.8 157.6,21.9 172.5,18.5 174.5,16.7 172.6,12.5 160.2,10.7 160.8,4.9 159.6,2.3 
					148.3,10.2 149.9,21.8 145.4,24.4 				"/>
				<path class="st0" d="M72,7c-0.2,0.3,0,4.2,0,4.2h12.1l-0.4-3.6L72,7z"/>
				<path class="st0" d="M172.1,13.6c0,0,6.1-4.5,6.2-4.5c0.1,0-2.4-2.8-2.4-2.8l-15.6,1.3l0.5,4.1L172.1,13.6z"/>
				<g transform="translate(3.000000, 3.000000)">
					
						<linearGradient id="SVGID_10_" gradientUnits="userSpaceOnUse" x1="-572.7996" y1="356.2973" x2="-572.7996" y2="357.3" gradientTransform="matrix(25.7 0 0 -18.5 14734.499 6610)">
						<stop  offset="0" style="stop-color:#FFFFFF"/>
						<stop  offset="1" style="stop-color:#BCB7B4"/>
					</linearGradient>
					<path class="st16" d="M25.6,8.5h-4l-0.2,1.1h4L24,18.5h-6.8l1.1-6.7H8.8l-1.3,6.7H0.7L4.5,0H23l-0.5,3.1h3.9L25.6,8.5z
						 M19.3,6.4l0.2-1.1h-9.3l-0.2,1L19.3,6.4L19.3,6.4z"/>
					
						<linearGradient id="SVGID_11_" gradientUnits="userSpaceOnUse" x1="-571.874" y1="356.2973" x2="-571.874" y2="357.2973" gradientTransform="matrix(24.6 0 0 -18.5 14112.3994 6610.1001)">
						<stop  offset="0" style="stop-color:#FFFFFF"/>
						<stop  offset="1" style="stop-color:#BCB7B4"/>
					</linearGradient>
					<polygon class="st17" points="56.6,0.2 56.2,5.4 40.4,5.4 40.2,6.4 48.2,6.5 47.6,11.9 39.6,11.8 39.5,13 55.5,13 55.1,18.6 
						32,18.5 34.5,0.1 					"/>
					
						<linearGradient id="SVGID_12_" gradientUnits="userSpaceOnUse" x1="-570.2686" y1="356.0889" x2="-570.2686" y2="357.0953" gradientTransform="matrix(22.9 0 0 -18.3 13133.7012 6535.1006)">
						<stop  offset="0" style="stop-color:#FFFFFF"/>
						<stop  offset="1" style="stop-color:#BCB7B4"/>
					</linearGradient>
					<path class="st18" d="M82.1,3.4H86l-0.1,15.2h-6.7l0.2-6.7h-9.3l-0.3,6.7h-6.7L64,3.4h3.9l0.2-3.1l14.2,0.1L82.1,3.4z
						 M79.5,6.6V5.5h-9.2v1.1H79.5L79.5,6.6z"/>
					
						<linearGradient id="SVGID_13_" gradientUnits="userSpaceOnUse" x1="-571.4253" y1="355.989" x2="-571.4253" y2="356.9911" gradientTransform="matrix(24.1 0 0 -18.2 13935.6943 6497.8994)">
						<stop  offset="0" style="stop-color:#FFFFFF"/>
						<stop  offset="1" style="stop-color:#BCB7B4"/>
					</linearGradient>
					<polygon class="st19" points="173.3,0.8 174.4,5.9 159,5.9 159.2,6.9 170.8,7 171.4,10.2 175.3,10.2 176.4,15.6 172.5,15.6 
						173.1,18.9 154.6,18.9 153.8,13.4 169.5,13.4 169.2,12.3 157.5,12.3 157,9 153.1,9 152.3,3.8 156.1,3.8 155.6,0.7 					"/>
					
						<linearGradient id="SVGID_14_" gradientUnits="userSpaceOnUse" x1="-571.4253" y1="356.0905" x2="-571.4253" y2="357.0917" gradientTransform="matrix(24.1 0 0 -18.3 13906.1943 6535.2998)">
						<stop  offset="0" style="stop-color:#FFFFFF"/>
						<stop  offset="1" style="stop-color:#BCB7B4"/>
					</linearGradient>
					<polygon class="st20" points="144.4,0.6 146.9,18.8 140.3,18.8 139.1,9 137.8,9 138.1,12.2 131.6,12.2 131.3,8.9 129.9,8.9 
						130.9,18.8 124.3,18.8 122.8,0.5 129.1,0.6 129.4,3.7 133.3,3.7 133.6,6.8 134.9,6.8 134.6,3.7 138.4,3.7 138.1,0.6 					"/>
					
						<linearGradient id="SVGID_15_" gradientUnits="userSpaceOnUse" x1="-570.3696" y1="356.1979" x2="-570.3696" y2="357.1967" gradientTransform="matrix(23 0 0 -18.4 13223.5 6572.7998)">
						<stop  offset="0" style="stop-color:#FFFFFF"/>
						<stop  offset="1" style="stop-color:#BCB7B4"/>
					</linearGradient>
					<polygon class="st21" points="99.9,0.4 100.3,13.2 116.1,13.2 116.5,18.8 93.7,18.7 93.5,0.4 					"/>
				</g>
			</g>
		</g>
	</g>
</g>
</svg>
