<?xml version="1.0" encoding="utf-8"?>
<!-- Generator: Adobe Illustrator 23.1.1, SVG Export Plug-In . SVG Version: 6.00 Build 0)  -->
<svg version="1.1" id="Lager_1" xmlns="http://www.w3.org/2000/svg" xmlns:xlink="http://www.w3.org/1999/xlink" x="0px" y="0px"
	 viewBox="0 0 300.3 74.7" style="enable-background:new 0 0 300.3 74.7;" xml:space="preserve">
<style type="text/css">
	.st0{fill:#030303;}
	.st1{fill:url(#SVGID_1_);}
	.st2{fill:url(#SVGID_2_);}
	.st3{fill:url(#SVGID_3_);}
	.st4{fill:url(#SVGID_4_);}
	.st5{fill:url(#SVGID_5_);}
	.st6{fill:url(#SVGID_6_);}
	.st7{fill:url(#SVGID_7_);}
	.st8{fill:url(#SVGID_8_);}
	.st9{fill:url(#SVGID_9_);}
	.st10{fill:#29282A;}
	.st11{opacity:0.44;}
	.st12{opacity:0.5;}
	.st13{fill:#5A5558;}
	.st14{fill:#E0DBD6;}
	.st15{clip-path:url(#SVGID_11_);}
	.st16{clip-path:url(#SVGID_13_);}
	.st17{clip-path:url(#SVGID_15_);fill:#500039;}
	.st18{clip-path:url(#SVGID_17_);}
	.st19{clip-path:url(#SVGID_19_);}
	.st20{clip-path:url(#SVGID_21_);}
	.st21{clip-path:url(#SVGID_23_);}
	.st22{clip-path:url(#SVGID_25_);}
	.st23{clip-path:url(#SVGID_27_);}
	.st24{clip-path:url(#SVGID_29_);}
	.st25{clip-path:url(#SVGID_31_);}
	.st26{clip-path:url(#SVGID_33_);}
	.st27{clip-path:url(#SVGID_35_);}
	.st28{clip-path:url(#SVGID_37_);}
	.st29{clip-path:url(#SVGID_39_);}
	.st30{clip-path:url(#SVGID_41_);fill:#500039;}
	.st31{clip-path:url(#SVGID_43_);}
	.st32{clip-path:url(#SVGID_45_);}
	.st33{clip-path:url(#SVGID_47_);}
	.st34{clip-path:url(#SVGID_49_);}
	.st35{clip-path:url(#SVGID_51_);}
	.st36{clip-path:url(#SVGID_53_);}
	.st37{clip-path:url(#SVGID_55_);}
	.st38{clip-path:url(#SVGID_57_);fill:#500039;}
	.st39{clip-path:url(#SVGID_59_);}
	.st40{clip-path:url(#SVGID_61_);}
	.st41{clip-path:url(#SVGID_63_);fill:#500039;}
	.st42{clip-path:url(#SVGID_65_);}
	.st43{clip-path:url(#SVGID_67_);}
	.st44{clip-path:url(#SVGID_69_);fill:#500039;}
	.st45{clip-path:url(#SVGID_72_);fill:url(#SVGID_73_);}
	.st46{clip-path:url(#SVGID_75_);fill:#500039;}
	.st47{clip-path:url(#SVGID_77_);}
	.st48{clip-path:url(#SVGID_79_);}
	.st49{clip-path:url(#SVGID_81_);}
	.st50{clip-path:url(#SVGID_83_);}
	.st51{clip-path:url(#SVGID_85_);}
	.st52{clip-path:url(#SVGID_87_);}
	.st53{clip-path:url(#SVGID_89_);}
	.st54{clip-path:url(#SVGID_91_);}
	.st55{clip-path:url(#SVGID_93_);}
	.st56{clip-path:url(#SVGID_95_);}
	.st57{clip-path:url(#SVGID_97_);}
	.st58{clip-path:url(#SVGID_99_);}
	.st59{clip-path:url(#SVGID_101_);}
	.st60{clip-path:url(#SVGID_103_);}
	.st61{clip-path:url(#SVGID_105_);}
	.st62{clip-path:url(#SVGID_107_);}
	.st63{clip-path:url(#SVGID_109_);}
	.st64{clip-path:url(#SVGID_111_);}
	.st65{clip-path:url(#SVGID_113_);}
	.st66{clip-path:url(#SVGID_115_);}
	.st67{clip-path:url(#SVGID_117_);}
	.st68{clip-path:url(#SVGID_119_);}
	.st69{clip-path:url(#SVGID_121_);}
	.st70{clip-path:url(#SVGID_123_);}
	.st71{fill:url(#SVGID_124_);}
	.st72{fill:url(#SVGID_125_);}
	.st73{fill:url(#SVGID_126_);}
	.st74{fill:url(#SVGID_127_);}
	.st75{fill:url(#SVGID_128_);}
	.st76{fill:url(#SVGID_129_);}
	.st77{fill:url(#SVGID_130_);}
	.st78{fill:url(#SVGID_131_);}
	.st79{fill:url(#SVGID_132_);}
	.st80{fill:url(#SVGID_133_);}
	.st81{clip-path:url(#SVGID_135_);fill:#500039;}
	.st82{clip-path:url(#SVGID_137_);fill:#500039;}
	.st83{clip-path:url(#SVGID_139_);fill:#500039;}
	.st84{clip-path:url(#SVGID_141_);fill:#500039;}
	.st85{clip-path:url(#SVGID_143_);fill:#500039;}
	.st86{clip-path:url(#SVGID_145_);fill:#500039;}
	.st87{clip-path:url(#SVGID_147_);fill:#500039;}
	.st88{clip-path:url(#SVGID_149_);fill:#500039;}
	.st89{clip-path:url(#SVGID_151_);fill:#500039;}
	.st90{clip-path:url(#SVGID_153_);fill:#500039;}
	.st91{clip-path:url(#SVGID_155_);fill:#500039;}
	.st92{clip-path:url(#SVGID_157_);fill:#500039;}
	.st93{clip-path:url(#SVGID_159_);fill:#500039;}
	.st94{clip-path:url(#SVGID_161_);}
	.st95{clip-path:url(#SVGID_163_);fill:#500039;}
	.st96{fill:#FFB6F5;}
</style>
<rect x="32.5" y="31.5" class="st0" width="63" height="12"/>
<path class="st0" d="M288.6,33.7c-0.3-0.9-0.5-1.8-0.8-2.7c-0.3-0.9-0.5-1.8-0.8-2.7l-1.6-5.2c0,0-1-3.1-1.2-4.1
	c-0.4-1.3-0.8-2.7-1.2-4l-0.1-0.2l5.6-6.7l-2.6-8.2l-28.2,0l-0.9,1.4l-0.3-1.4l-28.4,0l-0.7,1.6l-0.3-1.6l-28.6,0L198,1.8L197.9,0
	L169,0l-0.3,3.1L168.6,0l-29,0l-0.1,2.8L139.2,0l-28.8,0l-0.2,1.8l-0.5-1.8l-13.9,0l-1.1,7.7L94,6.2l-0.3,0l-2.4-6.1l-13.7,0
	l-0.3,1.5l-0.7-1.5L63,0.1l-0.3,1.4l-0.8-1.4l-13.5,0l-1.6,6l-3.6,0l-0.7,2.6l-6.3-8.7l-13.1,0L11.9,34.9l11.9,11h13l2.1-7.7l1,1.1
	h3.5l5.8,6.6l13.3,0l0.3-1.3l0.9,1.3l13.4,0l0.2-1.4l0.9,1.4h13.6l1-7.3l3.5,7.3l13.7,0l0.2-1.7l0.6,1.7l28.6,0l0.1-2.6l0.3,2.6
	l28.8,0l0.3-2.9l0.1,2.9H183l0.4-2l0.1,2l14,0l0.6-1.7l0.2,1.7l13.8,0l0.7-1.6l0.2,1.6h13.7l0.8-1.4l0.2,1.4l13.6,0l7.8-11.2
	l-0.4-1.8l4.3,0l6.1-8.5l5.3,21.4l13.3,0l11.1-11.1L288.6,33.7z M154.1,25.5l0.1-4.7l13.6,0l0.1-1.6l0.2,6.3L154.1,25.5z"/>
<linearGradient id="SVGID_1_" gradientUnits="userSpaceOnUse" x1="37.3843" y1="34.1148" x2="37.3843" y2="2.0357">
	<stop  offset="0" style="stop-color:#D9CDCA"/>
	<stop  offset="1" style="stop-color:#A89F9C"/>
</linearGradient>
<polygon class="st1" points="36.8,8 35,14.3 43,14.3 44.7,8.1 48.4,8.1 49.9,2 60.5,2 53.1,34.1 41.7,34.1 45.1,20.5 41,20.5 
	39.2,27.1 31.8,27.1 33.6,20.5 29.5,20.5 25.4,34.1 14.2,34.1 24.5,2.1 34.9,2.1 33.2,7.9 "/>
<linearGradient id="SVGID_2_" gradientUnits="userSpaceOnUse" x1="66.2666" y1="34.1812" x2="66.2666" y2="2.1002">
	<stop  offset="0" style="stop-color:#D9CDCA"/>
	<stop  offset="1" style="stop-color:#A89F9C"/>
</linearGradient>
<polygon class="st2" points="75.1,2.1 68.8,34.2 57.4,34.2 64.5,2.1 "/>
<linearGradient id="SVGID_3_" gradientUnits="userSpaceOnUse" x1="90.6303" y1="34.0963" x2="90.6303" y2="1.9898">
	<stop  offset="0" style="stop-color:#D9CDCA"/>
	<stop  offset="1" style="stop-color:#A89F9C"/>
</linearGradient>
<polygon class="st3" points="90.6,23.8 91.5,17.1 87.4,17.1 84.6,34.1 73.2,34.1 79.2,2 89.8,2 88.9,7.9 92.5,8 91.6,14.2 
	95.7,14.3 97.4,2 108,2 104.3,34.1 92.9,34.1 94.3,23.9 "/>
<linearGradient id="SVGID_4_" gradientUnits="userSpaceOnUse" x1="123.0303" y1="34.0836" x2="123.0303" y2="1.9605">
	<stop  offset="0" style="stop-color:#D9CDCA"/>
	<stop  offset="1" style="stop-color:#A89F9C"/>
</linearGradient>
<polygon class="st4" points="136.2,27.5 136,34.1 108.7,34.1 112.1,2 137.4,2 137.1,7.6 122.2,7.7 121.8,14.2 136.8,14.2 
	136.6,20.4 121.2,20.5 120.7,27.4 "/>
<linearGradient id="SVGID_5_" gradientUnits="userSpaceOnUse" x1="272.8433" y1="34.0279" x2="272.8433" y2="1.815">
	<stop  offset="0" style="stop-color:#D9CDCA"/>
	<stop  offset="1" style="stop-color:#A89F9C"/>
</linearGradient>
<path class="st5" d="M284.5,1.8l1.8,5.7l-7.4,0l0,0.2c0.3,1.2,0.6,2.5,1,3.8c0.4,1.3,0.7,2.6,1.1,4c0.4,1.3,0.8,2.7,1.2,4.1
	c0.4,1.4,0.8,2.8,1.3,4.1c0.3,0.8,0.5,1.7,0.8,2.5c0.3,0.9,0.5,1.7,0.8,2.6c0.3,0.9,0.5,1.7,0.8,2.6c0.3,0.9,0.5,1.8,0.8,2.6
	l-11.5,0l-7.2-26.5l-7.4,0L259,1.8L284.5,1.8z"/>
<linearGradient id="SVGID_6_" gradientUnits="userSpaceOnUse" x1="244.5517" y1="34.0416" x2="244.5517" y2="1.8434">
	<stop  offset="0" style="stop-color:#D9CDCA"/>
	<stop  offset="1" style="stop-color:#A89F9C"/>
</linearGradient>
<polygon class="st6" points="257.9,14 259.5,20.4 244.1,20.4 247,34 235.5,34 229.6,1.9 255,1.8 256.4,7.5 241.4,7.6 242.8,14 "/>
<linearGradient id="SVGID_7_" gradientUnits="userSpaceOnUse" x1="215.6177" y1="34.0523" x2="215.6177" y2="1.8727">
	<stop  offset="0" style="stop-color:#D9CDCA"/>
	<stop  offset="1" style="stop-color:#A89F9C"/>
</linearGradient>
<path class="st7" d="M213.8,23.7l1.4,10.4l-11.5,0l-3.6-32.2l25.4,0l5.6,32.2l-11.5,0l-1.5-10.4L213.8,23.7z M221.2,11L220.6,7l-5,0
	l0.5,3.7l-3.9,0L211.6,7l-4.9,0l0.5,4.1l4.5,0l0.2,1.5l-2.2,0l0.8,6.3l2.7,0l-0.2-2.1l4,0l0.3,2.2l2.7,0l-1-6.3l-2.2,0l-0.2-1.5
	L221.2,11"/>
<linearGradient id="SVGID_8_" gradientUnits="userSpaceOnUse" x1="185.0513" y1="34.0641" x2="185.0513" y2="1.9029">
	<stop  offset="0" style="stop-color:#D9CDCA"/>
	<stop  offset="1" style="stop-color:#A89F9C"/>
</linearGradient>
<path class="st8" d="M193.9,17.4l3.8,0l1.7,16.7l-11.5,0l-1-13.6l-4.2-0.1l0.9,13.7l-11.5,0l-1.2-32.1l25.3,0l1.2,11.9l-3.8,0
	L193.9,17.4z M186.4,14.2l-0.5-6.6l-4.1,0l0.4,6.6L186.4,14.2"/>
<linearGradient id="SVGID_9_" gradientUnits="userSpaceOnUse" x1="153.979" y1="34.0738" x2="153.979" y2="1.9312">
	<stop  offset="0" style="stop-color:#D9CDCA"/>
	<stop  offset="1" style="stop-color:#A89F9C"/>
</linearGradient>
<polygon class="st9" points="152.2,7.6 166.9,7.6 166.7,1.9 141.4,2 140.3,34.1 167.6,34.1 167.4,27.5 151.8,27.5 "/>
<g>
	<path class="st10" d="M15.7,34.1c-0.8,0-1,0.5-0.4,1l8.1,7.8c0.6,0.6,1.8,1,2.6,1h7.1c0.8,0,1-0.5,0.5-1.1l-7.2-7.7
		c-0.6-0.6-1.7-1.1-2.5-1.1L15.7,34.1z"/>
</g>
<g>
	<path class="st10" d="M43.2,34.1c-0.8,0-1.1,0.5-0.5,1.1l6.3,7.6c0.5,0.6,1.6,1.1,2.5,1.1h7.5c0.8,0,1.1-0.5,0.6-1.2L54,35.3
		c-0.5-0.7-1.6-1.2-2.4-1.2L43.2,34.1z"/>
</g>
<g>
	<path class="st10" d="M33.3,27.1c-0.8,0-1.1,0.5-0.5,1.1l7.1,8c0.5,0.6,1.5,1.1,2.2,1.1s0.8-0.6,0.4-1.3l-0.5-0.7
		c-0.5-0.7-0.7-1.9-0.5-2.7l0.1-0.5c0.2-0.8,0-2-0.5-2.6l-1-1.2c-0.5-0.6-1.6-1.2-2.4-1.2L33.3,27.1z"/>
</g>
<g>
	<path class="st10" d="M58.9,34.2c-0.8,0-1.1,0.5-0.6,1.2l5.4,7.4c0.5,0.7,1.6,1.2,2.4,1.2h7.4c0.8,0,1.1-0.6,0.7-1.3l-4.6-7.3
		c-0.4-0.7-1.5-1.3-2.3-1.3L58.9,34.2z"/>
</g>
<g>
	<path class="st10" d="M74.7,34.1c-0.8,0-1.1,0.6-0.7,1.3l4.4,7.2c0.4,0.7,1.5,1.3,2.3,1.3h7.3c0.8,0,1.2-0.6,0.8-1.3l-3.5-7.1
		c-0.4-0.7-1.3-1.3-2.2-1.3L74.7,34.1z"/>
</g>
<g>
	<path class="st10" d="M94.4,34.1c-0.8,0-1.2,0.6-0.9,1.4l3.3,7.2c0.3,0.7,1.3,1.4,2.1,1.4h7.5c0.8,0,1.3-0.6,1-1.4l-2.6-7.1
		c-0.3-0.8-1.2-1.4-2-1.4L94.4,34.1z"/>
</g>
<g>
	<path class="st10" d="M110.2,34.1c-0.8,0-1.3,0.6-1,1.4l2.4,6.8c0.3,0.8,1.2,1.4,2,1.4h22.2c0.8,0,1.4-0.7,1.3-1.5l-0.9-6.7
		c-0.1-0.8-0.9-1.5-1.7-1.5L110.2,34.1z"/>
</g>
<g>
	<path class="st10" d="M141.8,34.1c-0.8,0-1.4,0.7-1.3,1.5l0.7,6.9c0.1,0.8,0.8,1.5,1.7,1.5H165c0.8,0,1.6-0.7,1.7-1.5l0.8-6.9
		c0.1-0.8-0.5-1.5-1.3-1.5L141.8,34.1z"/>
</g>
<g>
	<path class="st10" d="M173.5,34.1c-0.8,0-1.6,0.7-1.7,1.5l-0.9,6.8c-0.1,0.8,0.5,1.5,1.3,1.5h7.4c0.8,0,1.7-0.7,1.8-1.5l1.6-6.9
		c0.2-0.8-0.3-1.5-1.1-1.5L173.5,34.1z"/>
</g>
<g>
	<path class="st10" d="M189.4,34.1c-0.8,0-1.7,0.7-1.8,1.5l-1.6,6.8c-0.2,0.8,0.3,1.5,1.2,1.5h7.4c0.8,0,1.7-0.6,2-1.4l2.4-6.9
		c0.3-0.8-0.2-1.4-1-1.4L189.4,34.1z"/>
</g>
<g>
	<path class="st10" d="M205.2,34.1c-0.8,0-1.7,0.6-2,1.4l-2.5,7c-0.3,0.8,0.2,1.4,1,1.4h7.4c0.8,0,1.8-0.6,2.1-1.4l3.3-7.1
		c0.3-0.7,0-1.4-0.9-1.4L205.2,34.1z"/>
</g>
<g>
	<path class="st10" d="M221.1,34c-0.8,0-1.8,0.6-2.2,1.3l-3.5,7.1c-0.4,0.7,0,1.3,0.8,1.3h7.6c0.8,0,1.8-0.6,2.2-1.3l4.2-7.2
		c0.4-0.7,0.1-1.3-0.7-1.3L221.1,34z"/>
</g>
<g>
	<path class="st10" d="M237,34c-0.8,0-1.8,0.6-2.3,1.3l-4.4,7.3c-0.4,0.7-0.1,1.3,0.7,1.3h7.5c0.8,0,1.9-0.5,2.4-1.2l5.2-7.4
		c0.5-0.7,0.2-1.2-0.6-1.2L237,34z"/>
</g>
<g>
	<path class="st10" d="M276.6,34c-0.8,0-1.9,0.5-2.5,1.1l-6.6,7.5c-0.5,0.6-0.3,1.1,0.5,1.1h7.1c0.8,0,2-0.5,2.6-1l7.8-7.6
		c0.6-0.6,0.4-1-0.4-1L276.6,34z"/>
</g>
<g class="st11">
	<g>
		<g>
			<path class="st0" d="M22.6,7.4c-0.1,0.2,0.5,0.4,1.4,0.4l7.8,0c0.8,0,1.5-0.2,1.5-0.4c0-0.2-0.7-0.4-1.5-0.4h-7.6
				C23.4,7,22.7,7.2,22.6,7.4z"/>
		</g>
		<g>
			<path class="st0" d="M22.1,23.7c0.3-0.8-0.2-1.4-1-1.4h-1.9c-0.8,0-1.5,0.2-1.5,0.3c0,0.2,0.7,0.3,1.5,0.3h1c0.8,0,1.3,0.6,1,1.4
				l-1.7,5.3c-0.3,0.8,0.2,1.4,1,1.4h5.9c0.8,0,1.5-0.2,1.5-0.3s-0.7-0.3-1.5-0.3h-4.9c-0.8,0-1.3-0.6-1-1.4l0.1-0.4
				c0.3-0.8,1.1-1.4,2-1.4H27c0.8,0,1.5-0.2,1.5-0.3s-0.7-0.3-1.5-0.3h-4.3c-0.8,0-1.3-0.6-1-1.4L22.1,23.7z"/>
		</g>
		<g>
			<path class="st0" d="M53.4,8.8c0.1-0.8-0.5-1.5-1.3-1.5l-2.3,0c-0.8,0-1.6,0.2-1.6,0.3C48.1,7.8,48.7,8,49.5,8h1.7
				c0.8,0,1.4,0.7,1.3,1.5l-0.3,2.4c-0.1,0.8-0.9,1.5-1.7,1.5h-7.2c-0.8,0-1.5,0.2-1.5,0.3s0.7,0.3,1.5,0.3h7.1c0.8,0,1.6,0,1.7,0
				s0.9,0,1.7,0h3.6c0.8,0,1.5-0.2,1.5-0.3s-0.7-0.3-1.5-0.3h-3.2c-0.8,0-1.4-0.7-1.3-1.5L53.4,8.8z"/>
		</g>
		<g>
			<path class="st0" d="M63.3,30.2c0.1-0.8,0.1-1.1-0.2-0.7s-0.6,1.4-0.8,2.2l-0.2,1.2c-0.2,0.8,0.1,2,0.6,2.7l0.4,0.6
				c0.5,0.7,1.2,1.5,1.6,1.8c0.4,0.3,0.4,0,0-0.7l-1.3-1.9c-0.5-0.7-0.7-1.9-0.6-2.7L63.3,30.2z"/>
		</g>
		<g>
			<path class="st0" d="M74.5,8.5c0-0.2-0.7-0.3-1.5-0.3l-2.9,0.1c-0.8,0-1.2,0.2-0.7,0.3c0.4,0.2,1.4,0.3,2.3,0.3H73
				C73.8,8.9,74.5,8.7,74.5,8.5z"/>
		</g>
		<g>
			<path class="st0" d="M78.8,31.9c0.2-0.8,0.1-1.1-0.2-0.7c-0.3,0.4-0.6,1.3-0.8,1.8c-0.1,0.6,0,1.6,0.2,2.3s0.7,1.6,1,2
				c0.3,0.4,0.3,0.1,0.1-0.7l-0.4-1.1c-0.3-0.8-0.3-2.1-0.1-2.9L78.8,31.9z"/>
		</g>
		<g>
			<path class="st0" d="M76,23.8c-0.8,0-1.5,0.1-1.5,0.3c0,0.2,0.7,0.4,1.5,0.4l8.4,0.4c0.8,0,1.7,0.4,2,0.8
				c0.3,0.4,0.6,0.7,0.8,0.6c0.2-0.1,0-0.6-0.3-1.1c-0.3-0.5-1.2-0.9-2.1-1L76,23.8z"/>
		</g>
		<g>
			<path class="st0" d="M84.9,7.4c0.3,0.2,1.3,0.4,2.1,0.4h0.6c0.8,0,1.5-0.2,1.5-0.3c0-0.2-0.7-0.4-1.5-0.4l-1.8,0
				C85,7,84.6,7.2,84.9,7.4z"/>
		</g>
		<g>
			<path class="st0" d="M94.9,24c-0.8,0-1.5,0.2-1.5,0.4c0,0.2,0.7,0.3,1.5,0.3l4.9-0.2c0.8,0,1.4,0.6,1.3,1.4l-1,6.7
				c-0.1,0.8,0,2.1,0.2,2.9l0.2,0.7c0.2,0.8,0.7,1.8,1.1,2.3c0.3,0.5,0.4,0.2,0.2-0.6l-0.8-2.5c-0.2-0.8-0.3-2.1-0.2-2.9l1.1-7.4
				c0.1-0.8-0.4-1.5-1.3-1.4L94.9,24z"/>
		</g>
		<g>
			<path class="st0" d="M96.5,7.3c0,0.2,0.6,0.5,1.4,0.6l8.3,1c0.8,0.1,1.5,0,1.5-0.2s-0.7-0.4-1.5-0.5l-8.2-1
				C97.3,7,96.6,7.1,96.5,7.3z"/>
		</g>
		<g>
			<path class="st0" d="M114.6,28.3c0-0.8-0.6-1.5-1.4-1.5h-3c-0.8,0-1.5,0.2-1.5,0.3s0.7,0.3,1.5,0.3h2.2c0.8,0,1.5,0.7,1.4,1.5
				l-0.1,3.5c0,0.8,0.1,2.1,0.3,2.9l0.6,2.2c0.2,0.8,0.6,1.8,0.9,2.3c0.3,0.5,0.3,0.2,0.2-0.6l-0.9-3.9c-0.2-0.8-0.3-2.1-0.3-3
				L114.6,28.3z"/>
		</g>
		<g>
			<path class="st0" d="M110.4,11.3c0,0.2,0.7,0.4,1.5,0.4h2.8c0.8,0,1.8-0.2,2.3-0.4c0.4-0.2,0.1-0.4-0.7-0.4l-4.3,0.1
				C111.1,11,110.4,11.1,110.4,11.3z"/>
		</g>
		<g>
			<path class="st0" d="M129.7,14.9c0-0.8-0.2-1.5-0.4-1.5s-0.4,0.7-0.4,1.5v3.4c0,0.8,0.2,1.1,0.4,0.6c0.2-0.5,0.4-1.5,0.4-2.4
				L129.7,14.9z"/>
		</g>
		<g>
			<path class="st0" d="M133.1,27.7c0,0.8-0.7,1.5-1.5,1.5h-2.3c-0.8,0-1.5,0.7-1.5,1.5v2.3c0,0.8,0.2,1.5,0.3,1.5s0.3-0.7,0.3-1.5
				v-1.6c0-0.8,0.7-1.5,1.5-1.5h2.2c0.8,0,1.5-0.7,1.5-1.5l0-0.7c0-0.8-0.1-1.5-0.3-1.5S133.1,26.8,133.1,27.7L133.1,27.7z"/>
		</g>
		<g>
			<path class="st0" d="M161.7,29.2c-0.2,0.3-0.2,1.2-0.1,2l0.1,1.4c0.1,0.8,0.1,2.2,0,3l-1,7.1c-0.1,0.8,0,1.5,0.2,1.5
				c0.2,0,0.5-0.7,0.6-1.5l0.9-7.1c0.1-0.8,0.1-2.2,0-3l-0.3-2.5C162.1,29.3,161.9,28.9,161.7,29.2z"/>
		</g>
		<g>
			<path class="st0" d="M140.7,40.2c0,0.2,0.7,0.3,1.5,0.3h0.4c0.8,0,1.5-0.2,1.5-0.3c0-0.2-0.7-0.3-1.5-0.3h-0.4
				C141.4,39.9,140.7,40,140.7,40.2z"/>
		</g>
		<g>
			<path class="st0" d="M143.4,12.3c0.4,0.2,1.4,0.5,2.2,0.7l5.8,1c0.8,0.3,1.4,0.4,1.5,0.3c0.1-0.2-0.5-0.5-1.3-0.8l-7.4-1.3
				C143.3,12,143,12.1,143.4,12.3z"/>
		</g>
		<g>
			<path class="st0" d="M143.3,18.7c0.3-0.2-0.1-0.4-0.9-0.4l-0.3,0c-0.8,0-1.5,0.2-1.5,0.4c0,0.2,0.5,0.3,1,0.3
				C142.2,19.1,142.9,19,143.3,18.7z"/>
		</g>
		<g>
			<path class="st0" d="M175.8,12.6c0,0.4,0.8,0.8,1.6,0.8h0.7c0.8,0,1.6,0,1.7,0.1c0.1,0,0.6,0.4,0.8,0.3s0-0.4-0.3-0.6
				s-1.3-0.4-2.1-0.4l-0.1,0c-0.8,0-1.6-0.7-1.7-1.5L175.5,3c-0.1-0.8-0.3-1.5-0.5-1.4c-0.2,0-0.3,0.7-0.2,1.5l0.7,6.5
				c0.1,0.8-0.5,1.5-1.3,1.5h-2.4c-0.8,0-1.5,0.2-1.5,0.3c0,0.2,0.7,0.3,1.5,0.3h2.5C175.1,11.8,175.8,12.2,175.8,12.6z"/>
		</g>
		<g>
			<path class="st0" d="M174.8,29c0.1,0.8-0.2,2.1-0.6,2.8l-0.6,0.7c-0.2,0.8-0.2,1.5,0,1.5s0.5-0.6,0.8-1.4c0,0,0.1-0.3,0.4-0.8
				c0.3-0.4,0.6-0.8,0.7-0.8s0.1-0.7,0.1-1.5l-0.3-3.8c-0.1-0.8,0.6-1.5,1.4-1.5h5.6c0.8,0,1.5-0.2,1.5-0.3c0-0.2-0.7-0.3-1.5-0.3
				H176c-0.8,0-1.5,0.7-1.4,1.5L174.8,29z"/>
		</g>
		<g>
			<path class="st0" d="M186.6,26.1c0,0.2,0.7,0.3,1.5,0.3h3.8c0.8,0,1.8-0.2,2.1-0.4c0.4-0.2,0-0.4-0.9-0.3l-5,0
				C187.3,25.8,186.6,25.9,186.6,26.1z"/>
		</g>
		<g>
			<path class="st0" d="M189.8,16.3c0.2,0.2,1.1,0.3,1.9,0.3h1.1c0.8,0,1.5-0.2,1.5-0.3c0-0.2-0.7-0.3-1.5-0.3l-1.8,0
				C190.1,15.9,189.6,16.1,189.8,16.3z"/>
		</g>
		<g>
			<path class="st0" d="M170.6,40.8c0,0.2,0.6,0.4,1.5,0.5l8.3,0.6c0.8,0.1,1.5,0,1.5-0.2c0-0.2-0.6-0.4-1.5-0.5l-8.3-0.6
				C171.3,40.5,170.7,40.6,170.6,40.8z"/>
		</g>
		<g>
			<path class="st0" d="M219.2,25.9c-0.8,0-1.5,0.2-1.5,0.4c0,0.2,0.7,0.3,1.5,0.3l10.2,1.1c0.8,0.1,1.5,0,1.6-0.2
				c0.1-0.2-0.5-0.4-1.4-0.5L219.2,25.9z"/>
		</g>
		<g>
			<path class="st0" d="M250.9,13c-0.2,0.1-0.3,0.8-0.3,1.6l0.9,4.7c-0.4,0.7-0.5,1.4-0.3,1.5s0.6-0.5,1-1.2l-0.9-5.2
				C251.3,13.5,251.1,12.9,250.9,13z"/>
		</g>
		<g>
			<path class="st0" d="M245.5,4.2c-0.7,0-1.5-0.6-1.8-1.4s-0.6-1.3-0.8-1.3c-0.2,0.1-0.1,0.7,0.1,1.5l0.1,0.4
				c0.2,0.8,1,1.4,1.8,1.4s1.6,0.6,1.8,1.4l0.3,1c0.3,0.8,0.6,1.4,0.8,1.3s0.1-0.8-0.2-1.5l-0.5-1.5C247.1,4.9,246.3,4.2,245.5,4.2z
				"/>
		</g>
		<g>
			<path class="st0" d="M273.2,24.5c-0.8,0-1.5,0.2-1.5,0.3s0.7,0.3,1.5,0.3h9.6c0.8,0,1.5-0.2,1.5-0.3s-0.7-0.3-1.5-0.3H273.2z"/>
		</g>
		<g>
			<path class="st0" d="M280.4,8.1c0.2-0.1,0.2-0.7-0.1-1.5l-1-3.5c-0.2-0.8-0.5-1.4-0.7-1.4c-0.2,0.1-0.2,0.7,0.1,1.5l1,3.5
				C279.9,7.5,280.2,8.1,280.4,8.1z"/>
		</g>
	</g>
</g>
<g>
	<path class="st0" d="M47.9,7.9H51c0.8,0,0.8-0.1,0-0.3L50,7.4c-0.8-0.2-1.4,0-1.4,0.3C48.6,7.7,48.6,7.7,47.9,7.9z"/>
</g>
<g>
	<path class="st0" d="M30.3,38.9c-0.3-0.4-1.3-0.6-2.1-0.5l-1.8,0.2c-0.8,0.1-0.8,0.3,0,0.4l3,0.3C30.3,39.5,30.7,39.2,30.3,38.9z"
		/>
</g>
<g>
	<path class="st0" d="M60,42.7c-0.2-0.4-1.1-0.6-1.9-0.5l-3.9,0.3c-0.8,0.1-0.8,0.2,0,0.3l4.7,0.4C59.7,43.3,60.2,43.1,60,42.7z"/>
</g>
<g>
	<path class="st0" d="M95.9,41.3c-0.1-0.3,0.5-0.6,1.3-0.5l1,0c0.8,0,0.8,0.2,0.1,0.5l-0.7,0.2C96.7,41.7,96,41.6,95.9,41.3z"/>
</g>
<g>
	<path class="st0" d="M137,39c-0.1-0.5-0.8-0.8-1.6-0.7l-2.7,0.4c-0.8,0.1-0.8,0.3,0,0.4l3,0.5C136.4,39.8,137,39.5,137,39z"/>
</g>
<g>
	<path class="st0" d="M140.4,40.7c0-0.5,0.6-0.8,1.4-0.7l0.1,0c0.8,0.1,0.9,0.5,0.1,0.8l-0.2,0.1C141.1,41.3,140.4,41.2,140.4,40.7z
		"/>
</g>
<g>
	<path class="st0" d="M114.4,32.7c-0.1-0.7-0.3-0.8-0.4-0.1s0,1.8,0.2,2.6l0.2,0.6c0.2,0.8,0.4,0.8,0.3-0.1l0-0.3
		C114.6,34.6,114.5,33.4,114.4,32.7z"/>
</g>
<g>
	<path class="st0" d="M128.1,33.2c-0.2-0.3-0.3,0.1-0.2,1l0,0.4c0,0.8,0.2,1,0.3,0.3C128.2,34.2,128.2,33.5,128.1,33.2z"/>
</g>
<g>
	<path class="st0" d="M100.4,32.9c0-0.7-0.2-0.7-0.3,0c-0.1,0.7,0,1.9,0.2,2.7l0.2,0.7c0.3,0.8,0.4,0.8,0.2-0.1l-0.1-0.5
		C100.6,34.8,100.5,33.6,100.4,32.9z"/>
</g>
<g>
	<path class="st0" d="M78.2,33.4c-0.1-0.3-0.3-0.2-0.5,0.1c-0.1,0.4,0,1,0.3,1.5c0.3,0.4,0.5,0.4,0.5-0.1
		C78.5,34.4,78.4,33.7,78.2,33.4z"/>
</g>
<g>
	<path class="st0" d="M62.7,32.9c-0.2-0.7-0.4-0.6-0.6,0.2l0,0c-0.2,0.8,0.1,1.9,0.7,2.5c0.6,0.6,0.9,0.5,0.6-0.2
		S62.9,33.6,62.7,32.9z"/>
</g>
<g>
	<path class="st0" d="M34.8,31.9c-0.2-0.3,0.3-0.5,1.1-0.4l2.4,0.2c0.8,0.1,0.8,0.2,0,0.3l-1.6,0.2C35.9,32.3,35.1,32.2,34.8,31.9z"
		/>
</g>
<g>
	<path class="st0" d="M161.9,32.4c0.1-0.8,0.4-0.8,0.5,0l0.1,0.3c0.2,0.8,0.1,2.1-0.1,2.9l-0.3,1.1c-0.2,0.8-0.4,0.8-0.4,0l0-1
		c0-0.8,0.1-2.2,0.2-3L161.9,32.4z"/>
</g>
<g>
	<path class="st0" d="M152.6,14.4c0,0.4-0.6,0.3-1.2-0.2l-0.4-0.3c-0.7-0.5-0.6-0.7,0.2-0.5l0,0C151.9,13.6,152.6,14.1,152.6,14.4z"
		/>
</g>
<g>
	<path class="st0" d="M198.1,38.1c0.1-0.3-0.5-0.6-1.3-0.5l-1.1,0c-0.8,0-0.8,0.2-0.1,0.4l0.8,0.2C197.3,38.5,198,38.5,198.1,38.1z"
		/>
</g>
<g>
	<path class="st0" d="M192.3,33.2c-0.2-0.5-0.4-0.2-0.4,0.6l0,0.2c0,0.8,0.2,1.2,0.4,0.8S192.5,33.7,192.3,33.2z"/>
</g>
<g>
	<path class="st0" d="M213,39.6c0.1-0.4-0.4-0.6-1.3-0.5l-2.8,0.2c-0.8,0.1-0.8,0.2,0,0.3l2.4,0.4C212.1,40.1,212.8,39.9,213,39.6z"
		/>
</g>
<g>
	<path class="st0" d="M210,33.4c-0.1-0.4-0.3-0.4-0.4-0.1c-0.1,0.4-0.1,1.1,0.1,1.7c0.1,0.6,0.3,0.6,0.4,0.1
		C210.2,34.5,210.2,33.7,210,33.4z"/>
</g>
<g>
	<path class="st0" d="M251.3,20.9c-0.3-0.1-0.3-0.8,0.1-1.5c0.3-0.7,0.6-0.7,0.5,0.2l0,0C251.9,20.5,251.6,21,251.3,20.9z"/>
</g>
<g>
	<path class="st0" d="M231.8,38.8c0.3-0.4,1.2-0.5,2-0.4l4,0.6c0.8,0.1,0.8,0.2,0,0.3l-5,0.1C231.9,39.4,231.5,39.1,231.8,38.8z"/>
</g>
<g>
	<path class="st0" d="M270,38.8c0.4-0.5,1.3-0.7,2.1-0.6l3.7,0.7c0.8,0.2,0.8,0.3,0,0.4l-4.9,0.3C270,39.6,269.6,39.3,270,38.8z"/>
</g>
<g>
	<path class="st0" d="M271.5,24.8c-0.2-0.5,0.4-0.9,1.2-0.8l3.3,0.5c0.8,0.1,0.8,0.3,0,0.5l-2.8,0.5
		C272.5,25.7,271.7,25.3,271.5,24.8z"/>
</g>
<g class="st12">
	<path class="st0" d="M267.6,8.6c-0.3-0.2-0.5-1.1-0.5-1.9l0-0.2c0-0.8,0.1-0.8,0.3,0l0.3,1.1C267.9,8.4,267.9,8.8,267.6,8.6z"/>
</g>
<g>
	<path class="st0" d="M230.5,28.1l-2.1-0.8c-0.8-0.3-0.7-0.5,0.1-0.4l2.2,0.2"/>
</g>
<g class="st12">
	<path class="st0" d="M150.5,34.9c0.2-0.4,0.2-1.2,0-1.6c-0.2-0.4-1-0.8-1.8-0.8h-0.9c-0.8,0-1.7,0.4-2,0.9s0.1,1.1,0.9,1.3l2,0.6
		C149.6,35.5,150.4,35.3,150.5,34.9z"/>
</g>
<g>
	<path class="st0" d="M149.1,33.7c-0.5-0.6-0.5-1,0.1-1s1.3,0.3,1.6,0.6c0.3,0.4,0.2,1.2-0.3,1.9l-0.2,0.3c-0.4,0.7-0.7,0.8-0.5,0.3
		C150,35.2,149.7,34.3,149.1,33.7z"/>
</g>
<g>
	<path class="st0" d="M96.4,7.5C96.5,7,97.2,6.8,98,7l0.4,0.1c0.8,0.2,0.8,0.5,0,0.7L97.8,8C97,8.2,96.4,7.9,96.4,7.5z"/>
</g>
<g>
	<path class="st0" d="M58.7,13.8c-0.2,0.3-0.9,0.4-1.7,0.2l-0.5-0.1c-0.8-0.2-0.8-0.4,0-0.4l1-0.1C58.3,13.4,58.9,13.6,58.7,13.8z"
		/>
</g>
<g>
	<path class="st0" d="M28.4,26.7c0.1-0.4-0.4-0.6-1.2-0.4l-1.3,0.2c-0.8,0.2-0.8,0.4,0,0.5l0.8,0.1C27.5,27.3,28.2,27.1,28.4,26.7z"
		/>
</g>
<g>
	<path class="st10" d="M30.7,39c-0.3-0.3-0.3-1.2,0-2L31,36c0.2-0.8,0.4-0.8,0.4,0.1l-0.1,2C31.2,38.9,31,39.3,30.7,39z"/>
</g>
<g>
	<path class="st10" d="M59.8,42.9c-0.3-0.2-0.3-0.9,0-1.6s0.5-0.6,0.5,0.2v0.2C60.3,42.5,60.1,43,59.8,42.9z"/>
</g>
<g>
	<path class="st10" d="M86.1,25.3c0-0.5,0.2-0.3,0.5,0.5l0.2,0.5c0.3,0.8,0.3,1.1,0,0.7S86.1,25.8,86.1,25.3z"/>
</g>
<g>
	<path class="st10" d="M232.1,39.2c0.3-0.2,0.3-1.1,0.1-1.8l-0.3-1.2c-0.2-0.8-0.4-0.8-0.4,0.1l0,1.9
		C231.6,39,231.8,39.5,232.1,39.2z"/>
</g>
<g>
	<path class="st10" d="M270.6,39c0.4-0.2,0.5-1,0.1-1.8l-1.5-3.3c-0.3-0.7-0.5-0.7-0.4,0.1l0.7,3.9C269.7,38.8,270.2,39.2,270.6,39z
		"/>
</g>
<g>
	<path class="st10" d="M272.2,24.7c-0.2-0.3-0.6,0-1,0.8l-1.6,3.3c-0.4,0.7-0.3,0.8,0.2,0.1l1.7-2.4
		C272.1,25.9,272.4,25.1,272.2,24.7z"/>
</g>
<g>
	<path class="st0" d="M247.2,8.8l0.1-1.9c0-0.8,0.2-0.8,0.4,0l0.6,2.2"/>
</g>
<g>
	<path class="st13" d="M25.2,39.8c-0.7-0.2-0.7-0.4,0.1-0.3c0.8,0.1,2,0.2,2.6,0.3c0.6,0.1,0.6,0.2-0.1,0.3
		C27.1,40.2,25.9,40.1,25.2,39.8z"/>
</g>
<g>
	<path class="st13" d="M62.1,35.7c-0.6-0.6-0.7-0.5-0.2,0.2l0.6,0.8c0.5,0.7,1.2,1.5,1.7,1.7c0.4,0.3,0.4,0.1-0.1-0.5
		C63.6,37.3,62.7,36.4,62.1,35.7L62.1,35.7z"/>
</g>
<g>
	<path class="st13" d="M77.1,34.1c-0.2,0-0.1,0.6,0.2,1.2c0.3,0.7,0.5,0.7,0.4,0C77.5,34.6,77.3,34.1,77.1,34.1z"/>
</g>
<g>
	<path class="st13" d="M98.5,41.5c-0.6-0.1-0.5-0.2,0.3-0.4l0.9-0.2c0.8-0.1,1.1-0.1,0.7,0.2C100,41.4,99.2,41.6,98.5,41.5z"/>
</g>
<g>
	<path class="st13" d="M113.5,35.3c-0.3-0.4-0.4-0.2-0.2,0.6c0.2,0.7,0.6,1.9,0.9,2.5s0.5,0.5,0.3-0.3l-0.1-0.6
		C114.2,36.7,113.8,35.7,113.5,35.3z"/>
</g>
<g>
	<path class="st13" d="M163,36.6c-0.1-0.5-0.3-0.4-0.5,0.2c-0.2,0.6-0.3,1.7-0.3,2.4c0,0.8,0.2,0.8,0.5,0l0.1-0.3
		C163,38.1,163.1,37,163,36.6z"/>
</g>
<g>
	<path class="st13" d="M146.5,33.4c-0.2-0.5-0.5-0.4-0.8,0.2c-0.3,0.6,0.1,1.4,0.8,1.7l0,0c0.7,0.4,1.1,0.3,0.8-0.2
		C147.1,34.6,146.7,33.8,146.5,33.4z"/>
</g>
<g>
	<path class="st13" d="M174.2,41.8c-0.7-0.2-0.7-0.3,0.2-0.3h0.3c0.8,0,2.1,0.2,2.8,0.5c0.7,0.3,0.7,0.4-0.2,0.4l-0.3,0
		C176.2,42.1,174.9,41.9,174.2,41.8z"/>
</g>
<g>
	<path class="st13" d="M192.9,35.3c-0.1-0.3-0.3,0-0.5,0.6c-0.2,0.6-0.2,0.8,0.1,0.5S193,35.6,192.9,35.3z"/>
</g>
<g>
	<path class="st13" d="M210.9,34.6c-0.1-0.3-0.3,0-0.5,0.6c-0.2,0.6-0.2,0.8,0.1,0.5C210.8,35.4,211,34.9,210.9,34.6z"/>
</g>
<g>
	<path class="st13" d="M208,40.1c-0.8-0.2-0.8-0.3,0-0.4l0.6-0.1c0.8-0.1,1.8,0.1,2.2,0.3c0.4,0.3,0.3,0.5-0.3,0.5
		S208.9,40.2,208,40.1L208,40.1z"/>
</g>
<g>
	<path class="st13" d="M234.5,40c-0.7,0.1-0.7-0.1,0-0.3c0.7-0.2,2-0.4,2.8-0.3l1.1,0.1c0.8,0.1,0.8,0.2,0,0.2l-1.1,0.1
		C236.5,39.8,235.2,39.9,234.5,40z"/>
</g>
<g>
	<path class="st10" d="M251.5,21.2c-0.4,0.2-1,0.9-1.3,1.7l0,0c-0.3,0.8-0.2,0.8,0.3,0.2l0.8-1C251.8,21.4,251.9,21,251.5,21.2z"/>
</g>
<g>
	<path class="st0" d="M280.5,8.4c-0.4,0-0.7-0.7-0.8-1.5l-0.1-0.6c-0.1-0.8,0.1-0.9,0.5-0.1l0.4,0.9C280.8,7.8,280.8,8.4,280.5,8.4z
		"/>
</g>
<g>
	<path class="st0" d="M170.4,11.7c0-0.4,0.6-0.7,1.4-0.7l0.5,0c0.8,0,0.9,0.3,0.1,0.6l-0.6,0.3C171,12.2,170.4,12.2,170.4,11.7z"/>
</g>
<g>
	<path class="st0" d="M129.4,13.3c-0.3-0.2-0.5,0.4-0.4,1.2l0.1,0.6c0.1,0.8,0.3,0.8,0.5,0l0-0.1C129.8,14.2,129.7,13.4,129.4,13.3z
		"/>
</g>
<g>
	<path class="st0" d="M92.7,24.6c-0.1-0.3,0.5-0.6,1.3-0.6h3.2c0.8,0,0.8,0.1,0,0.3l-2.9,0.6C93.6,25.1,92.8,24.9,92.7,24.6z"/>
</g>
<g>
	<path class="st0" d="M27.7,31c0-0.2-0.6-0.4-1.4-0.4h-0.8c-0.8,0-0.8,0.2,0,0.4l0.7,0.2C27,31.3,27.6,31.3,27.7,31z"/>
</g>
<g>
	<path class="st14" d="M16.1,33.7c-0.8,0-1.4,0.1-1.2,0.3c0.2,0.2,1,0.3,1.8,0.3h6.1c0.8,0,1.6-0.2,1.8-0.3c0.2-0.2-0.4-0.3-1.2-0.3
		L16.1,33.7z"/>
</g>
<g>
	<path class="st14" d="M43.7,33.7c-0.8,0-1.4,0.1-1.2,0.3c0.2,0.2,1,0.3,1.8,0.3h6.1c0.8,0,1.6-0.2,1.8-0.3c0.2-0.2-0.4-0.3-1.2-0.3
		L43.7,33.7z"/>
</g>
<g>
	<path class="st14" d="M59.3,33.6c-0.8,0-1.5,0.2-1.4,0.3c0.1,0.2,0.8,0.3,1.6,0.3h0.1c0.8,0,1.5-0.2,1.6-0.4
		c0.1-0.2-0.6-0.3-1.4-0.3L59.3,33.6z"/>
</g>
<g>
	<path class="st14" d="M31.5,20c-0.8,0-1.5,0.2-1.4,0.3c0.1,0.2,0.8,0.3,1.6,0.3h0.1c0.8,0,1.5-0.2,1.6-0.3S32.9,20,32.1,20L31.5,20
		z"/>
</g>
<g>
	<path class="st14" d="M43,20c-0.8,0-1.5,0.2-1.4,0.3c0.1,0.2,0.8,0.3,1.6,0.3h0.1c0.8,0,1.5-0.2,1.6-0.3S44.3,20,43.5,20L43,20z"/>
</g>
<g>
	<path class="st14" d="M20.1,21.9c-0.8,0-1.5,0.2-1.4,0.3c0,0.2,0.7,0.3,1.5,0.3c0.8,0,1.4-0.2,1.5-0.3c0-0.2-0.6-0.3-1.4-0.3
		L20.1,21.9z"/>
</g>
<g>
	<path class="st14" d="M33.8,26.5c-0.8,0-1.4,0.2-1.3,0.3c0.1,0.2,0.9,0.3,1.7,0.3h2.7c0.8,0,1.6-0.2,1.7-0.4s-0.5-0.3-1.3-0.3
		L33.8,26.5z"/>
</g>
<g>
	<path class="st14" d="M27.5,6.6c-0.8,0-1.4,0.2-1.3,0.3c0.1,0.2,0.9,0.3,1.7,0.3h2.7c0.8,0,1.6-0.2,1.7-0.3
		c0.1-0.2-0.5-0.3-1.3-0.3L27.5,6.6z"/>
</g>
<g>
	<path class="st14" d="M75.2,33.6c-0.8,0-1.5,0.2-1.4,0.3c0.1,0.2,0.8,0.3,1.6,0.3h0.1c0.8,0,1.5-0.2,1.6-0.4s-0.6-0.3-1.4-0.3
		L75.2,33.6z"/>
</g>
<g>
	<path class="st14" d="M102.3,33.6c-0.8,0-1.5,0.2-1.4,0.3c0,0.2,0.7,0.3,1.5,0.3c0.8,0,1.4-0.2,1.5-0.4c0-0.2-0.6-0.3-1.4-0.3
		L102.3,33.6z"/>
</g>
<g>
	<path class="st14" d="M80.2,33.6c-0.8,0-1.4,0.2-1.3,0.3c0.1,0.2,0.8,0.3,1.7,0.3h2c0.8,0,1.6-0.2,1.7-0.4s-0.5-0.3-1.3-0.3
		L80.2,33.6z"/>
</g>
<g>
	<path class="st14" d="M94.7,33.6c-0.8,0-1.4,0.2-1.3,0.3c0.1,0.2,0.9,0.3,1.7,0.3h2.6c0.8,0,1.6-0.2,1.7-0.4
		c0.1-0.2-0.5-0.3-1.3-0.3L94.7,33.6z"/>
</g>
<g>
	<path class="st14" d="M110.6,33.6c-0.8,0-1.4,0.2-1.4,0.3c0.1,0.2,0.8,0.3,1.6,0.3h1.1c0.8,0,1.6-0.2,1.6-0.4s-0.5-0.3-1.4-0.3
		L110.6,33.6z"/>
</g>
<g>
	<path class="st14" d="M142.1,33.6c-0.8,0-1.4,0.2-1.4,0.3c0.1,0.2,0.8,0.3,1.6,0.3h1.1c0.8,0,1.6-0.2,1.6-0.4
		c0.1-0.2-0.5-0.3-1.4-0.3L142.1,33.6z"/>
</g>
<g>
	<path class="st14" d="M164.6,33.6c-0.8,0-1.4,0.2-1.4,0.3c0.1,0.2,0.8,0.3,1.6,0.3h0.6c0.8,0,1.5-0.2,1.6-0.4
		c0.1-0.2-0.6-0.3-1.4-0.3L164.6,33.6z"/>
</g>
<g>
	<path class="st14" d="M175.8,33.6c-0.8,0-1.4,0.2-1.2,0.3c0.1,0.2,0.9,0.3,1.7,0.3h4.9c0.8,0,1.6-0.2,1.7-0.4
		c0.1-0.2-0.4-0.3-1.2-0.3L175.8,33.6z"/>
</g>
<g>
	<path class="st14" d="M189.6,33.6c-0.8,0-1.4,0.2-1.4,0.3c0.1,0.2,0.8,0.3,1.6,0.3h0.2c0.8,0,1.5-0.2,1.6-0.4
		c0.1-0.2-0.6-0.3-1.4-0.3L189.6,33.6z"/>
</g>
<g>
	<path class="st14" d="M194.5,33.6c-0.8,0-1.4,0.2-1.3,0.3c0.1,0.2,0.8,0.3,1.7,0.3h2.1c0.8,0,1.6-0.2,1.7-0.4s-0.5-0.3-1.3-0.3
		L194.5,33.6z"/>
</g>
<g>
	<path class="st14" d="M205.6,33.6c-0.8,0-1.4,0.2-1.4,0.3c0.1,0.2,0.8,0.3,1.6,0.3h1.3c0.8,0,1.6-0.2,1.6-0.4
		c0.1-0.2-0.5-0.3-1.4-0.3L205.6,33.6z"/>
</g>
<g>
	<path class="st14" d="M212.1,33.6c-0.8,0-1.4,0.2-1.4,0.3c0.1,0.2,0.8,0.3,1.6,0.3h0.5c0.8,0,1.5-0.2,1.6-0.4s-0.6-0.3-1.4-0.3
		L212.1,33.6z"/>
</g>
<g>
	<path class="st14" d="M221.4,33.6c-0.8,0-1.4,0.1-1.2,0.3c0.2,0.2,1,0.3,1.8,0.3h6.7c0.8,0,1.6-0.2,1.8-0.4s-0.4-0.3-1.2-0.3
		L221.4,33.6z"/>
</g>
<g>
	<path class="st14" d="M237.1,33.6c-0.8,0-1.4,0.1-1.2,0.3c0.2,0.2,1,0.3,1.8,0.3h6.7c0.8,0,1.6-0.2,1.8-0.4s-0.4-0.3-1.2-0.3
		L237.1,33.6z"/>
</g>
<g>
	<path class="st14" d="M276.9,33.6c-0.8,0-1.4,0.1-1.2,0.3c0.2,0.2,1,0.3,1.8,0.3h6.7c0.8,0,1.6-0.2,1.8-0.4s-0.4-0.3-1.2-0.3
		L276.9,33.6z"/>
</g>
<g>
	<path class="st14" d="M262.3,7.1c-0.8,0-1.4,0.2-1.3,0.3c0.1,0.2,0.9,0.3,1.7,0.3h2.5c0.8,0,1.6-0.2,1.7-0.3
		c0.1-0.2-0.5-0.3-1.3-0.3L262.3,7.1z"/>
</g>
<g>
	<path class="st14" d="M249.9,7.1c-0.8,0-1.4,0.2-1.3,0.3c0.1,0.2,0.9,0.3,1.7,0.3h3.3c0.8,0,1.6-0.2,1.7-0.3S254.8,7,253.9,7
		L249.9,7.1z"/>
</g>
<g>
	<path class="st14" d="M243.6,7.1c-0.8,0-1.4,0.2-1.4,0.3s0.8,0.3,1.6,0.3h1.4c0.8,0,1.6-0.2,1.6-0.3s-0.5-0.3-1.4-0.3L243.6,7.1z"
		/>
</g>
<g>
	<path class="st14" d="M245.7,20c-0.8,0-1.4,0.2-1.3,0.3c0.1,0.2,0.9,0.3,1.7,0.3h2.6c0.8,0,1.6-0.2,1.7-0.3
		c0.1-0.2-0.5-0.3-1.3-0.3L245.7,20z"/>
</g>
<g>
	<path class="st14" d="M207.3,6.2c-0.8,0-1.4,0.2-1.4,0.3s0.8,0.3,1.6,0.3h1.4c0.8,0,1.6-0.2,1.6-0.4c0.1-0.2-0.5-0.3-1.4-0.3
		L207.3,6.2z"/>
</g>
<g>
	<path class="st14" d="M216.2,6.2c-0.8,0-1.4,0.2-1.4,0.3c0.1,0.2,0.8,0.3,1.6,0.3h1.4c0.8,0,1.6-0.2,1.6-0.4
		c0.1-0.2-0.5-0.3-1.4-0.3L216.2,6.2z"/>
</g>
<g>
	<path class="st14" d="M210.5,11.9c-0.7,0-1.2,0.2-1.1,0.3s0.6,0.3,1.1,0.3s1.1-0.2,1.1-0.3C211.7,12,211.2,11.9,210.5,11.9z"/>
</g>
<g>
	<path class="st14" d="M213.7,10.1c-0.8,0-1.5,0.2-1.4,0.3s0.7,0.3,1.4,0.3s1.4-0.2,1.4-0.4S214.6,10,213.7,10.1L213.7,10.1z"/>
</g>
<g>
	<path class="st14" d="M174,10.4c-0.8,0-1.5,0.2-1.4,0.3s0.7,0.3,1.4,0.3c0.7,0,1.4-0.2,1.4-0.4C175.5,10.5,174.9,10.4,174,10.4
		L174,10.4z"/>
</g>
<g>
	<path class="st14" d="M184,19.7c-0.8,0-1.4,0.2-1.4,0.3s0.8,0.3,1.6,0.3h0.3c0.8,0,1.5-0.2,1.6-0.3c0.1-0.2-0.6-0.3-1.4-0.3
		L184,19.7z"/>
</g>
<g>
	<path class="st14" d="M177,23c-0.8,0-1.4,0.2-1.3,0.3s0.8,0.3,1.7,0.3h2c0.8,0,1.6-0.2,1.7-0.3s-0.5-0.3-1.3-0.3L177,23z"/>
</g>
<g>
	<path class="st14" d="M275.9,23.7c-0.8,0-1.4,0.2-1.3,0.3c0.1,0.2,0.8,0.3,1.7,0.3h2c0.8,0,1.6-0.2,1.7-0.3
		c0.1-0.2-0.5-0.3-1.3-0.3L275.9,23.7z"/>
</g>
<g>
	<path class="st14" d="M111.3,26.3c-0.8,0-1.4,0.2-1.4,0.3c0.1,0.2,0.8,0.3,1.6,0.3h0.8c0.8,0,1.6-0.2,1.6-0.3
		c0.1-0.2-0.6-0.3-1.4-0.3L111.3,26.3z"/>
</g>
<g>
	<path class="st14" d="M97.4,23.5c-0.8,0-1.4,0.2-1.4,0.3s0.8,0.3,1.6,0.3h0.8c0.8,0,1.6-0.2,1.6-0.3c0.1-0.2-0.6-0.3-1.4-0.3
		L97.4,23.5z"/>
</g>
<g>
	<path class="st14" d="M77.4,23.3c-0.8,0-1.4,0.2-1.4,0.3c0.1,0.2,0.8,0.3,1.6,0.3h0.8c0.8,0,1.6-0.2,1.6-0.3
		c0.1-0.2-0.6-0.3-1.4-0.3L77.4,23.3z"/>
</g>
<g>
	<path class="st14" d="M47.3,12.6c-0.8,0-1.4,0.2-1.3,0.3c0.1,0.2,0.8,0.3,1.7,0.3l2.2,0c0.8,0,1.6-0.2,1.7-0.3
		c0.1-0.2-0.5-0.3-1.3-0.3L47.3,12.6z"/>
</g>
<g>
	<path class="st14" d="M103.9,7.5c-0.8-0.1-1.5,0-1.4,0.1s0.7,0.4,1.6,0.5l0.8,0.1c0.8,0.1,1.6,0.1,1.7-0.1c0.1-0.2-0.5-0.4-1.3-0.5
		L103.9,7.5z"/>
</g>
<g>
	<path class="st14" d="M189.7,25.2c-0.8,0-1.4,0.2-1.4,0.3c0.1,0.2,0.8,0.3,1.6,0.3h0.8c0.8,0,1.6-0.2,1.6-0.3
		c0.1-0.2-0.6-0.3-1.4-0.3L189.7,25.2z"/>
</g>
<g>
	<path class="st14" d="M214.8,22.7c-0.8,0-1.4,0.2-1.4,0.3s0.8,0.3,1.6,0.3h0.8c0.8,0,1.6-0.2,1.6-0.4c0.1-0.2-0.6-0.3-1.4-0.3
		L214.8,22.7z"/>
</g>
<g>
	<path class="st14" d="M154.3,6.9c-0.8,0-1.3,0.1-1.1,0.3c0.2,0.2,1.1,0.3,1.9,0.3h8.9c0.8,0,1.7-0.2,1.9-0.3
		c0.2-0.2-0.3-0.3-1.1-0.3L154.3,6.9z"/>
</g>
<g>
	<path class="st14" d="M124.4,7c-0.8,0-1.3,0.1-1.1,0.3s1.1,0.3,1.9,0.3h9.2c0.8,0,1.7-0.2,1.9-0.3c0.2-0.2-0.3-0.3-1.1-0.3L124.4,7
		z"/>
</g>
<g>
	<path class="st14" d="M122.8,19.7c-0.8,0-1.4,0.2-1.3,0.3s0.9,0.3,1.7,0.3h3.7c0.8,0,1.6-0.2,1.7-0.3s-0.5-0.3-1.3-0.3L122.8,19.7z
		"/>
</g>
<g>
	<path class="st14" d="M130.8,19.7c-0.8,0-1.4,0.2-1.3,0.3c0.1,0.2,0.9,0.3,1.7,0.3h3.3c0.8,0,1.6-0.2,1.7-0.3
		c0.1-0.2-0.5-0.3-1.3-0.3L130.8,19.7z"/>
</g>
<g>
	<path class="st14" d="M148.1,31.9c-0.8,0-1.5,0.2-1.4,0.3c0.1,0.2,0.8,0.3,1.6,0.3h0c0.8,0,1.5-0.2,1.6-0.3
		c0.1-0.2-0.6-0.3-1.4-0.3L148.1,31.9z"/>
</g>
<g>
	<path class="st14" d="M145.7,11.4c-0.8-0.1-1.4,0-1.4,0.1c0.1,0.2,0.8,0.4,1.6,0.5l1.5,0.2c0.8,0.1,1.6,0.1,1.7-0.1
		c0.1-0.2-0.5-0.4-1.3-0.5L145.7,11.4z"/>
</g>
<g>
	<path class="st14" d="M220.9,25.2c-0.8-0.1-1.4,0-1.4,0.1c0.1,0.2,0.8,0.4,1.6,0.5l1.5,0.2c0.8,0.1,1.6,0.1,1.7-0.1
		s-0.5-0.4-1.3-0.5L220.9,25.2z"/>
</g>
<g>
	<path class="st14" d="M218.1,11.9c-0.6,0-1.1,0.2-1.1,0.3s0.5,0.3,1.1,0.3s1-0.2,1.1-0.3S218.7,11.9,218.1,11.9z"/>
</g>
<g>
	<path class="st14" d="M253.6,20c-0.8,0-1.4,0.2-1.3,0.3c0.1,0.2,0.9,0.3,1.7,0.3h3.3c0.8,0,1.6-0.2,1.7-0.3
		c0.1-0.2-0.5-0.3-1.3-0.3L253.6,20z"/>
</g>
<g>
	<path class="st14" d="M282.5,7.1c-0.8,0-1.4,0.2-1.4,0.3s0.8,0.3,1.6,0.3h1.5c0.8,0,1.6-0.2,1.6-0.3s-0.5-0.3-1.4-0.3L282.5,7.1z"
		/>
</g>
<g>
	<path class="st14" d="M153.1,33.6c-0.8,0-1.4,0.1-1.2,0.3c0.2,0.2,0.9,0.3,1.8,0.3h5.6c0.8,0,1.6-0.2,1.8-0.4s-0.4-0.3-1.2-0.3
		L153.1,33.6z"/>
</g>
<g>
	<path class="st14" d="M116.4,33.6c-0.8,0-1.3,0.1-1.1,0.3c0.2,0.2,1,0.3,1.9,0.3h8.3c0.8,0,1.7-0.2,1.9-0.4s-0.3-0.3-1.1-0.3
		L116.4,33.6z"/>
</g>
<g>
	<path class="st14" d="M130,33.6c-0.8,0-1.4,0.2-1.3,0.3c0.1,0.2,0.9,0.3,1.7,0.3h3.2c0.8,0,1.6-0.2,1.7-0.4s-0.5-0.3-1.3-0.3
		L130,33.6z"/>
</g>
<g>
	<path class="st14" d="M65.2,33.7c-0.8,0-1.4,0.2-1.4,0.3c0.1,0.2,0.8,0.3,1.6,0.3h1.3c0.8,0,1.6-0.2,1.6-0.3
		c0.1-0.2-0.5-0.3-1.4-0.3L65.2,33.7z"/>
</g>
<g>
	<polygon class="st0" points="300.3,63.8 297.1,54 292.4,54 291.5,51.3 295.6,49.3 292.6,40.1 270.5,40.1 265.9,43 265.2,40.1 
		256.8,40.1 248.2,46.1 246.9,40.1 238.3,40.1 227.9,48.9 229.7,58.7 222.4,58.7 219.5,40.1 210.6,40.1 206.9,44.6 206.5,44.6 
		205.9,40.1 182.8,40.1 178.7,49.3 180.4,74.7 189.1,74.7 194.7,68.1 194.5,65.8 201.2,65.8 204.9,61.9 206.5,74.7 232.1,74.7 
		236.5,72.3 237,74.7 253.7,74.7 258.2,72.8 258.7,74.7 279.6,74.7 297.1,68.7 296,65.3 	"/>
	<polygon class="st0" points="173.4,54 175.1,48.6 174.7,40.1 150.7,40.1 150.8,44.6 147.5,44.6 147.2,40.1 137.2,40.1 137,44.6 
		129.9,44.6 128.4,40.1 118.8,40.1 117.5,58.7 105.7,58.7 106.8,49.1 100.5,40.1 91.5,40.1 90.8,44.8 86.7,40.1 68.7,40.1 68,43.8 
		63.7,40.1 36.7,40.1 36,42.9 31.5,40.1 9.4,40.1 0,68.8 18,74.7 25.8,74.7 26.7,71.4 35.4,74.7 43.2,74.7 43.3,74.5 43.9,74.7 
		69.3,74.7 69.4,74.5 69.8,74.7 78,74.7 78.7,70.3 80.7,70.3 87.1,74.7 95.4,74.7 95.4,74.6 95.6,74.7 130.1,74.7 130.6,65.8 
		136.4,65.8 136.4,67.7 138.2,74.7 146.4,74.7 147.6,74.7 168.7,74.7 170.3,70.3 172.7,70.3 175.9,62.9 175.4,54 	"/>
</g>
<g>
	<defs>
		<polygon id="SVGID_10_" points="203.6,51.2 198.1,58 197.9,55.3 203.2,48.3 		"/>
	</defs>
	<use xlink:href="#SVGID_10_"  style="overflow:visible;"/>
	<clipPath id="SVGID_11_">
		<use xlink:href="#SVGID_10_"  style="overflow:visible;"/>
	</clipPath>
	<polygon class="st15" points="203.6,51.2 198.1,58 197.9,55.3 203.2,48.3 	"/>
</g>
<g>
	<defs>
		<polygon id="SVGID_12_" points="126.9,42.1 129.4,49.7 129.2,53.8 126.7,46.6 		"/>
	</defs>
	<use xlink:href="#SVGID_12_"  style="overflow:visible;"/>
	<clipPath id="SVGID_13_">
		<use xlink:href="#SVGID_12_"  style="overflow:visible;"/>
	</clipPath>
	<polygon class="st16" points="126.9,42.1 129.4,49.7 129.2,53.8 126.7,46.6 	"/>
</g>
<g>
	<defs>
		<polygon id="SVGID_14_" points="24.8,57.7 38,63.8 26.7,63.8 12.2,57.7 		"/>
	</defs>
	<use xlink:href="#SVGID_14_"  style="overflow:visible;fill:#500039;"/>
	<clipPath id="SVGID_15_">
		<use xlink:href="#SVGID_14_"  style="overflow:visible;"/>
	</clipPath>
	<polygon class="st17" points="24.8,57.7 38,63.8 26.7,63.8 12.2,57.7 	"/>
</g>
<g>
	<defs>
		<polygon id="SVGID_16_" points="27.5,48.3 40.1,55.3 29.1,55.3 15.2,48.3 		"/>
	</defs>
	<use xlink:href="#SVGID_16_"  style="overflow:visible;"/>
	<clipPath id="SVGID_17_">
		<use xlink:href="#SVGID_16_"  style="overflow:visible;"/>
	</clipPath>
	<polygon class="st18" points="27.5,48.3 40.1,55.3 29.1,55.3 15.2,48.3 	"/>
</g>
<g>
	<defs>
		<polygon id="SVGID_18_" points="26.6,51.2 27.5,48.3 40.1,55.3 39.5,58 		"/>
	</defs>
	<use xlink:href="#SVGID_18_"  style="overflow:visible;"/>
	<clipPath id="SVGID_19_">
		<use xlink:href="#SVGID_18_"  style="overflow:visible;"/>
	</clipPath>
	<polygon class="st19" points="26.6,51.2 27.5,48.3 40.1,55.3 39.5,58 	"/>
</g>
<g>
	<defs>
		<polygon id="SVGID_20_" points="14.2,51.2 26.6,51.2 39.5,58 28.3,58 		"/>
	</defs>
	<use xlink:href="#SVGID_20_"  style="overflow:visible;"/>
	<clipPath id="SVGID_21_">
		<use xlink:href="#SVGID_20_"  style="overflow:visible;"/>
	</clipPath>
	<polygon class="st20" points="14.2,51.2 26.6,51.2 39.5,58 28.3,58 	"/>
</g>
<g>
	<defs>
		<polygon id="SVGID_22_" points="27.9,52.9 40.6,59.5 39.9,62.3 27,56 		"/>
	</defs>
	<use xlink:href="#SVGID_22_"  style="overflow:visible;"/>
	<clipPath id="SVGID_23_">
		<use xlink:href="#SVGID_22_"  style="overflow:visible;"/>
	</clipPath>
	<polygon class="st21" points="27.9,52.9 40.6,59.5 39.9,62.3 27,56 	"/>
</g>
<g>
	<defs>
		<polygon id="SVGID_24_" points="31.7,56 44.2,62.3 41.7,72.7 28.6,67.5 		"/>
	</defs>
	<use xlink:href="#SVGID_24_"  style="overflow:visible;"/>
	<clipPath id="SVGID_25_">
		<use xlink:href="#SVGID_24_"  style="overflow:visible;"/>
	</clipPath>
	<polygon class="st22" points="31.7,56 44.2,62.3 41.7,72.7 28.6,67.5 	"/>
</g>
<g>
	<defs>
		<polygon id="SVGID_26_" points="12.2,57.7 26.7,63.8 24.3,72.7 9.2,67.5 		"/>
	</defs>
	<use xlink:href="#SVGID_26_"  style="overflow:visible;"/>
	<clipPath id="SVGID_27_">
		<use xlink:href="#SVGID_26_"  style="overflow:visible;"/>
	</clipPath>
	<polygon class="st23" points="12.2,57.7 26.7,63.8 24.3,72.7 9.2,67.5 	"/>
</g>
<g>
	<defs>
		<polygon id="SVGID_28_" points="30.9,42.1 43,49.7 42,53.8 29.6,46.6 		"/>
	</defs>
	<use xlink:href="#SVGID_28_"  style="overflow:visible;"/>
	<clipPath id="SVGID_29_">
		<use xlink:href="#SVGID_28_"  style="overflow:visible;"/>
	</clipPath>
	<polygon class="st24" points="30.9,42.1 43,49.7 42,53.8 29.6,46.6 	"/>
</g>
<g>
	<defs>
		<polygon id="SVGID_30_" points="34.3,46.6 46.2,53.8 44.8,59.5 32.6,52.9 		"/>
	</defs>
	<use xlink:href="#SVGID_30_"  style="overflow:visible;"/>
	<clipPath id="SVGID_31_">
		<use xlink:href="#SVGID_30_"  style="overflow:visible;"/>
	</clipPath>
	<polygon class="st25" points="34.3,46.6 46.2,53.8 44.8,59.5 32.6,52.9 	"/>
</g>
<g>
	<defs>
		<polygon id="SVGID_32_" points="15.2,48.3 29.1,55.3 28.3,58 14.2,51.2 		"/>
	</defs>
	<use xlink:href="#SVGID_32_"  style="overflow:visible;"/>
	<clipPath id="SVGID_33_">
		<use xlink:href="#SVGID_32_"  style="overflow:visible;"/>
	</clipPath>
	<polygon class="st26" points="15.2,48.3 29.1,55.3 28.3,58 14.2,51.2 	"/>
</g>
<g>
	<defs>
		<polygon id="SVGID_34_" points="293.1,48.3 278.5,55.3 261.8,55.3 274.5,48.3 		"/>
	</defs>
	<use xlink:href="#SVGID_34_"  style="overflow:visible;"/>
	<clipPath id="SVGID_35_">
		<use xlink:href="#SVGID_34_"  style="overflow:visible;"/>
	</clipPath>
	<polygon class="st27" points="293.1,48.3 278.5,55.3 261.8,55.3 274.5,48.3 	"/>
</g>
<g>
	<defs>
		<polygon id="SVGID_36_" points="289.7,57.7 275.2,63.8 262.4,63.8 275.4,57.7 		"/>
	</defs>
	<use xlink:href="#SVGID_36_"  style="overflow:visible;"/>
	<clipPath id="SVGID_37_">
		<use xlink:href="#SVGID_36_"  style="overflow:visible;"/>
	</clipPath>
	<polygon class="st28" points="289.7,57.7 275.2,63.8 262.4,63.8 275.4,57.7 	"/>
</g>
<g>
	<defs>
		<polygon id="SVGID_38_" points="274.1,52.9 261.3,59.5 257.1,59.5 269.4,52.9 		"/>
	</defs>
	<use xlink:href="#SVGID_38_"  style="overflow:visible;"/>
	<clipPath id="SVGID_39_">
		<use xlink:href="#SVGID_38_"  style="overflow:visible;"/>
	</clipPath>
	<polygon class="st29" points="274.1,52.9 261.3,59.5 257.1,59.5 269.4,52.9 	"/>
</g>
<g>
	<defs>
		<polygon id="SVGID_40_" points="297.8,62.5 282.3,68.3 278,68.3 293,62.5 		"/>
	</defs>
	<use xlink:href="#SVGID_40_"  style="overflow:visible;fill:#500039;"/>
	<clipPath id="SVGID_41_">
		<use xlink:href="#SVGID_40_"  style="overflow:visible;"/>
	</clipPath>
	<polygon class="st30" points="297.8,62.5 282.3,68.3 278,68.3 293,62.5 	"/>
</g>
<g>
	<defs>
		<polygon id="SVGID_42_" points="273.3,67.5 260.3,72.7 258.8,66.6 271.5,60.7 		"/>
	</defs>
	<use xlink:href="#SVGID_42_"  style="overflow:visible;"/>
	<clipPath id="SVGID_43_">
		<use xlink:href="#SVGID_42_"  style="overflow:visible;"/>
	</clipPath>
	<polygon class="st31" points="273.3,67.5 260.3,72.7 258.8,66.6 271.5,60.7 	"/>
</g>
<g>
	<defs>
		<polygon id="SVGID_44_" points="275.4,57.7 262.4,63.8 261.3,59.5 274.1,52.9 		"/>
	</defs>
	<use xlink:href="#SVGID_44_"  style="overflow:visible;"/>
	<clipPath id="SVGID_45_">
		<use xlink:href="#SVGID_44_"  style="overflow:visible;"/>
	</clipPath>
	<polygon class="st32" points="275.4,57.7 262.4,63.8 261.3,59.5 274.1,52.9 	"/>
</g>
<g>
	<defs>
		<polygon id="SVGID_46_" points="272.3,46.6 259.9,53.8 258.9,49.7 271.1,42.1 		"/>
	</defs>
	<use xlink:href="#SVGID_46_"  style="overflow:visible;"/>
	<clipPath id="SVGID_47_">
		<use xlink:href="#SVGID_46_"  style="overflow:visible;"/>
	</clipPath>
	<polygon class="st33" points="272.3,46.6 259.9,53.8 258.9,49.7 271.1,42.1 	"/>
</g>
<g>
	<defs>
		<polygon id="SVGID_48_" points="290.7,60.7 276,66.6 275.2,63.8 289.7,57.7 		"/>
	</defs>
	<use xlink:href="#SVGID_48_"  style="overflow:visible;"/>
	<clipPath id="SVGID_49_">
		<use xlink:href="#SVGID_48_"  style="overflow:visible;"/>
	</clipPath>
	<polygon class="st34" points="290.7,60.7 276,66.6 275.2,63.8 289.7,57.7 	"/>
</g>
<g>
	<defs>
		<polygon id="SVGID_50_" points="215.1,67.5 208.3,72.7 205.4,49.7 211.5,42.1 		"/>
	</defs>
	<use xlink:href="#SVGID_50_"  style="overflow:visible;"/>
	<clipPath id="SVGID_51_">
		<use xlink:href="#SVGID_50_"  style="overflow:visible;"/>
	</clipPath>
	<polygon class="st35" points="215.1,67.5 208.3,72.7 205.4,49.7 211.5,42.1 	"/>
</g>
<g>
	<defs>
		<polygon id="SVGID_52_" points="61.7,48.3 70.8,55.3 54.1,55.3 43,48.3 		"/>
	</defs>
	<use xlink:href="#SVGID_52_"  style="overflow:visible;"/>
	<clipPath id="SVGID_53_">
		<use xlink:href="#SVGID_52_"  style="overflow:visible;"/>
	</clipPath>
	<polygon class="st36" points="61.7,48.3 70.8,55.3 54.1,55.3 43,48.3 	"/>
</g>
<g>
	<defs>
		<polygon id="SVGID_54_" points="50.2,57.7 60.7,63.8 52.2,63.8 40.7,57.7 		"/>
	</defs>
	<use xlink:href="#SVGID_54_"  style="overflow:visible;"/>
	<clipPath id="SVGID_55_">
		<use xlink:href="#SVGID_54_"  style="overflow:visible;"/>
	</clipPath>
	<polygon class="st37" points="50.2,57.7 60.7,63.8 52.2,63.8 40.7,57.7 	"/>
</g>
<g>
	<defs>
		<polygon id="SVGID_56_" points="81,62.5 88.4,68.3 77,68.3 68.3,62.5 		"/>
	</defs>
	<use xlink:href="#SVGID_56_"  style="overflow:visible;fill:#500039;"/>
	<clipPath id="SVGID_57_">
		<use xlink:href="#SVGID_56_"  style="overflow:visible;"/>
	</clipPath>
	<polygon class="st38" points="81,62.5 88.4,68.3 77,68.3 68.3,62.5 	"/>
</g>
<g>
	<defs>
		<polygon id="SVGID_58_" points="83.2,48.3 90.2,55.3 79.1,55.3 70.9,48.3 		"/>
	</defs>
	<use xlink:href="#SVGID_58_"  style="overflow:visible;"/>
	<clipPath id="SVGID_59_">
		<use xlink:href="#SVGID_58_"  style="overflow:visible;"/>
	</clipPath>
	<polygon class="st39" points="83.2,48.3 90.2,55.3 79.1,55.3 70.9,48.3 	"/>
</g>
<g>
	<defs>
		<polygon id="SVGID_60_" points="173.1,48.3 170.8,55.3 154.1,55.3 154.5,48.3 		"/>
	</defs>
	<use xlink:href="#SVGID_60_"  style="overflow:visible;"/>
	<clipPath id="SVGID_61_">
		<use xlink:href="#SVGID_60_"  style="overflow:visible;"/>
	</clipPath>
	<polygon class="st40" points="173.1,48.3 170.8,55.3 154.1,55.3 154.5,48.3 	"/>
</g>
<g>
	<defs>
		<polygon id="SVGID_62_" points="173.8,62.5 171.4,68.3 167.1,68.3 169,62.5 		"/>
	</defs>
	<use xlink:href="#SVGID_62_"  style="overflow:visible;fill:#500039;"/>
	<clipPath id="SVGID_63_">
		<use xlink:href="#SVGID_62_"  style="overflow:visible;"/>
	</clipPath>
	<polygon class="st41" points="173.8,62.5 171.4,68.3 167.1,68.3 169,62.5 	"/>
</g>
<g>
	<defs>
		<polygon id="SVGID_64_" points="167.1,57.7 165.4,63.8 152.6,63.8 152.8,57.7 		"/>
	</defs>
	<use xlink:href="#SVGID_64_"  style="overflow:visible;"/>
	<clipPath id="SVGID_65_">
		<use xlink:href="#SVGID_64_"  style="overflow:visible;"/>
	</clipPath>
	<polygon class="st42" points="167.1,57.7 165.4,63.8 152.6,63.8 152.8,57.7 	"/>
</g>
<g>
	<defs>
		<polygon id="SVGID_66_" points="152.8,52.9 152.6,59.5 148.4,59.5 148.1,52.9 		"/>
	</defs>
	<use xlink:href="#SVGID_66_"  style="overflow:visible;"/>
	<clipPath id="SVGID_67_">
		<use xlink:href="#SVGID_66_"  style="overflow:visible;"/>
	</clipPath>
	<polygon class="st43" points="152.8,52.9 152.6,59.5 148.4,59.5 148.1,52.9 	"/>
</g>
<g>
	<defs>
		<polygon id="SVGID_68_" points="206.1,57.7 200.3,63.8 187.5,63.8 191.8,57.7 		"/>
	</defs>
	<use xlink:href="#SVGID_68_"  style="overflow:visible;fill:#500039;"/>
	<clipPath id="SVGID_69_">
		<use xlink:href="#SVGID_68_"  style="overflow:visible;"/>
	</clipPath>
	<polygon class="st44" points="206.1,57.7 200.3,63.8 187.5,63.8 191.8,57.7 	"/>
</g>
<g>
	<defs>
		<polygon id="SVGID_70_" points="248,62.5 237.8,68.3 233.5,68.3 243.2,62.5 		"/>
	</defs>
	<linearGradient id="SVGID_71_" gradientUnits="userSpaceOnUse" x1="240.7376" y1="74.0534" x2="240.7376" y2="65.5433">
		<stop  offset="0" style="stop-color:#3942BD"/>
		<stop  offset="1" style="stop-color:#500039"/>
	</linearGradient>
	<use xlink:href="#SVGID_70_"  style="overflow:visible;fill:url(#SVGID_71_);"/>
	<clipPath id="SVGID_72_">
		<use xlink:href="#SVGID_70_"  style="overflow:visible;"/>
	</clipPath>
	<linearGradient id="SVGID_73_" gradientUnits="userSpaceOnUse" x1="240.7376" y1="74.0534" x2="240.7376" y2="65.5433">
		<stop  offset="0" style="stop-color:#3942BD"/>
		<stop  offset="1" style="stop-color:#500039"/>
	</linearGradient>
	<polygon class="st45" points="248,62.5 237.8,68.3 233.5,68.3 243.2,62.5 	"/>
</g>
<g>
	<defs>
		<polygon id="SVGID_74_" points="269,62.5 256.6,68.3 252.3,68.3 264.2,62.5 		"/>
	</defs>
	<use xlink:href="#SVGID_74_"  style="overflow:visible;fill:#500039;"/>
	<clipPath id="SVGID_75_">
		<use xlink:href="#SVGID_74_"  style="overflow:visible;"/>
	</clipPath>
	<polygon class="st46" points="269,62.5 256.6,68.3 252.3,68.3 264.2,62.5 	"/>
</g>
<g>
	<defs>
		<polygon id="SVGID_76_" points="138.8,52.9 140.1,59.5 137.3,59.5 135.8,52.9 		"/>
	</defs>
	<use xlink:href="#SVGID_76_"  style="overflow:visible;"/>
	<clipPath id="SVGID_77_">
		<use xlink:href="#SVGID_76_"  style="overflow:visible;"/>
	</clipPath>
	<polygon class="st47" points="138.8,52.9 140.1,59.5 137.3,59.5 135.8,52.9 	"/>
</g>
<g>
	<defs>
		<polygon id="SVGID_78_" points="129.3,52.9 131.6,59.5 128.9,59.5 126.3,52.9 		"/>
	</defs>
	<use xlink:href="#SVGID_78_"  style="overflow:visible;"/>
	<clipPath id="SVGID_79_">
		<use xlink:href="#SVGID_78_"  style="overflow:visible;"/>
	</clipPath>
	<polygon class="st48" points="129.3,52.9 131.6,59.5 128.9,59.5 126.3,52.9 	"/>
</g>
<g>
	<defs>
		<polygon id="SVGID_80_" points="203.2,48.3 197.9,55.3 186.8,55.3 190.9,48.3 		"/>
	</defs>
	<use xlink:href="#SVGID_80_"  style="overflow:visible;"/>
	<clipPath id="SVGID_81_">
		<use xlink:href="#SVGID_80_"  style="overflow:visible;"/>
	</clipPath>
	<polygon class="st49" points="203.2,48.3 197.9,55.3 186.8,55.3 190.9,48.3 	"/>
</g>
<g>
	<defs>
		<polygon id="SVGID_82_" points="43,48.3 54.1,55.3 53.5,58 42.3,51.2 		"/>
	</defs>
	<use xlink:href="#SVGID_82_"  style="overflow:visible;"/>
	<clipPath id="SVGID_83_">
		<use xlink:href="#SVGID_82_"  style="overflow:visible;"/>
	</clipPath>
	<polygon class="st50" points="43,48.3 54.1,55.3 53.5,58 42.3,51.2 	"/>
</g>
<g>
	<defs>
		<polygon id="SVGID_84_" points="51.7,51.2 61.9,58 60.7,63.8 50.2,57.7 		"/>
	</defs>
	<use xlink:href="#SVGID_84_"  style="overflow:visible;"/>
	<clipPath id="SVGID_85_">
		<use xlink:href="#SVGID_84_"  style="overflow:visible;"/>
	</clipPath>
	<polygon class="st51" points="51.7,51.2 61.9,58 60.7,63.8 50.2,57.7 	"/>
</g>
<g>
	<defs>
		<polygon id="SVGID_86_" points="40.7,57.7 52.2,63.8 51.6,66.6 39.9,60.7 		"/>
	</defs>
	<use xlink:href="#SVGID_86_"  style="overflow:visible;"/>
	<clipPath id="SVGID_87_">
		<use xlink:href="#SVGID_86_"  style="overflow:visible;"/>
	</clipPath>
	<polygon class="st52" points="40.7,57.7 52.2,63.8 51.6,66.6 39.9,60.7 	"/>
</g>
<g>
	<defs>
		<polygon id="SVGID_88_" points="59.1,60.7 68.8,66.6 67.7,72.7 57.7,67.5 		"/>
	</defs>
	<use xlink:href="#SVGID_88_"  style="overflow:visible;"/>
	<clipPath id="SVGID_89_">
		<use xlink:href="#SVGID_88_"  style="overflow:visible;"/>
	</clipPath>
	<polygon class="st53" points="59.1,60.7 68.8,66.6 67.7,72.7 57.7,67.5 	"/>
</g>
<g>
	<defs>
		<polygon id="SVGID_90_" points="89.8,46.6 96,53.8 93.7,72.7 86.8,67.5 		"/>
	</defs>
	<use xlink:href="#SVGID_90_"  style="overflow:visible;"/>
	<clipPath id="SVGID_91_">
		<use xlink:href="#SVGID_90_"  style="overflow:visible;"/>
	</clipPath>
	<polygon class="st54" points="89.8,46.6 96,53.8 93.7,72.7 86.8,67.5 	"/>
</g>
<g>
	<defs>
		<polygon id="SVGID_92_" points="68.3,62.5 77,68.3 76.3,72.7 67.3,67.5 		"/>
	</defs>
	<use xlink:href="#SVGID_92_"  style="overflow:visible;"/>
	<clipPath id="SVGID_93_">
		<use xlink:href="#SVGID_92_"  style="overflow:visible;"/>
	</clipPath>
	<polygon class="st55" points="68.3,62.5 77,68.3 76.3,72.7 67.3,67.5 	"/>
</g>
<g>
	<defs>
		<polygon id="SVGID_94_" points="85.8,42.1 92.4,49.7 91.9,53.8 85.1,46.6 		"/>
	</defs>
	<use xlink:href="#SVGID_94_"  style="overflow:visible;"/>
	<clipPath id="SVGID_95_">
		<use xlink:href="#SVGID_94_"  style="overflow:visible;"/>
	</clipPath>
	<polygon class="st56" points="85.8,42.1 92.4,49.7 91.9,53.8 85.1,46.6 	"/>
</g>
<g>
	<defs>
		<polygon id="SVGID_96_" points="70.9,48.3 79.1,55.3 78,62.3 69.5,56 		"/>
	</defs>
	<use xlink:href="#SVGID_96_"  style="overflow:visible;"/>
	<clipPath id="SVGID_97_">
		<use xlink:href="#SVGID_96_"  style="overflow:visible;"/>
	</clipPath>
	<polygon class="st57" points="70.9,48.3 79.1,55.3 78,62.3 69.5,56 	"/>
</g>
<g>
	<defs>
		<polygon id="SVGID_98_" points="99.5,42.1 104.7,49.7 102.9,66.6 97.2,60.7 		"/>
	</defs>
	<use xlink:href="#SVGID_98_"  style="overflow:visible;"/>
	<clipPath id="SVGID_99_">
		<use xlink:href="#SVGID_98_"  style="overflow:visible;"/>
	</clipPath>
	<polygon class="st58" points="99.5,42.1 104.7,49.7 102.9,66.6 97.2,60.7 	"/>
</g>
<g>
	<defs>
		<polygon id="SVGID_100_" points="116.4,60.7 120.1,66.6 119.6,72.7 115.9,67.5 		"/>
	</defs>
	<use xlink:href="#SVGID_100_"  style="overflow:visible;"/>
	<clipPath id="SVGID_101_">
		<use xlink:href="#SVGID_100_"  style="overflow:visible;"/>
	</clipPath>
	<polygon class="st59" points="116.4,60.7 120.1,66.6 119.6,72.7 115.9,67.5 	"/>
</g>
<g>
	<defs>
		<polygon id="SVGID_102_" points="145.3,42.1 145.9,49.7 145.6,72.7 145,67.5 		"/>
	</defs>
	<use xlink:href="#SVGID_102_"  style="overflow:visible;"/>
	<clipPath id="SVGID_103_">
		<use xlink:href="#SVGID_102_"  style="overflow:visible;"/>
	</clipPath>
	<polygon class="st60" points="145.3,42.1 145.9,49.7 145.6,72.7 145,67.5 	"/>
</g>
<g>
	<defs>
		<polygon id="SVGID_104_" points="135.8,52.9 137.3,59.5 137.2,63.8 135.6,57.7 		"/>
	</defs>
	<use xlink:href="#SVGID_104_"  style="overflow:visible;"/>
	<clipPath id="SVGID_105_">
		<use xlink:href="#SVGID_104_"  style="overflow:visible;"/>
	</clipPath>
	<polygon class="st61" points="135.8,52.9 137.3,59.5 137.2,63.8 135.6,57.7 	"/>
</g>
<g>
	<defs>
		<polygon id="SVGID_106_" points="126.3,52.9 128.9,59.5 128.2,72.7 125.5,67.5 		"/>
	</defs>
	<use xlink:href="#SVGID_106_"  style="overflow:visible;"/>
	<clipPath id="SVGID_107_">
		<use xlink:href="#SVGID_106_"  style="overflow:visible;"/>
	</clipPath>
	<polygon class="st62" points="126.3,52.9 128.9,59.5 128.2,72.7 125.5,67.5 	"/>
</g>
<g>
	<defs>
		<polygon id="SVGID_108_" points="131.4,46.6 133.4,53.8 133.2,58 131.1,51.2 		"/>
	</defs>
	<use xlink:href="#SVGID_108_"  style="overflow:visible;"/>
	<clipPath id="SVGID_109_">
		<use xlink:href="#SVGID_108_"  style="overflow:visible;"/>
	</clipPath>
	<polygon class="st63" points="131.4,46.6 133.4,53.8 133.2,58 131.1,51.2 	"/>
</g>
<g>
	<defs>
		<polygon id="SVGID_110_" points="186,67.5 182.3,72.7 180.7,49.7 184.1,42.1 		"/>
	</defs>
	<use xlink:href="#SVGID_110_"  style="overflow:visible;"/>
	<clipPath id="SVGID_111_">
		<use xlink:href="#SVGID_110_"  style="overflow:visible;"/>
	</clipPath>
	<polygon class="st64" points="186,67.5 182.3,72.7 180.7,49.7 184.1,42.1 	"/>
</g>
<g>
	<defs>
		<polygon id="SVGID_112_" points="249.1,67.5 238.6,72.7 237.8,68.3 248,62.5 		"/>
	</defs>
	<use xlink:href="#SVGID_112_"  style="overflow:visible;"/>
	<clipPath id="SVGID_113_">
		<use xlink:href="#SVGID_112_"  style="overflow:visible;"/>
	</clipPath>
	<polygon class="st65" points="249.1,67.5 238.6,72.7 237.8,68.3 248,62.5 	"/>
</g>
<g>
	<defs>
		<polygon id="SVGID_114_" points="262,60.7 250.4,66.6 246.6,49.7 257.4,42.1 		"/>
	</defs>
	<use xlink:href="#SVGID_114_"  style="overflow:visible;"/>
	<clipPath id="SVGID_115_">
		<use xlink:href="#SVGID_114_"  style="overflow:visible;"/>
	</clipPath>
	<polygon class="st66" points="262,60.7 250.4,66.6 246.6,49.7 257.4,42.1 	"/>
</g>
<g>
	<defs>
		<polygon id="SVGID_116_" points="269.4,52.9 257.1,59.5 255.7,53.8 267.7,46.6 		"/>
	</defs>
	<use xlink:href="#SVGID_116_"  style="overflow:visible;"/>
	<clipPath id="SVGID_117_">
		<use xlink:href="#SVGID_116_"  style="overflow:visible;"/>
	</clipPath>
	<polygon class="st67" points="269.4,52.9 257.1,59.5 255.7,53.8 267.7,46.6 	"/>
</g>
<g>
	<defs>
		<polygon id="SVGID_118_" points="62.9,42.1 71.9,49.7 70.8,55.3 61.7,48.3 		"/>
	</defs>
	<use xlink:href="#SVGID_118_"  style="overflow:visible;"/>
	<clipPath id="SVGID_119_">
		<use xlink:href="#SVGID_118_"  style="overflow:visible;"/>
	</clipPath>
	<polygon class="st68" points="62.9,42.1 71.9,49.7 70.8,55.3 61.7,48.3 	"/>
</g>
<g>
	<defs>
		<polygon id="SVGID_120_" points="167.2,60.7 165.5,66.6 165.4,63.8 167.1,57.7 		"/>
	</defs>
	<use xlink:href="#SVGID_120_"  style="overflow:visible;"/>
	<clipPath id="SVGID_121_">
		<use xlink:href="#SVGID_120_"  style="overflow:visible;"/>
	</clipPath>
	<polygon class="st69" points="167.2,60.7 165.5,66.6 165.4,63.8 167.1,57.7 	"/>
</g>
<g>
	<defs>
		<polygon id="SVGID_122_" points="152.8,57.7 152.6,63.8 152.6,59.5 152.8,52.9 		"/>
	</defs>
	<use xlink:href="#SVGID_122_"  style="overflow:visible;"/>
	<clipPath id="SVGID_123_">
		<use xlink:href="#SVGID_122_"  style="overflow:visible;"/>
	</clipPath>
	<polygon class="st70" points="152.8,57.7 152.6,63.8 152.6,59.5 152.8,52.9 	"/>
</g>
<g>
	<linearGradient id="SVGID_124_" gradientUnits="userSpaceOnUse" x1="18.3876" y1="43.0605" x2="18.3876" y2="67.0879">
		<stop  offset="0" style="stop-color:#FF3EBD"/>
		<stop  offset="1" style="stop-color:#FF4FFF"/>
	</linearGradient>
	<path class="st71" d="M27,56l0.9-3h4.7l1.7-6.3h-4.6l1.3-4.5H10.8L2.5,67.5h6.6l3.1-9.8h12.6L22,67.5h6.6L31.7,56H27z M14.2,51.2
		l0.9-2.9h12.3l-0.8,2.9H14.2z"/>
	<linearGradient id="SVGID_125_" gradientUnits="userSpaceOnUse" x1="282.7281" y1="43.0605" x2="282.7281" y2="67.0879">
		<stop  offset="0" style="stop-color:#FF3EBD"/>
		<stop  offset="1" style="stop-color:#FF4FFF"/>
	</linearGradient>
	<polygon class="st72" points="297.8,62.5 295.6,56 290.9,56 289.4,51.2 275.3,51.2 274.5,48.3 293.1,48.3 291.1,42.1 271.1,42.1 
		272.3,46.6 267.7,46.6 269.4,52.9 274.1,52.9 275.4,57.7 289.7,57.7 290.7,60.7 271.5,60.7 273.3,67.5 294.6,67.5 293,62.5 	"/>
	<linearGradient id="SVGID_126_" gradientUnits="userSpaceOnUse" x1="47.275" y1="43.0605" x2="47.275" y2="67.0879">
		<stop  offset="0" style="stop-color:#FF3EBD"/>
		<stop  offset="1" style="stop-color:#FF4FFF"/>
	</linearGradient>
	<polygon class="st73" points="40.7,57.7 50.2,57.7 51.7,51.2 42.3,51.2 43,48.3 61.7,48.3 62.9,42.1 38.3,42.1 31.6,67.5 
		57.7,67.5 59.1,60.7 39.9,60.7 	"/>
	<linearGradient id="SVGID_127_" gradientUnits="userSpaceOnUse" x1="75.2389" y1="43.0605" x2="75.2389" y2="67.0879">
		<stop  offset="0" style="stop-color:#FF3EBD"/>
		<stop  offset="1" style="stop-color:#FF4FFF"/>
	</linearGradient>
	<path class="st74" d="M85.8,42.1H70.4l-0.8,4.5h-4.7l-4.2,20.9h6.6l0.9-4.9H81l-0.8,4.9h6.6l3-20.9h-4.6L85.8,42.1z M82,56H69.5
		l1.4-7.7h12.3L82,56z"/>
	<linearGradient id="SVGID_128_" gradientUnits="userSpaceOnUse" x1="103.1141" y1="43.0605" x2="103.1141" y2="67.0879">
		<stop  offset="0" style="stop-color:#FF3EBD"/>
		<stop  offset="1" style="stop-color:#FF4FFF"/>
	</linearGradient>
	<polygon class="st75" points="99.5,42.1 93.2,42.1 89.8,67.5 115.9,67.5 116.4,60.7 97.2,60.7 	"/>
	<linearGradient id="SVGID_129_" gradientUnits="userSpaceOnUse" x1="132.1105" y1="43.0605" x2="132.1105" y2="67.0879">
		<stop  offset="0" style="stop-color:#FF3EBD"/>
		<stop  offset="1" style="stop-color:#FF4FFF"/>
	</linearGradient>
	<polygon class="st76" points="139,46.6 134.3,46.6 134.1,51.2 131.1,51.2 131.4,46.6 126.7,46.6 126.9,42.1 120.7,42.1 118.9,67.5 
		125.5,67.5 126.3,52.9 129.3,52.9 129.1,57.7 135.6,57.7 135.8,52.9 138.8,52.9 138.4,67.5 145,67.5 145.3,42.1 139.1,42.1 	"/>
	<linearGradient id="SVGID_130_" gradientUnits="userSpaceOnUse" x1="160.9078" y1="43.0605" x2="160.9078" y2="67.0879">
		<stop  offset="0" style="stop-color:#FF3EBD"/>
		<stop  offset="1" style="stop-color:#FF4FFF"/>
	</linearGradient>
	<polygon class="st77" points="173.5,56 168.8,56 168.6,51.2 154.5,51.2 154.5,48.3 173.1,48.3 172.8,42.1 152.8,42.1 152.8,46.6 
		148.1,46.6 148.1,52.9 152.8,52.9 152.8,57.7 167.1,57.7 167.2,60.7 148,60.7 148,67.5 169.2,67.5 169,62.5 173.8,62.5 	"/>
	<linearGradient id="SVGID_131_" gradientUnits="userSpaceOnUse" x1="197.1171" y1="43.0605" x2="197.1171" y2="67.0879">
		<stop  offset="0" style="stop-color:#FF3EBD"/>
		<stop  offset="1" style="stop-color:#FF4FFF"/>
	</linearGradient>
	<path class="st78" d="M209.3,46.6h-4.6l-0.6-4.5h-20.1l2,25.4h6.6l-0.9-9.8h14.3l-0.6-4.8h4.7L209.3,46.6z M191.2,51.2l-0.3-2.9
		h12.3l0.4,2.9H191.2z"/>
	<linearGradient id="SVGID_132_" gradientUnits="userSpaceOnUse" x1="226.3761" y1="43.0605" x2="226.3761" y2="67.0879">
		<stop  offset="0" style="stop-color:#FF3EBD"/>
		<stop  offset="1" style="stop-color:#FF4FFF"/>
	</linearGradient>
	<polygon class="st79" points="220.7,60.7 217.8,42.1 211.5,42.1 215.1,67.5 241.2,67.5 239.9,60.7 	"/>
	<linearGradient id="SVGID_133_" gradientUnits="userSpaceOnUse" x1="254.0033" y1="43.0605" x2="254.0033" y2="67.0879">
		<stop  offset="0" style="stop-color:#FF3EBD"/>
		<stop  offset="1" style="stop-color:#FF4FFF"/>
	</linearGradient>
	<polygon class="st80" points="263.6,42.1 257.4,42.1 262,60.7 249.4,60.7 245.3,42.1 239,42.1 243.2,62.5 248,62.5 249.1,67.5 
		265.5,67.5 264.2,62.5 269,62.5 	"/>
</g>
<g>
	<g>
		<defs>
			<polygon id="SVGID_134_" points="28.6,67.5 41.7,72.7 35.8,72.7 22,67.5 			"/>
		</defs>
		<use xlink:href="#SVGID_134_"  style="overflow:visible;fill:#500039;"/>
		<clipPath id="SVGID_135_">
			<use xlink:href="#SVGID_134_"  style="overflow:visible;"/>
		</clipPath>
		<polygon class="st81" points="28.6,67.5 41.7,72.7 35.8,72.7 22,67.5 		"/>
	</g>
	<g>
		<defs>
			<polygon id="SVGID_136_" points="9.2,67.5 24.3,72.7 18.3,72.7 2.5,67.5 			"/>
		</defs>
		<use xlink:href="#SVGID_136_"  style="overflow:visible;fill:#500039;"/>
		<clipPath id="SVGID_137_">
			<use xlink:href="#SVGID_136_"  style="overflow:visible;"/>
		</clipPath>
		<polygon class="st82" points="9.2,67.5 24.3,72.7 18.3,72.7 2.5,67.5 		"/>
	</g>
	<g>
		<defs>
			<polygon id="SVGID_138_" points="57.7,67.5 67.7,72.7 44.3,72.7 31.6,67.5 			"/>
		</defs>
		<use xlink:href="#SVGID_138_"  style="overflow:visible;fill:#500039;"/>
		<clipPath id="SVGID_139_">
			<use xlink:href="#SVGID_138_"  style="overflow:visible;"/>
		</clipPath>
		<polygon class="st83" points="57.7,67.5 67.7,72.7 44.3,72.7 31.6,67.5 		"/>
	</g>
	<g>
		<defs>
			<polygon id="SVGID_140_" points="86.8,67.5 93.7,72.7 87.8,72.7 80.2,67.5 			"/>
		</defs>
		<use xlink:href="#SVGID_140_"  style="overflow:visible;fill:#500039;"/>
		<clipPath id="SVGID_141_">
			<use xlink:href="#SVGID_140_"  style="overflow:visible;"/>
		</clipPath>
		<polygon class="st84" points="86.8,67.5 93.7,72.7 87.8,72.7 80.2,67.5 		"/>
	</g>
	<g>
		<defs>
			<polygon id="SVGID_142_" points="67.3,67.5 76.3,72.7 70.3,72.7 60.7,67.5 			"/>
		</defs>
		<use xlink:href="#SVGID_142_"  style="overflow:visible;fill:#500039;"/>
		<clipPath id="SVGID_143_">
			<use xlink:href="#SVGID_142_"  style="overflow:visible;"/>
		</clipPath>
		<polygon class="st85" points="67.3,67.5 76.3,72.7 70.3,72.7 60.7,67.5 		"/>
	</g>
	<g>
		<defs>
			<polygon id="SVGID_144_" points="115.9,67.5 119.6,72.7 96.3,72.7 89.8,67.5 			"/>
		</defs>
		<use xlink:href="#SVGID_144_"  style="overflow:visible;fill:#500039;"/>
		<clipPath id="SVGID_145_">
			<use xlink:href="#SVGID_144_"  style="overflow:visible;"/>
		</clipPath>
		<polygon class="st86" points="115.9,67.5 119.6,72.7 96.3,72.7 89.8,67.5 		"/>
	</g>
	<g>
		<defs>
			<polygon id="SVGID_146_" points="169.2,67.5 167.3,72.7 148.3,72.7 148,67.5 			"/>
		</defs>
		<use xlink:href="#SVGID_146_"  style="overflow:visible;fill:#500039;"/>
		<clipPath id="SVGID_147_">
			<use xlink:href="#SVGID_146_"  style="overflow:visible;"/>
		</clipPath>
		<polygon class="st87" points="169.2,67.5 167.3,72.7 148.3,72.7 148,67.5 		"/>
	</g>
	<g>
		<defs>
			<polygon id="SVGID_148_" points="192.7,67.5 188.2,72.7 182.3,72.7 186,67.5 			"/>
		</defs>
		<use xlink:href="#SVGID_148_"  style="overflow:visible;fill:#500039;"/>
		<clipPath id="SVGID_149_">
			<use xlink:href="#SVGID_148_"  style="overflow:visible;"/>
		</clipPath>
		<polygon class="st88" points="192.7,67.5 188.2,72.7 182.3,72.7 186,67.5 		"/>
	</g>
	<g>
		<defs>
			<polygon id="SVGID_150_" points="241.2,67.5 231.6,72.7 208.3,72.7 215.1,67.5 			"/>
		</defs>
		<use xlink:href="#SVGID_150_"  style="overflow:visible;fill:#500039;"/>
		<clipPath id="SVGID_151_">
			<use xlink:href="#SVGID_150_"  style="overflow:visible;"/>
		</clipPath>
		<polygon class="st89" points="241.2,67.5 231.6,72.7 208.3,72.7 215.1,67.5 		"/>
	</g>
	<g>
		<defs>
			<polygon id="SVGID_152_" points="265.5,67.5 253.3,72.7 238.6,72.7 249.1,67.5 			"/>
		</defs>
		<use xlink:href="#SVGID_152_"  style="overflow:visible;fill:#500039;"/>
		<clipPath id="SVGID_153_">
			<use xlink:href="#SVGID_152_"  style="overflow:visible;"/>
		</clipPath>
		<polygon class="st90" points="265.5,67.5 253.3,72.7 238.6,72.7 249.1,67.5 		"/>
	</g>
	<g>
		<defs>
			<polygon id="SVGID_154_" points="294.6,67.5 279.2,72.7 260.3,72.7 273.3,67.5 			"/>
		</defs>
		<use xlink:href="#SVGID_154_"  style="overflow:visible;fill:#500039;"/>
		<clipPath id="SVGID_155_">
			<use xlink:href="#SVGID_154_"  style="overflow:visible;"/>
		</clipPath>
		<polygon class="st91" points="294.6,67.5 279.2,72.7 260.3,72.7 273.3,67.5 		"/>
	</g>
	<g>
		<defs>
			<polygon id="SVGID_156_" points="145,67.5 145.6,72.7 139.7,72.7 138.4,67.5 			"/>
		</defs>
		<use xlink:href="#SVGID_156_"  style="overflow:visible;fill:#500039;"/>
		<clipPath id="SVGID_157_">
			<use xlink:href="#SVGID_156_"  style="overflow:visible;"/>
		</clipPath>
		<polygon class="st92" points="145,67.5 145.6,72.7 139.7,72.7 138.4,67.5 		"/>
	</g>
	<g>
		<defs>
			<polygon id="SVGID_158_" points="125.5,67.5 128.2,72.7 122.3,72.7 118.9,67.5 			"/>
		</defs>
		<use xlink:href="#SVGID_158_"  style="overflow:visible;fill:#500039;"/>
		<clipPath id="SVGID_159_">
			<use xlink:href="#SVGID_158_"  style="overflow:visible;"/>
		</clipPath>
		<polygon class="st93" points="125.5,67.5 128.2,72.7 122.3,72.7 118.9,67.5 		"/>
	</g>
</g>
<g>
	<defs>
		<polygon id="SVGID_160_" points="210.2,52.9 206,57.4 205.7,54.8 205.5,52.9 		"/>
	</defs>
	<use xlink:href="#SVGID_160_"  style="overflow:visible;"/>
	<clipPath id="SVGID_161_">
		<use xlink:href="#SVGID_160_"  style="overflow:visible;"/>
	</clipPath>
	<polygon class="st94" points="210.2,52.9 206,57.4 205.6,53.8 205.5,52.9 	"/>
</g>
<g>
	<defs>
		<polygon id="SVGID_162_" points="135.6,57.7 137.2,63.8 131.4,63.8 129.1,57.7 		"/>
	</defs>
	<use xlink:href="#SVGID_162_"  style="overflow:visible;fill:#500039;"/>
	<clipPath id="SVGID_163_">
		<use xlink:href="#SVGID_162_"  style="overflow:visible;"/>
	</clipPath>
	<polygon class="st95" points="135.6,57.7 137.2,63.8 131.4,63.8 129.1,57.7 	"/>
</g>
<g>
	<path class="st96" d="M91.4,67c-0.8,0-1.3,0.1-1.1,0.3c0.2,0.2,1.1,0.3,1.9,0.3h21.5c0.8,0,1.7-0.2,1.9-0.4s-0.3-0.4-1.1-0.3
		L91.4,67z"/>
</g>
<g>
	<path class="st96" d="M149.3,67c-0.8,0-1.3,0.1-1.1,0.3c0.2,0.2,1.1,0.3,1.9,0.3h16.8c0.8,0,1.7-0.2,1.9-0.4
		c0.2-0.2-0.3-0.3-1.1-0.3L149.3,67z"/>
</g>
<g>
	<path class="st96" d="M154.8,57.1c-0.8,0-1.5,0.1-1.4,0.3c0,0.2,0.7,0.3,1.6,0.3h10.3c0.8,0,1.5-0.2,1.5-0.4s-0.7-0.3-1.5-0.3
		L154.8,57.1z"/>
</g>
<g>
	<path class="st96" d="M149.8,52.3c-0.9,0-1.5,0.2-1.5,0.3s0.8,0.3,1.6,0.3h1c0.9,0,1.6-0.2,1.6-0.4s-0.7-0.3-1.5-0.3L149.8,52.3z"
		/>
</g>
<g>
	<path class="st96" d="M170,61.9c-0.8,0-1.3,0.2-1.1,0.3s1.1,0.3,1.9,0.3h0.9c0.8,0,1.7-0.2,1.9-0.4c0.2-0.2-0.3-0.3-1.1-0.3
		L170,61.9z"/>
</g>
<g>
	<path class="st96" d="M156.3,47.5c-0.8,0-1.5,0.1-1.5,0.3s0.6,0.3,1.5,0.3h14.7c0.8,0,1.5-0.2,1.5-0.4s-0.7-0.3-1.5-0.3L156.3,47.5
		z"/>
</g>
<g>
	<path class="st96" d="M33.1,67c-0.8,0-1.3,0.1-1.1,0.3c0.2,0.2,1.1,0.3,1.9,0.3h21.5c0.8,0,1.7-0.2,1.9-0.4s-0.3-0.4-1.1-0.3
		L33.1,67z"/>
</g>
<g>
	<path class="st96" d="M44.7,47.5c-0.8,0-1.3,0.1-1.1,0.3s1,0.3,1.8,0.3h13.7c0.8,0,1.5-0.2,1.6-0.4c0.1-0.2-0.5-0.3-1.3-0.3
		L44.7,47.5z"/>
</g>
<g>
	<path class="st96" d="M81.6,67c-0.8,0-1.3,0.2-1.1,0.3c0.2,0.2,1.1,0.3,1.9,0.3h2.3c0.8,0,1.7-0.2,1.9-0.4c0.2-0.2-0.3-0.3-1.1-0.3
		L81.6,67z"/>
</g>
<g>
	<path class="st96" d="M120.3,67c-0.8,0-1.3,0.2-1.1,0.3c0.2,0.2,1.1,0.3,1.9,0.3h2.3c0.8,0,1.7-0.2,1.9-0.4s-0.3-0.3-1.1-0.3
		L120.3,67z"/>
</g>
<g>
	<path class="st96" d="M139.7,67c-0.8,0-1.3,0.2-1.1,0.3c0.2,0.2,1.1,0.3,1.9,0.3h2.3c0.8,0,1.7-0.2,1.9-0.4
		c0.2-0.2-0.3-0.3-1.1-0.3L139.7,67z"/>
</g>
<g>
	<path class="st96" d="M187.3,67c-0.8,0-1.3,0.2-1.1,0.3c0.2,0.2,1.1,0.3,1.9,0.3h2.3c0.8,0,1.7-0.2,1.9-0.4
		c0.2-0.2-0.3-0.3-1.1-0.3L187.3,67z"/>
</g>
<g>
	<path class="st96" d="M130.9,57.1c-0.8,0-1.5,0.2-1.4,0.3s0.8,0.3,1.6,0.3h2.6c0.8,0,1.5-0.2,1.6-0.4s-0.6-0.3-1.4-0.3L130.9,57.1z
		"/>
</g>
<g>
	<path class="st96" d="M127.7,52.3c-0.8,0-1.4,0.2-1.3,0.3s0.7,0.3,1.4,0.3s1.3-0.2,1.4-0.4s-0.5-0.3-1.3-0.3L127.7,52.3z"/>
</g>
<g>
	<path class="st96" d="M137.2,52.3c-0.8,0-1.4,0.2-1.3,0.4s0.7,0.3,1.4,0.3c0.7,0,1.3-0.2,1.3-0.4C138.6,52.4,138,52.2,137.2,52.3z"
		/>
</g>
<g>
	<path class="st96" d="M192.2,47.6c-0.8,0-1.4,0.1-1.3,0.3s0.9,0.3,1.7,0.3h8.7c0.8,0,1.6-0.2,1.6-0.4c0.1-0.2-0.6-0.3-1.4-0.3
		L192.2,47.6z"/>
</g>
<g>
	<path class="st96" d="M207.2,52.4c-0.8,0-1.4,0.2-1.3,0.3s0.7,0.3,1.5,0.3h0.8c0.8,0,1.5-0.2,1.6-0.4c0.1-0.2-0.4-0.3-1.2-0.3
		L207.2,52.4z"/>
</g>
<g>
	<path class="st96" d="M193.5,57.2c-0.8,0-1.4,0.1-1.3,0.3s0.9,0.3,1.7,0.3h9.9c0.8,0,1.5-0.2,1.6-0.4c0.1-0.2-0.6-0.3-1.4-0.3
		L193.5,57.2z"/>
</g>
<g>
	<path class="st96" d="M216.4,67c-0.8,0-1.3,0.1-1.1,0.3c0.2,0.2,1.1,0.3,1.9,0.3h21.8c0.8,0,1.7-0.2,1.9-0.4
		c0.2-0.2-0.3-0.4-1.1-0.3L216.4,67z"/>
</g>
<g>
	<path class="st96" d="M250.2,67c-0.8,0-1.3,0.1-1.1,0.3c0.2,0.2,1.1,0.3,1.9,0.3h12.1c0.8,0,1.7-0.2,1.9-0.4s-0.3-0.3-1.1-0.3
		L250.2,67z"/>
</g>
<g>
	<path class="st96" d="M244.5,62.1c-0.8,0-1.3,0.2-1.1,0.3s1,0.3,1.8,0.3h0.7c0.8,0,1.6-0.2,1.8-0.4s-0.3-0.3-1.1-0.3L244.5,62.1z"
		/>
</g>
<g>
	<path class="st96" d="M265.7,62.1c-0.8,0-1.3,0.2-1.2,0.3s0.9,0.3,1.7,0.3h1c0.8,0,1.5-0.2,1.5-0.4c0-0.2-0.6-0.3-1.4-0.3
		L265.7,62.1z"/>
</g>
<g>
	<path class="st96" d="M274.6,67c-0.8,0-1.3,0.1-1.1,0.3c0.2,0.2,1.1,0.3,1.9,0.3h16.9c0.8,0,1.7-0.2,1.9-0.4s-0.3-0.3-1.1-0.3
		L274.6,67z"/>
</g>
<g>
	<path class="st96" d="M294.8,62c-0.8,0-1.4,0.2-1.4,0.3c0,0.2,0.6,0.3,1.4,0.3h0.9c0.8,0,1.4-0.2,1.5-0.4c0-0.2-0.6-0.3-1.4-0.3
		L294.8,62z"/>
</g>
<g>
	<path class="st96" d="M277.3,57.1c-0.8,0-1.4,0.1-1.3,0.3c0.1,0.2,0.8,0.3,1.6,0.3h9.9c0.8,0,1.6-0.2,1.9-0.4
		c0.2-0.2-0.3-0.3-1.1-0.3L277.3,57.1z"/>
</g>
<g>
	<path class="st96" d="M270.8,52.4c-0.8,0-1.2,0.2-1,0.3s1,0.3,1.7,0.3h0.7c0.8,0,1.5-0.2,1.6-0.4c0.1-0.2-0.4-0.3-1.2-0.3
		L270.8,52.4z"/>
</g>
<g>
	<path class="st96" d="M276.1,47.5c-0.8,0-1.4,0.1-1.3,0.3s0.8,0.3,1.7,0.3h14.5c0.8,0,1.5-0.2,1.5-0.4s-0.7-0.3-1.5-0.3L276.1,47.5
		z"/>
</g>
<g>
	<path class="st96" d="M62.1,67c-0.8,0-1.3,0.2-1.1,0.3c0.2,0.2,1.1,0.3,1.9,0.3h2.3c0.8,0,1.7-0.2,1.9-0.4c0.2-0.2-0.3-0.3-1.1-0.3
		L62.1,67z"/>
</g>
<g>
	<path class="st96" d="M23.7,67c-0.8,0-1.3,0.2-1.1,0.3c0.2,0.2,1.1,0.3,1.9,0.3h2c0.8,0,1.7-0.2,1.9-0.4s-0.3-0.3-1.1-0.3L23.7,67z
		"/>
</g>
<g>
	<path class="st96" d="M4.2,67c-0.8,0-1.3,0.2-1.1,0.3c0.2,0.2,1.1,0.3,1.9,0.3h2.1c0.8,0,1.7-0.2,1.9-0.4c0.2-0.2-0.3-0.3-1.1-0.3
		L4.2,67z"/>
</g>
<g>
	<path class="st96" d="M29.5,52.3c-0.8,0-1.2,0.2-1,0.3s1,0.3,1.7,0.3h0.5c0.8,0,1.4-0.2,1.5-0.4c0.1-0.2-0.5-0.3-1.2-0.3L29.5,52.3
		z"/>
</g>
<g>
	<path class="st96" d="M70.1,62c-0.8,0-1.5,0.1-1.5,0.3c0,0.2,0.6,0.3,1.4,0.3h8.9c0.8,0,1.5-0.2,1.5-0.4c0-0.2-0.6-0.3-1.4-0.3
		L70.1,62z"/>
</g>
<g>
	<path class="st96" d="M42.6,57.1c-0.8,0-1.5,0.2-1.5,0.3c0,0.2,0.6,0.3,1.5,0.3h5.7c0.8,0,1.6-0.2,1.6-0.4c0.1-0.2-0.5-0.3-1.4-0.3
		L42.6,57.1z"/>
</g>
<g>
	<path class="st96" d="M14.3,57.1c-0.8,0-1.5,0.1-1.5,0.3c0,0.2,0.7,0.3,1.5,0.3h8.4c0.8,0,1.5-0.2,1.5-0.4S23.6,57,22.8,57
		L14.3,57.1z"/>
</g>
<g>
	<path class="st96" d="M72.7,47.6c-0.8,0-1.5,0.1-1.4,0.3s0.8,0.3,1.6,0.3h8.4c0.8,0,1.5-0.2,1.6-0.4c0-0.2-0.6-0.3-1.4-0.3
		L72.7,47.6z"/>
</g>
<g>
	<path class="st96" d="M17,47.5c-0.8,0-1.4,0.1-1.4,0.3s0.8,0.3,1.6,0.3h8.2c0.8,0,1.6-0.2,1.7-0.4s-0.5-0.3-1.3-0.3L17,47.5z"/>
</g>
</svg>
