<?xml version="1.0" encoding="utf-8"?>
<!-- Generator: Adobe Illustrator 24.3.0, SVG Export Plug-In . SVG Version: 6.00 Build 0)  -->
<svg version="1.1" xmlns="http://www.w3.org/2000/svg" xmlns:xlink="http://www.w3.org/1999/xlink" x="0px" y="0px"
	 viewBox="0 0 180 83.1" style="enable-background:new 0 0 180 83.1;" xml:space="preserve">
<style type="text/css">
	.st0{display:none;}
	.st1{display:inline;}
	.st2{font-family:'NotoSans-Bold';}
	.st3{font-size:15px;}
	.st4{fill-rule:evenodd;clip-rule:evenodd;fill:#F8F5F4;}
	.st5{display:none;opacity:0.5;}
	.st6{display:inline;opacity:0.5;}
	.st7{fill-rule:evenodd;clip-rule:evenodd;}
	.st8{display:inline;opacity:0.3;}
	.st9{opacity:0.7;}
</style>
<g id="Layer_1" class="st0">
	<text transform="matrix(1 0 0 1 2.4062 78.9212)" class="st1 st2 st3">NO LONGER AVAILABLE</text>
</g>
<g id="Layer_2" class="st0">
	<g class="st1">
		<path class="st4" d="M17.9,27.6c3.5-1.5,7.5-1.8,11.2-0.7c3.8,1.1,7.1,3.6,9,7.1l-5,3c-0.8-1.2-1.7-2.4-2.8-3.3
			c-3.1-2.6-8.1-2.4-11.4-0.3c-2.2,1.5-3.7,3.8-4.2,6.5c-0.5,2.6,0,5.3,1.4,7.5c1.6,2.5,4.3,4.1,7.2,4.4c2.6,0.4,5.1-0.3,7.2-1.9
			c1.4-1.2,2.4-2.8,2.8-4.6h-9.6v-5.4h15.6c0.3,2.8-0.1,5.6-1.1,8.2c-1,2.7-2.9,5.1-5.3,6.7c-6.3,3.9-14.4,3-19.7-2.2
			c-4.5-4.5-5.6-11.9-2.9-17.6C11.9,31.8,14.6,29.1,17.9,27.6z"/>
		<polygon class="st4" points="120.5,26.6 126.4,26.6 133.5,48.1 140.7,26.6 146.5,26.6 136.3,56.8 130.8,56.8 128.2,49.4 
			120.5,26.6 		"/>
		<path class="st4" d="M148.9,26.6h9.5c1.8-0.1,3.6,0.3,5.3,0.9c2.1,0.8,3.8,2.3,4.9,4.2c1.3,2.4,1.6,5.2,1.1,7.8
			c-0.6,2.8-2.4,5.1-4.8,6.5l6.2,10.9h-6.5l-5-9.3h-5v9.3h-5.7L148.9,26.6L148.9,26.6z M154.5,31.9c0,3.5,0,7,0,10.5
			c1.9,0.1,3.8,0,5.7-0.2c1.8-0.3,3.3-1.6,3.8-3.4c0.5-1.7,0.3-3.6-0.8-5.1c-0.9-1.1-2.3-1.7-3.7-1.8
			C157.9,31.8,156.2,31.9,154.5,31.9L154.5,31.9z"/>
		<path class="st4" d="M46.8,34.4c4.9-3.5,12.4-2.9,16.5,1.6c2.6,2.9,3.7,6.9,3.1,10.7c-6.5,0-13,0-19.5,0c0.4,2.1,1.7,3.8,3.6,4.8
			c2.7,1.4,5.9,1.1,8.4-0.6c0.9-0.7,1.7-1.7,2.2-2.7l4.4,2.6c-1.1,2.1-2.8,3.9-4.9,5c-2.8,1.4-6,1.8-9.1,1.2
			c-3.1-0.6-5.8-2.3-7.7-4.8c-2.1-2.9-2.8-6.6-2.1-10.1C42.4,39,44.2,36.3,46.8,34.4z M51.6,37.5c-2.1,0.7-3.7,2.4-4.4,4.5h13.7
			c-0.2-1-0.7-1.9-1.3-2.6C57.7,37.1,54.3,36.5,51.6,37.5L51.6,37.5z"/>
		<path class="st4" d="M73,34.5c3.4-2.6,8.1-3.1,12-1.3c1.1,0.6,2.1,1.3,3,2.2c0-0.9,0-1.8,0-2.7c1.9,0,3.7,0,5.6,0
			c0,8.1,0,16.1,0,24.2c-1.9,0-3.7,0-5.6,0c0-1,0-2,0-3c-0.9,0.9-1.9,1.6-3,2.2c-2.9,1.4-6.3,1.5-9.3,0.3c-2.1-0.9-4-2.4-5.3-4.3
			c-2.1-3.2-2.7-7.1-1.8-10.8C69.3,38.6,70.8,36.2,73,34.5z M79.7,37.4c-3,0.6-5.3,2.9-5.8,5.9c-0.6,2.9,0.6,5.8,3,7.6
			c2,1.4,4.6,1.7,6.9,0.8c1.7-0.7,3-2,3.8-3.6c0.8-1.8,0.9-3.8,0.4-5.7C87,38.8,83.4,36.6,79.7,37.4L79.7,37.4z"/>
		<path class="st4" d="M97,32.6c1.8,0,3.7,0,5.5,0c0,1.1,0,2.2,0,3.3c0.7-1.2,1.7-2.1,2.9-2.7c2.4-0.9,5.2-0.8,7.5,0.4l-2.1,5.3
			c-1.6-0.9-3.6-1.1-5.4-0.6c-1.3,0.5-2.3,1.6-2.6,3c-0.3,1.5-0.4,3.1-0.3,4.6v10.8c-1.9,0.1-3.7,0-5.6,0C97,48.7,97,40.7,97,32.6
			L97,32.6z"/>
		<polygon class="st4" points="28,3.5 33.9,3.5 36.4,16.7 32.7,16.7 30.9,5 29.2,16.7 25.5,16.7 28,3.5 		"/>
		<polygon class="st4" points="39.1,3.5 44.6,3.5 46.2,13.5 47.8,3.5 53.2,3.5 53.5,16.7 50.1,16.7 50,5 47.9,16.7 46.7,16.7 
			45.6,16.7 44.4,16.7 42.3,5 42.2,16.7 38.8,16.7 39.1,3.5 		"/>
		<polygon class="st4" points="81.9,3.5 86.9,3.5 89.8,13.4 89.6,3.5 93.1,3.5 93.1,16.7 88.3,16.7 85.1,6.3 85.3,16.7 81.8,16.7 
			81.9,3.5 		"/>
		<path class="st4" d="M74.9,3.5h3.5v9.7c0,2.6-1.5,3.9-4.7,3.9c-3.2,0-4.7-1.4-4.7-3.9V3.5h3.5v10c0.1,0.7,0.6,1.2,1.3,1.1
			c0.6-0.1,1-0.5,1.1-1.1V3.5z"/>
		<path class="st4" d="M101,9.2h4.7V13c0,2.5-1.5,4-4.7,4c-3.2,0-4.7-1.6-4.7-4v-6c0-2.5,1.5-4,4.7-4c3.2,0,4.7,1.6,4.7,4v0.7h-3.4
			V6.9c0-0.7-0.5-1.2-1.2-1.2c0,0-0.1,0-0.1,0c-0.7,0-1.3,0.5-1.3,1.1v6.5c0,0.7,0.5,1.2,1.2,1.2c0,0,0.1,0,0.1,0
			c0.7,0,1.2-0.5,1.3-1.1v-2.2H101V9.2z"/>
		<path class="st4" d="M64.5,9.9c1.1,0.7,1.8,2,1.6,3.3c0,2.4-1.4,3.9-4.8,3.9c-3.3,0-4.7-1.5-4.7-4v-1h3.6v1.2
			c-0.1,0.6,0.3,1.1,0.9,1.2c0.1,0,0.1,0,0.2,0c0.7,0,1.2-0.5,1.3-1.1c0,0,0,0,0,0c0-1.3-0.9-1.6-1.9-2.2c-1.1-0.5-2-1.1-2.9-1.9
			c-0.7-0.7-1.1-1.5-1.1-2.5c0-2.5,1.6-3.8,4.6-3.8c3.4,0,4.7,1.5,4.7,3.8v0.5h-3.5V6.7c0-0.9-0.4-1.2-1.2-1.2
			c-0.6-0.1-1.1,0.4-1.1,0.9c0,0.1,0,0.1,0,0.2C60.1,8,63,8.6,64.5,9.9L64.5,9.9z"/>
		<path class="st4" d="M21.9,9.9c1.2,0.8,1.7,1.7,1.7,3.4c0,2.4-1.5,3.9-4.8,3.9s-4.8-1.5-4.8-4v-0.9h3.7v1.1
			c-0.1,0.6,0.3,1.1,0.9,1.2c0.1,0,0.1,0,0.2,0c0.7,0,1.2-0.5,1.3-1.1c0,0,0,0,0,0c0-1.3-0.8-1.6-1.9-2.2c-1.1-0.5-2.1-1.2-3-1.9
			c-0.7-0.7-1-1.5-1-2.5C14,4.3,15.6,3,18.6,3c3.4,0,4.7,1.3,4.7,3.8v0.5h-3.4V6.6c0.1-0.6-0.4-1.1-1-1.2c-0.1,0-0.2,0-0.2,0
			c-0.6-0.1-1.1,0.4-1.1,0.9c0,0.1,0,0.1,0,0.2C17.5,7.9,20.4,8.5,21.9,9.9z"/>
	</g>
</g>
<g id="Layer_2_copy" class="st5">
	<g class="st6">
		<path class="st7" d="M17.9,27.6c3.5-1.5,7.5-1.8,11.2-0.7c3.8,1.1,7.1,3.6,9,7.1l-5,3c-0.8-1.2-1.7-2.4-2.8-3.3
			c-3.1-2.6-8.1-2.4-11.4-0.3c-2.2,1.5-3.7,3.8-4.2,6.5c-0.5,2.6,0,5.3,1.4,7.5c1.6,2.5,4.3,4.1,7.2,4.4c2.6,0.4,5.1-0.3,7.2-1.9
			c1.4-1.2,2.4-2.8,2.8-4.6h-9.6v-5.4h15.6c0.3,2.8-0.1,5.6-1.1,8.2c-1,2.7-2.9,5.1-5.3,6.7c-6.3,3.9-14.4,3-19.7-2.2
			c-4.5-4.5-5.6-11.9-2.9-17.6C11.9,31.8,14.6,29.1,17.9,27.6z"/>
		<polygon class="st7" points="120.5,26.6 126.4,26.6 133.5,48.1 140.7,26.6 146.5,26.6 136.3,56.8 130.8,56.8 128.2,49.4 
			120.5,26.6 		"/>
		<path class="st7" d="M148.9,26.6h9.5c1.8-0.1,3.6,0.3,5.3,0.9c2.1,0.8,3.8,2.3,4.9,4.2c1.3,2.4,1.6,5.2,1.1,7.8
			c-0.6,2.8-2.4,5.1-4.8,6.5l6.2,10.9h-6.5l-5-9.3h-5v9.3h-5.7L148.9,26.6L148.9,26.6z M154.5,31.9c0,3.5,0,7,0,10.5
			c1.9,0.1,3.8,0,5.7-0.2c1.8-0.3,3.3-1.6,3.8-3.4c0.5-1.7,0.3-3.6-0.8-5.1c-0.9-1.1-2.3-1.7-3.7-1.8
			C157.9,31.8,156.2,31.9,154.5,31.9L154.5,31.9z"/>
		<path class="st7" d="M46.8,34.4c4.9-3.5,12.4-2.9,16.5,1.6c2.6,2.9,3.7,6.9,3.1,10.7c-6.5,0-13,0-19.5,0c0.4,2.1,1.7,3.8,3.6,4.8
			c2.7,1.4,5.9,1.1,8.4-0.6c0.9-0.7,1.7-1.7,2.2-2.7l4.4,2.6c-1.1,2.1-2.8,3.9-4.9,5c-2.8,1.4-6,1.8-9.1,1.2
			c-3.1-0.6-5.8-2.3-7.7-4.8c-2.1-2.9-2.8-6.6-2.1-10.1C42.4,39,44.2,36.3,46.8,34.4z M51.6,37.5c-2.1,0.7-3.7,2.4-4.4,4.5h13.7
			c-0.2-1-0.7-1.9-1.3-2.6C57.7,37.1,54.3,36.5,51.6,37.5L51.6,37.5z"/>
		<path class="st7" d="M73,34.5c3.4-2.6,8.1-3.1,12-1.3c1.1,0.6,2.1,1.3,3,2.2c0-0.9,0-1.8,0-2.7c1.9,0,3.7,0,5.6,0
			c0,8.1,0,16.1,0,24.2c-1.9,0-3.7,0-5.6,0c0-1,0-2,0-3c-0.9,0.9-1.9,1.6-3,2.2c-2.9,1.4-6.3,1.5-9.3,0.3c-2.1-0.9-4-2.4-5.3-4.3
			c-2.1-3.2-2.7-7.1-1.8-10.8C69.3,38.6,70.8,36.2,73,34.5z M79.7,37.4c-3,0.6-5.3,2.9-5.8,5.9c-0.6,2.9,0.6,5.8,3,7.6
			c2,1.4,4.6,1.7,6.9,0.8c1.7-0.7,3-2,3.8-3.6c0.8-1.8,0.9-3.8,0.4-5.7C87,38.8,83.4,36.6,79.7,37.4L79.7,37.4z"/>
		<path class="st7" d="M97,32.6c1.8,0,3.7,0,5.5,0c0,1.1,0,2.2,0,3.3c0.7-1.2,1.7-2.1,2.9-2.7c2.4-0.9,5.2-0.8,7.5,0.4l-2.1,5.3
			c-1.6-0.9-3.6-1.1-5.4-0.6c-1.3,0.5-2.3,1.6-2.6,3c-0.3,1.5-0.4,3.1-0.3,4.6v10.8c-1.9,0.1-3.7,0-5.6,0C97,48.7,97,40.7,97,32.6
			L97,32.6z"/>
		<polygon class="st7" points="28,3.5 33.9,3.5 36.4,16.7 32.7,16.7 30.9,5 29.2,16.7 25.5,16.7 28,3.5 		"/>
		<polygon class="st7" points="39.1,3.5 44.6,3.5 46.2,13.5 47.8,3.5 53.2,3.5 53.5,16.7 50.1,16.7 50,5 47.9,16.7 46.7,16.7 
			45.6,16.7 44.4,16.7 42.3,5 42.2,16.7 38.8,16.7 39.1,3.5 		"/>
		<polygon class="st7" points="81.9,3.5 86.9,3.5 89.8,13.4 89.6,3.5 93.1,3.5 93.1,16.7 88.3,16.7 85.1,6.3 85.3,16.7 81.8,16.7 
			81.9,3.5 		"/>
		<path class="st7" d="M74.9,3.5h3.5v9.7c0,2.6-1.5,3.9-4.7,3.9c-3.2,0-4.7-1.4-4.7-3.9V3.5h3.5v10c0.1,0.7,0.6,1.2,1.3,1.1
			c0.6-0.1,1-0.5,1.1-1.1V3.5z"/>
		<path class="st7" d="M101,9.2h4.7V13c0,2.5-1.5,4-4.7,4c-3.2,0-4.7-1.6-4.7-4v-6c0-2.5,1.5-4,4.7-4c3.2,0,4.7,1.6,4.7,4v0.7h-3.4
			V6.9c0-0.7-0.5-1.2-1.2-1.2c0,0-0.1,0-0.1,0c-0.7,0-1.3,0.5-1.3,1.1v6.5c0,0.7,0.5,1.2,1.2,1.2c0,0,0.1,0,0.1,0
			c0.7,0,1.2-0.5,1.3-1.1v-2.2H101V9.2z"/>
		<path class="st7" d="M64.5,9.9c1.1,0.7,1.8,2,1.6,3.3c0,2.4-1.4,3.9-4.8,3.9c-3.3,0-4.7-1.5-4.7-4v-1h3.6v1.2
			c-0.1,0.6,0.3,1.1,0.9,1.2c0.1,0,0.1,0,0.2,0c0.7,0,1.2-0.5,1.3-1.1c0,0,0,0,0,0c0-1.3-0.9-1.6-1.9-2.2c-1.1-0.5-2-1.1-2.9-1.9
			c-0.7-0.7-1.1-1.5-1.1-2.5c0-2.5,1.6-3.8,4.6-3.8c3.4,0,4.7,1.5,4.7,3.8v0.5h-3.5V6.7c0-0.9-0.4-1.2-1.2-1.2
			c-0.6-0.1-1.1,0.4-1.1,0.9c0,0.1,0,0.1,0,0.2C60.1,8,63,8.6,64.5,9.9L64.5,9.9z"/>
		<path class="st7" d="M21.9,9.9c1.2,0.8,1.7,1.7,1.7,3.4c0,2.4-1.5,3.9-4.8,3.9s-4.8-1.5-4.8-4v-0.9h3.7v1.1
			c-0.1,0.6,0.3,1.1,0.9,1.2c0.1,0,0.1,0,0.2,0c0.7,0,1.2-0.5,1.3-1.1c0,0,0,0,0,0c0-1.3-0.8-1.6-1.9-2.2c-1.1-0.5-2.1-1.2-3-1.9
			c-0.7-0.7-1-1.5-1-2.5C14,4.3,15.6,3,18.6,3c3.4,0,4.7,1.3,4.7,3.8v0.5h-3.4V6.6c0.1-0.6-0.4-1.1-1-1.2c-0.1,0-0.2,0-0.2,0
			c-0.6-0.1-1.1,0.4-1.1,0.9c0,0.1,0,0.1,0,0.2C17.5,7.9,20.4,8.5,21.9,9.9z"/>
	</g>
</g>
<g id="Layer_2_copy_2" class="st5">
	<g class="st8">
		<path class="st7" d="M10.4,27.3c3.9-1.7,8.3-2,12.4-0.8c4.2,1.2,7.8,4,10,7.9l-5.5,3.3c-0.8-1.4-1.9-2.6-3.1-3.7
			c-3.4-2.8-8.9-2.7-12.6-0.3c-2.4,1.7-4.1,4.2-4.7,7.1c-0.5,2.9,0,5.8,1.6,8.3c1.8,2.7,4.7,4.5,8,4.9c2.8,0.4,5.7-0.3,8-2.1
			c1.5-1.3,2.6-3.1,3.1-5H16.9v-6h17.3c0.3,3.1-0.1,6.2-1.2,9.1c-1.2,3-3.2,5.6-5.9,7.4c-6.9,4.3-15.9,3.3-21.8-2.4
			c-5-5-6.1-13.1-3.2-19.4C3.7,31.9,6.7,29,10.4,27.3z"/>
		<polygon class="st7" points="123.7,26.2 130.2,26.2 138.1,50 146,26.2 152.4,26.2 141.1,59.6 135,59.6 132.2,51.4 123.7,26.2 		
			"/>
		<path class="st7" d="M155.1,26.2h10.4c2-0.1,4,0.3,5.9,1c2.3,0.9,4.2,2.5,5.4,4.6c1.4,2.7,1.8,5.7,1.2,8.6
			c-0.6,3.1-2.6,5.7-5.3,7.2l6.8,12h-7.2l-5.5-10.3h-5.5v10.3h-6.2L155.1,26.2L155.1,26.2z M161.3,32c0,3.9,0,7.8,0,11.7
			c2.1,0.1,4.2,0,6.3-0.2c2-0.3,3.6-1.8,4.2-3.7c0.6-1.9,0.3-4-0.8-5.6c-1-1.2-2.5-1.9-4.1-2C165,31.9,163.1,32,161.3,32L161.3,32z"
			/>
		<path class="st7" d="M42.3,34.9c5.4-3.9,13.7-3.2,18.2,1.7c2.8,3.2,4.1,7.6,3.4,11.8c-7.2,0-14.4,0-21.6,0c0.4,2.3,1.9,4.2,4,5.3
			c3,1.5,6.5,1.3,9.2-0.7c1-0.8,1.8-1.8,2.5-3L63,53c-1.2,2.4-3,4.3-5.4,5.5c-3.1,1.5-6.6,2-10,1.3c-3.4-0.6-6.4-2.5-8.5-5.3
			c-2.3-3.2-3.1-7.3-2.3-11.1C37.5,40,39.4,36.9,42.3,34.9z M47.6,38.2c-2.3,0.8-4.1,2.6-4.9,5h15.1c-0.2-1.1-0.7-2.1-1.4-2.9
			C54.3,37.8,50.6,37.2,47.6,38.2L47.6,38.2z"/>
		<path class="st7" d="M71.3,35c3.8-2.9,8.9-3.4,13.2-1.4c1.2,0.7,2.3,1.5,3.3,2.4c0-1,0-2,0-3c2,0,4.1,0,6.2,0c0,8.9,0,17.8,0,26.7
			c-2,0-4.1,0-6.2,0c0-1.1,0-2.2,0-3.3c-1,1-2.1,1.8-3.3,2.5c-3.2,1.6-6.9,1.7-10.2,0.3c-2.4-1-4.4-2.7-5.9-4.8
			c-2.3-3.5-3-7.8-2-11.9C67.1,39.5,68.8,36.8,71.3,35z M78.6,38.1c-3.3,0.6-5.9,3.2-6.4,6.5c-0.6,3.2,0.7,6.5,3.3,8.4
			c2.2,1.6,5.1,1.9,7.6,0.9c1.8-0.8,3.3-2.2,4.2-4c0.9-2,1-4.2,0.5-6.2C86.6,39.7,82.7,37.3,78.6,38.1L78.6,38.1z"/>
		<path class="st7" d="M97.7,32.9c2,0,4.1,0,6.1,0c0,1.2,0,2.4,0,3.7c0.7-1.3,1.8-2.3,3.2-3c2.7-1,5.7-0.9,8.3,0.4l-2.3,5.9
			c-1.8-1-4-1.3-6-0.6c-1.4,0.6-2.5,1.8-2.8,3.3c-0.3,1.7-0.4,3.4-0.3,5.1v11.9c-2.1,0.1-4.1,0-6.2,0C97.7,50.7,97.7,41.8,97.7,32.9
			L97.7,32.9z"/>
		<polygon class="st7" points="21.5,0.7 28.1,0.7 30.7,15.3 26.7,15.3 24.8,2.3 22.8,15.3 18.8,15.3 21.5,0.7 		"/>
		<polygon class="st7" points="33.8,0.7 39.8,0.7 41.6,11.7 43.3,0.7 49.4,0.7 49.7,15.3 45.9,15.3 45.8,2.3 43.5,15.3 42.2,15.3 
			40.9,15.3 39.7,15.3 37.3,2.3 37.2,15.3 33.5,15.3 33.8,0.7 		"/>
		<polygon class="st7" points="81,0.7 86.6,0.7 89.8,11.6 89.6,0.7 93.4,0.7 93.4,15.3 88.1,15.3 84.6,3.8 84.8,15.3 81,15.3 
			81,0.7 		"/>
		<path class="st7" d="M73.3,0.7h3.8v10.7c0,2.8-1.7,4.3-5.2,4.3s-5.2-1.5-5.2-4.3V0.7h3.8v11.1c0.1,0.7,0.7,1.3,1.4,1.2
			c0.6-0.1,1.2-0.6,1.2-1.2V0.7z"/>
		<path class="st7" d="M102.2,7h5.2v4.2c0,2.8-1.6,4.4-5.2,4.4c-3.5,0-5.2-1.7-5.2-4.4V4.6c0-2.8,1.6-4.4,5.2-4.4s5.2,1.7,5.2,4.4
			v0.8h-3.7v-1c0-0.7-0.5-1.3-1.3-1.4c0,0-0.1,0-0.1,0c-0.7,0-1.4,0.5-1.5,1.2v7.2c0,0.7,0.5,1.3,1.3,1.4c0,0,0.1,0,0.1,0
			c0.7,0,1.4-0.5,1.4-1.3V9.2h-1.4V7z"/>
		<path class="st7" d="M61.8,7.8c1.3,0.8,1.9,2.2,1.8,3.7c0,2.6-1.6,4.3-5.2,4.3c-3.7,0-5.2-1.7-5.2-4.4v-1.1h4v1.3
			c-0.1,0.7,0.4,1.3,1,1.4c0.1,0,0.2,0,0.2,0c0.7,0,1.3-0.5,1.4-1.2c0,0,0,0,0,0c0-1.4-0.9-1.8-2.1-2.5c-1.2-0.5-2.3-1.2-3.2-2
			c-0.7-0.7-1.2-1.7-1.2-2.7c0-2.8,1.7-4.2,5.1-4.2c3.7,0,5.2,1.6,5.2,4.2V5h-3.9V4.3c0-1-0.5-1.4-1.3-1.4c-0.6-0.1-1.2,0.4-1.3,1
			c0,0.1,0,0.1,0,0.2C57,5.7,60.2,6.4,61.8,7.8L61.8,7.8z"/>
		<path class="st7" d="M14.7,7.8c1.4,0.9,1.8,1.9,1.8,3.8c0,2.7-1.7,4.3-5.3,4.3s-5.3-1.7-5.3-4.4v-1h4v1.3c-0.1,0.7,0.4,1.3,1,1.4
			c0.1,0,0.2,0,0.2,0c0.7,0,1.3-0.5,1.4-1.2c0,0,0,0,0,0c0-1.4-0.9-1.8-2.1-2.5C9.3,8.7,8.2,8,7.2,7.2C6.5,6.5,6,5.5,6,4.4
			c0-2.8,1.8-4.3,5.1-4.3c3.7,0,5.2,1.5,5.2,4.2V5h-3.8V4.2c0.1-0.7-0.4-1.3-1.1-1.3c-0.1,0-0.2,0-0.3,0c-0.6-0.1-1.2,0.4-1.3,1
			c0,0.1,0,0.1,0,0.2C9.9,5.6,13.1,6.3,14.7,7.8z"/>
	</g>
</g>
<g id="Layer_4">
	<g class="st9">
		<path d="M24.3,35.4h-6l-9.7-17H8.3c0.2,3,0.3,5.1,0.3,6.4v10.5H4.4V13h6l9.7,16.8h0.1c-0.2-2.9-0.2-5-0.2-6.2V13h4.3V35.4z"/>
		<path d="M49.6,24.2c0,3.7-0.9,6.6-2.8,8.6s-4.5,3-7.9,3c-3.4,0-6.1-1-7.9-3c-1.8-2-2.8-4.9-2.8-8.6s0.9-6.6,2.8-8.5
			c1.8-2,4.5-3,7.9-3s6.1,1,7.9,3C48.7,17.6,49.6,20.4,49.6,24.2z M33.3,24.2c0,2.5,0.5,4.4,1.4,5.7c1,1.3,2.4,1.9,4.3,1.9
			c3.8,0,5.7-2.5,5.7-7.6c0-5-1.9-7.6-5.7-7.6c-1.9,0-3.3,0.6-4.3,1.9C33.8,19.8,33.3,21.7,33.3,24.2z"/>
		<path d="M61.2,35.4V13h4.8v18.5H75v3.9H61.2z"/>
		<path d="M97.1,24.2c0,3.7-0.9,6.6-2.8,8.6c-1.8,2-4.5,3-7.9,3s-6.1-1-7.9-3c-1.8-2-2.8-4.9-2.8-8.6s0.9-6.6,2.8-8.5
			c1.8-2,4.5-3,7.9-3c3.4,0,6.1,1,7.9,3S97.1,20.4,97.1,24.2z M80.7,24.2c0,2.5,0.5,4.4,1.4,5.7c1,1.3,2.4,1.9,4.3,1.9
			c3.8,0,5.7-2.5,5.7-7.6c0-5-1.9-7.6-5.7-7.6c-1.9,0-3.3,0.6-4.3,1.9C81.2,19.8,80.7,21.7,80.7,24.2z"/>
		<path d="M119.7,35.4h-6l-9.8-17h-0.1c0.2,3,0.3,5.1,0.3,6.4v10.5h-4.2V13h6l9.7,16.8h0.1c-0.2-2.9-0.2-5-0.2-6.2V13h4.3V35.4z"/>
		<path d="M132,22.8h8.9v11.6c-1.4,0.5-2.8,0.8-4.1,1c-1.3,0.2-2.6,0.3-3.9,0.3c-3.4,0-6-1-7.7-3c-1.8-2-2.7-4.8-2.7-8.6
			c0-3.6,1-6.4,3.1-8.5c2.1-2,4.9-3,8.6-3c2.3,0,4.5,0.5,6.7,1.4l-1.6,3.8c-1.6-0.8-3.3-1.2-5.1-1.2c-2.1,0-3.7,0.7-4.9,2.1
			c-1.2,1.4-1.9,3.2-1.9,5.6c0,2.4,0.5,4.3,1.5,5.6c1,1.3,2.4,1.9,4.3,1.9c1,0,2-0.1,3-0.3v-4.7H132V22.8z"/>
		<path d="M157.8,35.4h-12.9V13h12.9v3.9h-8.2v4.9h7.6v3.9h-7.6v5.8h8.2V35.4z"/>
		<path d="M166,26.8v8.6h-4.8V13h6.5c3,0,5.3,0.6,6.8,1.7c1.5,1.1,2.2,2.8,2.2,5.1c0,1.3-0.4,2.5-1.1,3.5c-0.7,1-1.8,1.8-3.1,2.4
			l6.6,9.8h-5.3l-5.4-8.6H166z M166,22.9h1.5c1.5,0,2.6-0.2,3.3-0.8c0.7-0.5,1.1-1.3,1.1-2.4c0-1.1-0.4-1.8-1.1-2.3
			c-0.7-0.4-1.9-0.7-3.4-0.7H166V22.9z"/>
		<path d="M18.4,68.7l-1.7-5.7H8l-1.7,5.7H0.8l8.4-23.9h6.2l8.4,23.9H18.4z M15.5,58.8c-1.6-5.1-2.5-8-2.7-8.7s-0.3-1.2-0.4-1.6
			C12,49.9,11,53.4,9.3,58.8H15.5z"/>
		<path d="M39.1,44.9h5.1l-8.1,23.8h-5.5l-8.1-23.8h5.1l4.5,14.2c0.2,0.8,0.5,1.8,0.8,2.9c0.3,1.1,0.4,1.9,0.5,2.3
			c0.1-1,0.5-2.7,1.2-5.2L39.1,44.9z"/>
		<path d="M59.7,68.7L58,63.1h-8.7l-1.7,5.7h-5.4l8.4-23.9h6.2l8.4,23.9H59.7z M56.8,58.8c-1.6-5.1-2.5-8-2.7-8.7
			c-0.2-0.7-0.3-1.2-0.4-1.6c-0.4,1.4-1.4,4.8-3.1,10.3H56.8z"/>
		<path d="M79.1,68.7H68.3v-2.9l2.9-1.3V49.1l-2.9-1.3v-2.9h10.8v2.9l-2.9,1.3v15.4l2.9,1.3V68.7z"/>
		<path d="M83.1,68.7V44.9h5v19.6h9.7v4.2H83.1z"/>
		<path d="M117.2,68.7l-1.7-5.7h-8.7l-1.7,5.7h-5.4l8.4-23.9h6.2l8.4,23.9H117.2z M114.3,58.8c-1.6-5.1-2.5-8-2.7-8.7
			s-0.3-1.2-0.4-1.6c-0.4,1.4-1.4,4.8-3.1,10.3H114.3z"/>
		<path d="M125,44.9h7.4c3.4,0,5.8,0.5,7.4,1.4c1.5,1,2.3,2.5,2.3,4.6c0,1.4-0.3,2.6-1,3.5c-0.7,0.9-1.6,1.5-2.7,1.6v0.2
			c1.5,0.3,2.6,1,3.3,1.9c0.7,0.9,1,2.1,1,3.7c0,2.2-0.8,3.9-2.4,5.1c-1.6,1.2-3.7,1.8-6.4,1.8H125V44.9z M130,54.4h2.9
			c1.4,0,2.4-0.2,3-0.6c0.6-0.4,0.9-1.1,0.9-2.1c0-0.9-0.3-1.6-1-2c-0.7-0.4-1.7-0.6-3.2-0.6H130V54.4z M130,58.4v6.2h3.3
			c1.4,0,2.4-0.3,3.1-0.8c0.7-0.5,1-1.3,1-2.4c0-2-1.4-3-4.2-3H130z"/>
		<path d="M146,68.7V44.9h5v19.6h9.7v4.2H146z"/>
		<path d="M177.9,68.7h-13.7V44.9h13.7v4.1h-8.7v5.2h8.1v4.1h-8.1v6.1h8.7V68.7z"/>
	</g>
</g>
</svg>
