<svg version="1.1" id="logo-xboxone" xmlns="http://www.w3.org/2000/svg" xmlns:xlink="http://www.w3.org/1999/xlink" x="0px" y="0px"
	 viewBox="0 0 2499.9 498" style="enable-background:new 0 0 2499.9 498;" xml:space="preserve">
<title>logo-xboxone</title>
<path d="M1599.4,402.3L1504,272.8l-95.3,129.5h-39.3l114.7-156.5l-104.8-142.2h39.3l85.4,116l85.4-116h39.2l-104.7,142.2
	l114.8,156.5H1599.4z M855.8,402.2L740.9,245.8l104.8-142.2h-39.3l-85.4,116l-85.3-116h-39.1l104.7,142.2L586.4,402.2h39.3
	l95.3-129.5l95.4,129.5L855.8,402.2z"/>
<path d="M1074.1,257.1c-5.9-5-12.5-9.2-19.6-12.5c22.1-11.8,35.9-34.8,35.9-59.8c0-19.1-7-81.3-97.1-81.3H872.1v128.8h-40.4
	c-5.2,6.8-17.2,23.2-21.7,30h62.1v139.9h121.3c65.7,0,106.5-33.4,106.5-87.2C1099.9,291.5,1091,271.5,1074.1,257.1 M905.6,134.7
	h87.8c23.8,0,63.5,5.9,63.5,47.5c0,31.4-23.2,50.1-63.5,50.1h-87.8V134.7z M993.4,371.1h-87.8V262.4h87.8c33.3,0,73.1,9.2,73.1,52
	C1066.4,363.7,1020.7,371.1,993.4,371.1 M1257.7,96.7c-83.9,0-142.6,64.2-142.6,156.1s58.6,156.1,142.6,156.1S1400,344.8,1400,252.7
	S1341.5,96.7,1257.7,96.7 M1257.7,377.3c-63.9,0-108.7-51.2-108.7-124.5s44.8-124.5,108.7-124.5s108.4,51.2,108.4,124.5
	S1321.5,377.3,1257.7,377.3 M74.3,71.6l-0.2,0.2l0,0c-89.1,87.9-99,228.4-23.2,328c0.3,0.4,0.9,0.6,1.3,0.4c0.4-0.3,0.5-0.8,0.3-1.3
	c-19-58.7,78-201,128.2-260.6c0.2-0.2,0.3-0.5,0.4-0.7c0-0.3-0.2-0.6-0.5-0.8C96.3,52.9,73.8,72.1,74.1,71.8 M423.7,71.6l0.2,0.2
	l0,0c89.1,88,99,228.4,23.1,328c-0.3,0.4-0.9,0.6-1.3,0.4c-0.4-0.3-0.5-0.8-0.3-1.3c19-58.7-78-201.1-128.1-260.7
	c-0.2-0.2-0.3-0.4-0.4-0.7c0-0.3,0.2-0.6,0.5-0.8c84.3-83.9,106.7-64.6,106.4-64.9 M249,0c50.2,0,91.6,13.8,129.7,36.4
	c0.4,0.3,0.6,0.8,0.4,1.2c-0.2,0.4-0.8,0.6-1.2,0.4c-48.2-10.4-121.5,31.2-128.4,35.4c-0.1,0.1-0.3,0.2-0.5,0.2
	c-0.2,0-0.4-0.1-0.6-0.2c-18.4-10.5-86.1-46-128.8-35.1c-0.5,0.2-1,0-1.2-0.4c-0.2-0.5,0-1,0.4-1.2C157,13.8,198.9,0,249,0
	 M249,199.7c0.3,0,0.6,0.2,0.8,0.4c74.5,56.7,202,196.7,163.1,236.3l0,0v0h0c-93.8,82.1-234,82.1-327.8,0v0v0
	c-38.9-39.6,88.6-179.7,163-236.3C248.4,199.9,248.7,199.7,249,199.7 M2218.3,103.6v245.1l-180.6-245.3l-29.6-0.1v298.5h33.2V162.1
	L2218.2,402h33.3V103.6L2218.3,103.6z M1835.5,96.6c-83.9,0-142.6,64.2-142.6,156.1c0,92,58.7,156.2,142.6,156.2
	s142.3-64.2,142.3-156.2C1977.8,160.8,1919.3,96.6,1835.5,96.6 M1835.5,377.3c-63.9,0-108.7-51.2-108.7-124.6
	s44.8-124.5,108.7-124.5s108.3,51.2,108.3,124.5S1899.3,377.3,1835.5,377.3 M2322.3,372.8V262.4h164.3v-29.2h-164.3V132.6h175.5
	v-29.2h-208.9V402h211v-29.2L2322.3,372.8z"/>
</svg>
