<svg version="1.1" id="logo-xbox360" xmlns="http://www.w3.org/2000/svg" xmlns:xlink="http://www.w3.org/1999/xlink" x="0px" y="0px"
	 viewBox="0 0 2405.4 498" style="enable-background:new 0 0 2405.4 498;" xml:space="preserve">
<title>logo-xbox360</title>
<path d="M1599.4,402.3L1504,272.8l-95.3,129.5h-39.3l114.7-156.5l-104.8-142.2h39.3l85.4,116l85.4-116h39.2l-104.7,142.2
	l114.8,156.5H1599.4z M855.8,402.2L740.9,245.8l104.8-142.2h-39.3l-85.4,116l-85.3-116h-39.1l104.7,142.2L586.5,402.2h39.3
	l95.3-129.5l95.4,129.5L855.8,402.2z"/>
<path d="M1074.1,257.1c-5.9-5-12.5-9.2-19.6-12.5c22.1-11.8,35.9-34.8,35.9-59.8c0-19.1-7-81.3-97.1-81.3H872.1v128.8h-40.4
	c-5.2,6.8-17.2,23.2-21.7,30h62.1v139.9h121.3c65.7,0,106.5-33.4,106.5-87.2C1099.9,291.5,1091,271.5,1074.1,257.1 M905.6,134.7
	h87.8c23.8,0,63.5,5.9,63.5,47.5c0,31.4-23.2,50.1-63.5,50.1h-87.8V134.7z M993.4,371.1h-87.8V262.4h87.8c33.3,0,73.1,9.2,73.1,52
	C1066.5,363.7,1020.7,371.1,993.4,371.1 M1257.7,96.7c-83.9,0-142.6,64.2-142.6,156.1s58.6,156.1,142.6,156.1S1400,344.8,1400,252.7
	S1341.5,96.7,1257.7,96.7 M1257.7,377.3c-63.9,0-108.7-51.2-108.7-124.5s44.8-124.5,108.7-124.5s108.4,51.2,108.4,124.5
	S1321.5,377.3,1257.7,377.3 M74.3,71.6l-0.2,0.2l0,0c-89.1,87.9-99,228.4-23.2,328c0.3,0.4,0.9,0.6,1.3,0.4c0.4-0.3,0.5-0.8,0.3-1.3
	c-19-58.7,78-201,128.2-260.6c0.2-0.2,0.3-0.5,0.4-0.7c0-0.3-0.2-0.6-0.5-0.8C96.3,52.9,73.8,72.1,74.1,71.8 M423.7,71.6l0.2,0.2
	l0,0c89.1,88,99,228.4,23.1,328c-0.3,0.4-0.9,0.6-1.3,0.4c-0.4-0.3-0.5-0.8-0.3-1.3c19-58.7-78-201.1-128.1-260.7
	c-0.2-0.2-0.3-0.4-0.4-0.7c0-0.3,0.2-0.6,0.5-0.8c84.4-83.9,106.7-64.6,106.4-64.9 M249,0c50.2,0,91.6,13.8,129.7,36.4
	c0.5,0.2,0.6,0.8,0.4,1.2c-0.2,0.5-0.8,0.6-1.2,0.4l0,0c-48.2-10.4-121.5,31.2-128.4,35.4c-0.1,0.1-0.3,0.2-0.5,0.2
	c-0.2,0-0.4-0.1-0.6-0.2c-18.4-10.5-86.1-46-128.8-35.1c-0.5,0.2-1,0-1.2-0.4c-0.2-0.5,0-1,0.4-1.2C157,13.8,198.9,0,249,0
	 M249,199.7c0.3,0,0.6,0.2,0.8,0.4c74.5,56.7,202,196.7,163.1,236.3l0,0v0h0c-93.8,82.1-234,82.1-327.8,0l0,0
	c-38.9-39.6,88.6-179.7,163.1-236.3C248.4,199.9,248.7,199.7,249,199.7"/>
<path d="M2293.9,382.6c-20.1,0-37.1-6.6-49.9-19.6c-28.6-28.4-32.6-81.3-32.6-110.3c0-39,7.9-129.7,82.5-129.7s82.8,90.8,82.8,129.7
	C2376.6,291.9,2368.5,382.6,2293.9,382.6L2293.9,382.6z M2293.9,96.2c-71,0-111.7,57.1-111.7,156.7c0,99.4,40.7,156.5,111.7,156.5
	c40.3,0,70.4-17.5,89.4-52.3c18.3-33.1,22-75,22-104.3C2405.3,205.8,2394.4,96.2,2293.9,96.2"/>
<path d="M2054.2,382.6c-42.2,0-75.3-33.9-75.3-77.2c0-45,32.4-78.9,75.3-78.9c19.3-0.1,37.8,7.5,51.4,21.3
	c14.9,14.9,23.4,36,23.4,57.6C2128.9,348.7,2096,382.6,2054.2,382.6L2054.2,382.6z M2054.2,199.8c-31.9,0-61.8,15.6-80,41.8
	c3.6-56.7,21.8-118.4,83.4-118.4c34.4,0,60.6,22.4,66.3,57.2l0.9,5.4h28.6l-0.6-7.1c-5.7-50.7-42.2-82.3-95.5-82.3
	c-93.4,0-113.2,92.8-113.2,170.8c0,93,38,142.4,109.8,142.4c59.1,0,103.6-44.8,103.6-104.1C2157.8,244.2,2114.3,199.8,2054.2,199.8"
	/>
<path d="M1873.8,242c25.2-11.7,41.2-36.7,41.2-66.5c0-20.9-7-38.6-20.5-52.3c-17.3-17.3-46.1-27.3-78.2-27.3
	c-52.9,0-89.4,31.4-95.1,82.3l-0.8,7.2h28.6l0.9-5.5c5.6-34.8,31.8-57.2,66.3-57.2c34.7,0,70,18.1,70,52.9
	c0,14.9-4.7,26.9-13.9,35.6c-14.7,14.3-42.2,17.9-56.3,17.9c-5.1,0-12.6,0.2-20.2,0.2c-0.2,7.4-0.2,21.3,0,28.2h20.2
	c26.7,0.2,47.6,5.8,60.6,18.1c10.7,10,16.2,24.1,16.2,41.8c0,42.8-38.6,65-76.6,65c-24.8,0-45.2-7.5-58.9-21.8
	c-13.6-14.1-20.3-34.3-19.2-58.6l0.2-6.8h-28.8l-0.2,6.2c-1.5,32,7.2,58.9,25,77.6c18.8,19.6,47.3,30,82.1,30
	c64,0,105.4-36,105.4-91.9c-0.4-35.2-18.6-63.1-48.2-74.9"/>
</svg>
