<svg version="1.1" id="logo-ps4" xmlns="http://www.w3.org/2000/svg" xmlns:xlink="http://www.w3.org/1999/xlink" x="0px" y="0px"
	 viewBox="0 0 1601.3 323.5" style="enable-background:new 0 0 1601.3 323.5;" xml:space="preserve">
<title>logo-ps4</title>
<path d="M1532.6,284.1h28v4.1H1549v31.9h-4.9v-31.9h-11.6L1532.6,284.1z"/>
<path d="M1544.1,320.1h4.9v-31.9h11.6v-4.1h-28v4.1h11.6L1544.1,320.1z"/>
<path d="M1565,284.1h6.7l10.4,30.8l10.1-30.8h5.9v36h-4v-29.2l-9.7,29.3h-4.8l-9.7-29.3v29.3h-4.9V284.1L1565,284.1z"/>
<path d="M1569.9,290.9l9.7,29.3h4.8l9.7-29.3v29.3h4v-36h-5.9l-10.1,30.8l-10.4-30.8h-6.7v36h4.9V290.9z M768.3,233.9v-149
	c0-30.4,14.2-52.2,44.5-52.2h186.6c1.2-0.1,2.2-1,2.2-2.3V0.8c0-0.3-0.1-0.5-0.2-0.8H773.3c-49.5,6.3-73.6,40.8-73.6,84.8v149
	c0,30.4-14.6,52.2-44.4,52.2H458.1c-1.2,0-2.2,0.9-2.2,2.1c0,0.1,0,0.1,0,0.2v29.6c0,1.1,0.6,2.1,1.6,2.5h223.8
	C739.6,318.8,768.3,281.6,768.3,233.9L768.3,233.9z M1.5,320.4H67c1-0.4,1.7-1.4,1.6-2.5v-95c0-30.4,17.2-51.4,42.2-51.4h269.9
	c60.9,0,90.4-37.5,90.4-86.7c0-44-24.2-78.5-73.6-84.8H0.3C0.1,0.2,0,0.5,0,0.8v29.6c-0.2,1.1,0.6,2.1,1.7,2.3c0.2,0,0.4,0,0.5,0
	H358c30.2,0,44.4,21.8,44.4,52.2S388.3,137,358,137H76.5C32.9,137,0,174.2,0,222.9v95C-0.1,319,0.5,320,1.5,320.4L1.5,320.4z"/>
<g>
	<path class="st0" d="M1056.6,246.2c-1.9,1.1-2.7,2.2-2.3,3.7c0.1,0.2,0.2,0.4,0.5,0.6c-0.2-0.2-0.3-0.3-0.4-0.5
		C1054,248.4,1054.7,247.3,1056.6,246.2z"/>
	<path d="M1496.5,251.6c-0.1,0-0.1,0-0.2,0h-64.2c-1.2-0.1-2.2-1-2.2-2.2V32.7c0-17.7-6.6-28.9-17.6-32.7h-18.7
		c-6.7,1.8-13.1,4.6-18.9,8.3l-386,238.3c-14.9,9.4-20.2,19.9-16.4,27.8c2.9,6.7,11.5,11.6,28.3,11.6H1359c0.9-0.1,1.7,0.6,1.8,1.5
		v30.4c0,1.2,0.9,2.2,2.1,2.2c0.1,0,0.1,0,0.2,0h64.6c1.2,0.1,2.2-0.8,2.2-2c0-0.1,0-0.2,0-0.2v-29.6c0.1-1.2,1-2.2,2.2-2.2h64.2
		c1.2,0,2.2-0.9,2.2-2.1c0-0.1,0-0.1,0-0.2v-30C1498.6,252.6,1497.6,251.6,1496.5,251.6z M1361.2,249.2c0,1.2-1,2.2-2.2,2.3h-300.6
		c-1.9,0-3.1-0.5-3.6-1c-0.2-0.2-0.4-0.4-0.5-0.6c-0.4-1.5,0.4-2.6,2.3-3.7l299-185c1.9-1.5,5.6-1.1,5.6,3V249.2z"/>
	<path d="M1359,251.4h-300.6c-1.9,0-3-0.4-3.6-0.9c0.6,0.5,1.7,1,3.6,1H1359c1.2-0.1,2.2-1.1,2.2-2.3
		C1361.1,250.4,1360.2,251.4,1359,251.4z"/>
</g>
</svg>
