<svg xmlns="http://www.w3.org/2000/svg" viewBox="0 0 300.16 183.31"><defs><style>.a{fill-rule:evenodd;}</style></defs><title>Asset 1</title><path class="a" d="M39.09,180.68H16.54V78.06H0V60H16.54V39.09s.13-16.36,7.14-25.18C30.4,5.46,37.81,0,54.51,0A50.06,50.06,0,0,1,74.3,4.39l-4.63,18s-16.27-6.51-24.44.5c-1.81,1.56-3.91,3.86-4.63,6.26-1.68,5.6-1.51,14-1.51,14L39.22,60h30.7L64,78.19H39.09ZM90.59,60h22.56V180.81H90.59ZM196.85,80.44s-5.24-4.14-16.17-2.63c-10.29,1.42-21.86,13.83-23.18,15.27v87.73H135V60h18.92l2.61,14.79c.73-.76,3.18-3.27,6.54-6.27C168.76,63.4,177.7,57,190,57c10.35,0,14.79,3.51,14.79,3.51Zm24.93,44.86H300s1.68-18.63-5-36.46c-6.13-16.31-19.39-31.95-44.61-31.95-28.67,0-43.28,20.79-48.37,38.71A86.94,86.94,0,0,0,198.85,121a78.27,78.27,0,0,0,5.89,29.45c6.9,16.18,21.74,32.82,51.75,32.82,25.4,0,40.47-11,40.47-11l-7-15.41s-13.5,8.88-34.08,7.89c-10.26-.5-19.84-6.49-24.93-12.66C221.29,140.45,221.78,125.3,221.78,125.3Zm.13-16.79h54.88S276.45,74.8,249.6,74.8c-14.61,0-21.92,10.33-25.19,19.43A42.36,42.36,0,0,0,221.91,108.51ZM101.87,6.26a14.89,14.89,0,0,1,11.53,5.39,14.46,14.46,0,0,1,3,9.15,14.48,14.48,0,0,1-4.06,10.08,14.83,14.83,0,0,1-21,.23l0,0a14.2,14.2,0,0,1-4-10.27,13.82,13.82,0,0,1,4.39-10.53A15.5,15.5,0,0,1,101.87,6.26Z"/></svg>