<svg xmlns="http://www.w3.org/2000/svg" viewBox="0 0 98.91 53.16"><defs><style>.a{fill-rule:evenodd;}</style></defs><title>firetv</title><path class="a" d="M80,43.57c-8.48,6.26-20.77,9.59-31.36,9.59A56.74,56.74,0,0,1,10.37,38.55c-.8-.72-.09-1.7.86-1.14A77.18,77.18,0,0,0,49.55,47.57a76.23,76.23,0,0,0,29.23-6c1.44-.61,2.64.95,1.24,2Z"/><path class="a" d="M83.54,39.54c-1.08-1.38-7.16-.65-9.9-.33-.82.1-1-.62-.21-1.14,4.86-3.41,12.81-2.43,13.73-1.29s-.24,9.13-4.79,12.93c-.7.59-1.37.27-1.06-.5,1-2.55,3.32-8.28,2.23-9.67Z"/><path class="a" d="M49,12.52c4.77,0,4.73,4.18,4.62,6H43.49c.18-3.14,1.69-6,5.47-6Zm7.65,8.75c.6,0,.68-2,.71-2.85.23-6.07-3-9-8.19-9a9.17,9.17,0,0,0-7.19,3c-1.54,1.83-2.43,4.42-2.43,7.92s.78,6,2.28,7.83,3.88,3.11,7.94,3.11a16.9,16.9,0,0,0,6.41-1.26c.69-.26.7-.57.7-1.22V27.7c0-.61-.26-.86-.93-.65a19.05,19.05,0,0,1-5.63,1A6.88,6.88,0,0,1,45,26.13a8.24,8.24,0,0,1-1.52-4.86Z"/><path class="a" d="M7.88,10V6c0-3.21,3.22-2.8,5.28-2.54.91.18,1.26,0,1.26-.69V1.44c0-.66-.27-.9-1.17-1.14C8.2-.63,3.81.37,3.81,6.78v3.35l-2.95.34c-.63.06-.86.25-.86.88v1.06c0,.58.25.81.8.81h3V29.87c0,.57.23.8.81.8H7.08c.57,0,.8-.23.8-.8V13.22h5.46c.57,0,.8-.23.8-.81V10.83c0-.58-.26-.81-.8-.81Z"/><path class="a" d="M20.86,10.05H18.45c-.58,0-.81.23-.81.8v19c0,.57.23.8.81.8h2.41c.58,0,.81-.23.81-.8v-19a.72.72,0,0,0-.81-.8ZM19.65,1.46a2.38,2.38,0,0,0-2.51,2.47,2.34,2.34,0,0,0,2.54,2.48,2.35,2.35,0,0,0,2.55-2.48,2.3,2.3,0,0,0-2.58-2.47Z"/><path class="a" d="M90.31,30.67H87.73a1.08,1.08,0,0,1-1.12-.8L79.13,11c-.23-.58-.09-.95.52-.95h2.76c.56,0,.78.34,1,.8L89,26.94l5.62-16.09c.26-.57.51-.8,1.08-.8H98.2c.69,0,.85.36.6.93L91.31,29.87c-.2.46-.44.8-1,.8Z"/><path class="a" d="M66.67,25.38c0,4.8,3.31,5.59,5.7,5.59a15.65,15.65,0,0,0,3.37-.35C77,30.26,77,30,77,29.47V28c0-.58-.27-.76-.81-.63a18.93,18.93,0,0,1-2.57.3c-2.66-.18-2.9-1-2.9-3.62V13.22H76c.57,0,.8-.23.8-.81V10.8c0-.57-.26-.8-.8-.8H70.7V5a.72.72,0,0,0-.81-.8H68.27c-.63,0-.94.23-1,.86l-.52,5-3,.37c-.62.06-.85.37-.85,1v.94a.72.72,0,0,0,.8.81h3V25.38Z"/><path class="a" d="M30.83,13l-.29-2.33c-.13-.57-.46-.64-.93-.64H27.8c-.57,0-.8.23-.8.8v19c0,.57.23.8.8.8h2.41c.57,0,.8-.23.8-.8V15.46a8.67,8.67,0,0,1,6-1.94c.75,0,1.82.3,1.82-.51V10.66c0-.53-.32-.83-1.33-.83-2.54,0-4.25.65-6.68,3.19Z"/></svg>