<svg version="1.1" id="logo-ps3" xmlns="http://www.w3.org/2000/svg" xmlns:xlink="http://www.w3.org/1999/xlink" x="0px" y="0px"
	 viewBox="0 0 1598.2 324.7" style="enable-background:new 0 0 1598.2 324.7;" xml:space="preserve">
<title>logo-ps3</title>
<path d="M973.7,0H774.1c-61.6,0-91.7,38-91.7,87.3v150.1c0,30.6-14.5,52.6-45.1,52.6H462.8c-1.3,0-2.3,1-2.3,2.3c0,0,0,0,0,0l0,0
	v30.1c0,1.3,1,2.3,2.3,2.3h197.6c61.5,0,91.7-37.8,91.7-87.2V87.3c0-30.6,14.5-52.6,45.1-52.6h176.6c1.2,0,2.3-0.9,2.3-2.2
	c0,0,0,0,0,0V2.3C976,1,975,0,973.7,0C973.7,0,973.7,0,973.7,0L973.7,0"/>
<path d="M386.2,0H2.2C1,0,0,1,0,2.3c0,0,0,0,0,0l0,0v30.1c0,1.3,1,2.3,2.3,2.3c0,0,0,0,0,0h360.9c30.6,0,45.1,22,45.1,52.6
	s-14.5,52.6-45.1,52.6H77.7C33.4,139.9,0,177.1,0,226.5v95.9c0,1.3,1,2.3,2.3,2.3h65.1c1.2,0,2.3-1,2.3-2.3v-95.9
	c0-30.6,17.6-51.9,42.9-51.9h273.6c61.6,0,91.7-37.8,91.7-87.2S447.7,0,386.2,0"/>
<path d="M1492.5,158.3c-1-1-1-2.6,0-3.6c19-15.8,28.5-39.7,28.5-67.3C1521,38,1490.8,0,1429.3,0h-383.9c-1.3,0-2.3,1-2.3,2.3v30.1
	c0,1.3,1,2.3,2.3,2.3h360.9c30.6,0,45.1,22,45.1,52.6s-14.5,52.6-45.1,52.6h-360.9c-1.3,0-2.3,1-2.3,2.3v30.1c0,1.3,1,2.3,2.3,2.3
	h360.9c39.8,0.3,45,39,45,58.9v4c0,30.6-14.5,52.6-45.1,52.6h-360.8c-1.3,0-2.3,1-2.3,2.3v30.1c0,1.3,1,2.3,2.3,2.3h383.9
	c61.6,0,91.7-40.9,91.7-87.3v-3.9C1521,203.9,1511.5,175.7,1492.5,158.3"/>
<polyline points="1553.2,302.9 1561.2,302.9 1561.2,324.6 1564.3,324.6 1564.3,302.9 1572.3,302.9 1572.3,300.1 1553.2,300.1 "/>
<polyline points="1593.8,300.1 1586.8,320.9 1579.8,300.1 1575.3,300.1 1575.3,324.6 1578.6,324.6 1578.6,304.7 1585.2,324.6 
	1588.4,324.6 1595,304.7 1595,324.6 1598.2,324.6 1598.2,300.1 "/>
</svg>
