<svg xmlns="http://www.w3.org/2000/svg" viewBox="0 0 278.8 329.89"><title>android</title><path d="M258.4,107.09a20.42,20.42,0,0,0-20.4,20.4v85a20.4,20.4,0,0,0,40.8,0v-85A20.42,20.42,0,0,0,258.4,107.09Z"/><path d="M20.4,107.09A20.42,20.42,0,0,0,0,127.49v85a20.4,20.4,0,0,0,40.8,0v-85A20.42,20.42,0,0,0,20.4,107.09Z"/><path d="M48.4,110.59v131.9a22,22,0,0,0,22,22H85v45a20.4,20.4,0,0,0,40.8,0v-45H153v45a20.4,20.4,0,0,0,40.8,0v-45h14.6a22,22,0,0,0,22-22V110.59Z"/><path d="M230.37,103.39h0a78.13,78.13,0,0,0-2.88-20.94c-5.62-20.11-19.1-37.3-37.25-48.62-1-.63-2.05-1.24-3.09-1.84s-2.1-1.16-3.16-1.72l14.39-26A2.92,2.92,0,0,0,197.28.36a3,3,0,0,0-1.4-.36,2.9,2.9,0,0,0-2.54,1.49L178.78,27.75c-1.1-.49-2.21-1-3.34-1.4s-2.26-.88-3.4-1.29a98.42,98.42,0,0,0-65.28,0c-1.15.41-2.28.84-3.4,1.29s-2.24.91-3.34,1.4L85.46,1.49a2.9,2.9,0,1,0-5.07,2.82l14.39,26c-1.06.56-2.12,1.13-3.16,1.72s-2.08,1.21-3.09,1.84C70.38,45.15,56.9,62.34,51.28,82.45a78.13,78.13,0,0,0-2.88,20.94h182Zm-133-48.5a7.5,7.5,0,0,1,3.2.72,7.61,7.61,0,0,1,4.4,6.88c0,.32,0,.64-.06.95a7.6,7.6,0,1,1-7.54-8.55Zm84,0a7.6,7.6,0,1,1-7.54,8.54c0-.31-.06-.62-.06-.94a7.61,7.61,0,0,1,4.4-6.88A7.5,7.5,0,0,1,181.4,54.89Z"/></svg>