<svg version="1.1" id="logo-switch" xmlns="http://www.w3.org/2000/svg" xmlns:xlink="http://www.w3.org/1999/xlink" x="0px" y="0px"
	 viewBox="0 0 526.2 110.2" style="enable-background:new 0 0 526.2 110.2;" xml:space="preserve">
<title>logo-switch</title>
<path d="M16.7,33.2c0,5.6,4.5,10.1,10.1,10.1c5.6,0,10.1-4.5,10.1-10.1s-4.5-10.1-10.1-10.1c0,0,0,0,0,0
	C21.2,23.1,16.7,27.6,16.7,33.2"/>
<path d="M50.8,1.1H27.5C12.3,1.1,0,13.3,0,28.5v52.2c0,15.2,12.3,27.4,27.4,27.4c0,0,0,0,0,0h23.4c0.4,0,0.8-0.3,0.8-0.8
	c0,0,0,0,0,0V1.8C51.6,1.4,51.3,1.1,50.8,1.1 M43,99.5H27.5c-10.4,0-18.8-8.4-18.8-18.8c0,0,0,0,0,0V28.5c0-10.4,8.4-18.8,18.8-18.8
	H43V99.5z"/>
<path d="M79.6,1.1H63c-0.4,0-0.7,0.3-0.7,0.7v105.6c0,0.4,0.4,0.8,0.8,0.8l0,0h16.5c15.2,0,27.4-12.3,27.5-27.4V28.5
	C107,13.3,94.8,1.1,79.6,1.1 M83.5,70.8c-6,0-10.8-4.8-10.8-10.8c0-6,4.8-10.8,10.8-10.8c6,0,10.8,4.8,10.8,10.8
	C94.4,65.9,89.5,70.8,83.5,70.8C83.5,70.8,83.5,70.8,83.5,70.8"/>
<path d="M294.2,108.2h13.2V48.7h-13.2V108.2z M493.3,108.2h12.3V48.7h-12.3v23.4h-27.8V48.7h-12.3v59.5h12.3V84.4h27.8V108.2z
	 M341,108.2h12.8V61.3h18.6V48.7H322v12.6h19L341,108.2z M133.3,103.5c8.1,4.1,17,6.3,26,6.3c18.9,0,28.9-6.6,28.9-19
	c0-8.8-4.4-14.7-27.2-18.7l-0.4-0.1c-7.3-1.3-13.5-2.4-14.1-6.6c-0.1-1.2,0.3-2.4,1.1-3.3c2-2.3,6.5-3.5,13.4-3.5
	c7.7,0,15.4,2.9,18.2,4.1l4.2-10.3c-7.3-2.9-15.1-4.4-23-4.6c-12.8,0-26.5,6.2-26.5,17.9c0,9.4,6.6,14.2,23.7,17.2
	c12,2.1,18.6,3.2,18.4,8.4c-0.1,2.9-2.3,7.6-15.9,7.6c-7.4,0.1-14.8-1.9-21.2-5.6L133.3,103.5z M413.3,46.8
	c-17.5,0-31.7,14.2-31.8,31.7c0,17.5,14.2,31.7,31.7,31.8c10.6,0,20.5-5.3,26.4-14.1l-9.6-8.4c-3.4,5.7-9.6,9.2-16.3,9.2
	c-10.2,0.5-18.9-7.4-19.4-17.6S401.7,60.5,412,60c0.6,0,1.1,0,1.7,0c6.7,0,12.9,3.5,16.3,9.2l9.7-8.4
	C433.8,52,423.9,46.7,413.3,46.8 M248.2,108.2h14.3l16.9-59.5h-12.9l-11.5,43.1l-12.6-43.1h-10.6l-12.5,43l-11.4-43H195l16.8,59.5
	h14.3L237.2,69L248.2,108.2z M319.2,1.1v31.5h24.5v-5.8h-18.1v-7.4h16.8v-5.7h-16.7V6.8h18.1V1.1L319.2,1.1z M188,32.6h7V1.1h-7
	V32.6z M279.6,32.6h6.8V7.8h9.9V1.1h-26.7v6.7h10.1V32.6z M491.2,0c-9.3,0-16.8,7.5-16.8,16.8s7.5,16.8,16.8,16.8
	c9.3,0,16.8-7.5,16.8-16.8c0,0,0,0,0,0C508,7.5,500.5,0,491.2,0 M491.2,26.6c-5.4,0-9.8-4.4-9.8-9.8s4.4-9.8,9.8-9.8
	c5.4,0,9.8,4.4,9.8,9.8c0,0,0,0,0,0C501,22.2,496.6,26.6,491.2,26.6C491.2,26.6,491.2,26.6,491.2,26.6 M424.8,32.6h13
	c8.8,0.1,16.1-6.9,16.2-15.8C453.9,8,446.6,1,437.8,1.1h-13L424.8,32.6z M438.1,26h-6.9V7.7h6.9c5-0.2,9.3,3.8,9.4,8.8
	c0.2,5-3.8,9.3-8.8,9.4C438.6,26,438.4,26,438.1,26 M158,32.6h6.2V1.1h-6.4v20.7L142.4,1.1H136v31.5h6.4V11.5L158,32.6z M240.8,32.6
	h6.2V1.1h-6.4v20.7L225.1,1.1h-6.4v31.5h6.4V11.5L240.8,32.6z M391.9,32.6h6.2V1.1h-6.4v20.7L376.2,1.1h-6.4v31.5h6.4V11.5
	L391.9,32.6z M526.2,100.5v7.6h-1.3v-5.8l-2,5.8l0,0h-1.3l0,0l-2-5.8v5.8h-1.4v-7.6h2.1l1.9,5.6l1.9-5.6L526.2,100.5L526.2,100.5z
	 M513.1,108.2V102h-2.5v-1.5h6.4v1.5h-2.4v6.2L513.1,108.2z"/>
</svg>
