<svg version="1.1" id="Layer_1" xmlns="http://www.w3.org/2000/svg" xmlns:xlink="http://www.w3.org/1999/xlink" x="0px" y="0px"
	 viewBox="0 0 250 30" style="enable-background:new 0 0 250 30;" xml:space="preserve">
<path d="M130.6,27c0,0.3-0.3,0.6-0.6,0.6h-10.9c-0.3,0-0.6-0.3-0.6-0.6v-7.9c0-0.3,0.3-0.6,0.6-0.6H130c0.3,0,0.6,0.3,0.6,0.6V27z
	 M130.1,16.1H119c-1.6,0-2.9,1.3-2.9,2.9v7.9c0,1.6,1.3,2.9,2.9,2.9h11.1c1.6,0,2.9-1.3,2.9-2.9V19C133,17.4,131.7,16.1,130.1,16.1"
	/>
<path d="M2.3,4.3v10.2h-2.6V0.7h2.2l10.4,10.1V0.7h2h0.5v13.8h-2C12.8,14.5,2.3,4.3,2.3,4.3z"/>
<path d="M28,4.3v10.2h-2.6V0.7h2.2L38,10.8V0.7h2h0.5v13.8h-2L28,4.3z"/>
<path d="M81.1,4.3v10.2h-2.6V0.7h2.2l10.4,10.1V0.7h2h0.5v13.8h-2L81.1,4.3z"/>
<path d="M20.9,0.7h0.5v13.8h-2.6V0.7H20.9z"/>
<path d="M57.9,0.7h0.5v2.4h-6.2v11.4h-2.7V3.1h-6.2V0.7h14.5H57.9z"/>
<path d="M74.2,0.7h0.5v2.4H63.8v3.1h8.5v2.4h-8.5v3.6h10.9v2.4H61.2V0.8h13V0.7z"/>
<path d="M107.8,12.1H100v-9h0.1h7.8c2.5,0,3.3,2.4,3.3,4.5S110.3,12.1,107.8,12.1 M112.1,2.7c-1-1.3-2.5-2-4.3-2H97.6v13.8h10.2
	c1.8,0,3.3-0.7,4.3-2c0.9-1.2,1.4-2.9,1.4-4.9S113,3.9,112.1,2.7"/>
<path d="M130.6,11.6c0,0.3-0.3,0.6-0.6,0.6h-10.9c-0.3,0-0.6-0.3-0.6-0.6V3.7c0-0.3,0.3-0.6,0.6-0.6H130c0.3,0,0.6,0.3,0.6,0.6V11.6
	z M130.1,0.7H119c-1.6,0-2.9,1.3-2.9,2.9v8c0,1.6,1.3,2.9,2.9,2.9h11.1c1.6,0,2.9-1.3,2.9-2.9v-8C133,2,131.7,0.7,130.1,0.7"/>
<path d="M213.1,24.2c2.6,1,8.2,1.9,12.6,1.9c4.8,0,6.8-1.6,6.8-3.7c0-1.8-1.8-2.9-7.1-4.9c-7.1-2.6-12.2-4.7-12.2-9.3
	c0-4.8,6.2-7.6,15.7-7.6c5.1,0,6.8,0.3,10.1,0.9v4.6c-3.2-0.6-6-1.6-10.4-1.6c-4.7,0-6.7,1.5-6.7,3c0,2.2,3.1,3.3,8.5,5.2
	c7.5,2.7,11.7,4.8,11.7,9.3c0,4.7-5.2,8-17.1,8c-4.8,0-8.2-0.3-11.9-0.9L213.1,24.2L213.1,24.2z"/>
<path d="M188,4.6h-5.6v21.3h5.6c8.6,0,14.1-3.7,14.1-10.6S196.7,4.6,188,4.6 M203.1,27.9c-2.8,1.3-8,2.1-12.6,2.1h-17.6V0.7h17.6
	c4.6,0,9.9,0.8,12.7,2.1c6.8,3.1,9,7.9,9,12.6c0,4.6-2.2,9.5-9,12.6"/>
<path d="M160.5,13.9c0,0,8.2-1.3,8.2-6.4c0-5-8.7-7-18-7c-8.4,0-13.9,1-13.9,1V6c3.8-0.9,7.4-1.7,12.4-1.7c5.3,0,9.4,1.6,9.4,3.8
	c0,2.7-4,4.3-12.7,4.3h-4v4.1h3.7c9.1,0,14.3,1.4,14.3,4.7c0,3-4.6,4.8-10.4,4.8c-5,0-9.6-1.1-13.4-2.1v4.9
	c1.8,0.3,6.6,1.3,15.4,1.3c9.8,0,18.4-3.2,18.4-8.7C169.9,16.7,164,14,160.5,13.9"/>
<path d="M244.5,25.9h-0.9v-0.5h2.4v0.5h-0.9v2.8h-0.6V25.9z"/>
<path d="M249.1,26L249.1,26c-0.1,0.4-0.9,2.6-0.9,2.6h-0.5c0,0-0.6-2.3-0.7-2.7l0,0c0,0.4-0.2,2.7-0.2,2.7h-0.6l0.2-3.2h0.8
	c0,0,0.6,2.1,0.7,2.4l0,0c0.1-0.4,0.7-2.4,0.7-2.4h0.8l0.2,3.2H249C249,28.6,249.1,26.5,249.1,26z"/>
</svg>
