<svg xmlns="http://www.w3.org/2000/svg" viewBox="0 0 180 145.84"><defs><style>.a{fill-rule:evenodd;}</style></defs><title>oculus</title><path class="a" d="M64.87.05C80.39,0,95.92,0,111.44,0A54.61,54.61,0,0,1,127,1.77a39.32,39.32,0,0,1,3,74.78A50.23,50.23,0,0,1,112,79.3q-22.56,0-45.14,0a46.52,46.52,0,0,1-19.14-3.7A39.27,39.27,0,0,1,39.12,9,40,40,0,0,1,56.43,1a58.23,58.23,0,0,1,8.44-.9ZM56.44,29a12.86,12.86,0,0,0-3.81,17.21,13.73,13.73,0,0,0,10.62,6.51l53.84,0a14.17,14.17,0,0,0,8.27-3.86,12.46,12.46,0,0,0,3.68-7.1A12.8,12.8,0,0,0,124.92,30a15.42,15.42,0,0,0-10.5-3.61H66A16.14,16.14,0,0,0,56.44,29Z"/><path class="a" d="M104.79,99.07c2.37,0,4.74,0,7.11,0V145c-2.37,0-4.74,0-7.11,0q0-23,0-45.92Z"/><path class="a" d="M160.48,115.64a15.16,15.16,0,0,1,9.93-1.74,18.62,18.62,0,0,1,8.2,3.27c-1.22,1.57-2.37,3.18-3.51,4.81a20.49,20.49,0,0,0-3.56-1.52c-2.37-.86-6.43-1.1-8.19,1a2.25,2.25,0,0,0,.84,3.32c2.4,1.37,5.28,1.43,7.85,2.33s5.42,2.29,6.88,4.8a8.4,8.4,0,0,1,.58,7,10,10,0,0,1-6.2,5.95c-6.4,2.19-13.75.44-18.89-3.83,1.23-1.69,2.46-3.38,3.79-5,2.7,1.85,5.8,3.39,9.15,3.38,1.91.09,4.1-.19,5.41-1.73a2.6,2.6,0,0,0-.73-3.84,9.57,9.57,0,0,0-3.78-1.47c-2.91-.69-6-1.16-8.54-2.79a7.47,7.47,0,0,1-3.59-6.49,8.81,8.81,0,0,1,4.36-7.48Z"/><path class="a" d="M41.38,117.94c5.71-4.8,14.73-4.72,20.55-.14-1.39,1.86-2.87,3.64-4.3,5.47a11,11,0,0,0-7.55-1.68A7.69,7.69,0,0,0,44,126c-1.74,3.64-.89,8.53,2.38,11a9.51,9.51,0,0,0,11.87-.88c1.7,1.62,3.27,3.36,4.94,5-5.58,5.9-15.82,6.31-21.94,1a16.7,16.7,0,0,1,.09-24.19Z"/><path class="a" d="M12.75,114.72a16,16,0,0,1,10.52,1.81,14.84,14.84,0,0,1,7,9,16.81,16.81,0,0,1-1.51,12.69,15.12,15.12,0,0,1-10,7.12,16.22,16.22,0,0,1-11-1.67A14.76,14.76,0,0,1,.8,135.1a16.32,16.32,0,0,1,1.08-12.62,14.92,14.92,0,0,1,10.87-7.76ZM13,121.8a7.83,7.83,0,0,0-5.3,4.66,9.15,9.15,0,0,0-.06,7.15,7.92,7.92,0,0,0,6.53,5,9.76,9.76,0,0,0,4.73-.58,8,8,0,0,0,4.78-6.18,9.48,9.48,0,0,0-1.28-6.8,8.36,8.36,0,0,0-5.5-3.47,11.64,11.64,0,0,0-3.9.24Z"/><path class="a" d="M119.72,115.22c2.36,0,4.73,0,7.1,0q0,7.11,0,14.23c0,2.49.27,5.21,1.82,7.27,2.75,3.54,8.93,3.18,11.38-.53a10.22,10.22,0,0,0,1.4-5.59q0-7.7,0-15.39h7.11q0,14.89,0,29.77c-2.06.06-4.13,0-6.19,0-.05-.94-.13-1.88-.22-2.81-4.87,4.31-12.94,4.68-18,.48a12.78,12.78,0,0,1-4.2-8.75c-.46-6.23-.15-12.48-.24-18.71Z"/><path class="a" d="M67.72,133.06c-.2-6-.11-11.9-.12-17.86,2.37,0,4.74,0,7.12,0,0,5,0,10.07,0,15.1,0,2.36.43,5,2.09,6.78a7.39,7.39,0,0,0,11-.8,10.55,10.55,0,0,0,1.58-6l-.06-15c2.34,0,4.68,0,7,0,.06,9.93,0,19.86,0,29.79-2,0-4.09.1-6.12,0-.17-.9-.19-1.83-.28-2.74-5.15,4.56-14,4.73-18.85-.37-2.28-2.32-3.17-5.61-3.43-8.77Z"/></svg>