<svg version="1.1" id="logo-wiiu" xmlns="http://www.w3.org/2000/svg" xmlns:xlink="http://www.w3.org/1999/xlink" x="0px" y="0px"
	 viewBox="0 0 2641.8 743" style="enable-background:new 0 0 2641.8 743;" xml:space="preserve">
<title>logo-wiiu</title>
<path d="M2514.9,5.4h53.2v9.9h-20.9v55.7h-11.5V15.4h-20.8V5.4z"/>
<path d="M2573.7,5.4h16.2l18.2,51.4h0.2l17.7-51.4h16v65.7h-10.9V20.4h-0.2l-18.2,50.7h-9.5l-18.2-50.7h-0.2v50.7h-10.9L2573.7,5.4z
	"/>
<path id="_56666168" d="M2020,256.3c0,170.6,201.4,146.2,201.4,26.9V0.7H2020V256.3z"/>
<path id="_56603080" d="M1742.3,435.5c0,84.2,58.1,134.4,143.4,134.4h483.9c72,0,130.1-49.5,130.1-121.1V95
	c0-43-31.9-89.6-71.7-89.6h-112.2v291c0,221.1-385.3,219.4-385.3,4.7V0.7h-85.3c-55.6,0-103.2,35.1-103.2,89.6L1742.3,435.5
	L1742.3,435.5z"/>
<path id="_56604928" d="M1072.4,84.6c0,45.9,38.7,84.6,87.1,84.6c50.9,0,90.7-37.6,90.7-84.6c0-47.3-39.8-84.6-90.7-84.6
	C1111.1-0.4,1072.4,37.3,1072.4,84.6z"/>
<path id="_56605920" d="M1236.9,738V252.7h-149.8V738H1236.9z"/>
<path id="_56605848" d="M1376.3,84.6c0,45.9,39.8,84.6,88.5,84.6c49.5,0,89.6-37.6,89.6-84.6c0-47.3-39.8-84.6-89.6-84.6
	C1416.1-0.4,1376.3,37.3,1376.3,84.6z"/>
<path id="_56607936" d="M1540.8,738V252.7h-150.2V738H1540.8z"/>
<path id="_56607472" d="M848.4,40.9L717.5,555.2c0,0-100.3-386-117.5-441.9c-15.8-54.5-49.5-78.5-96.8-78.5
	c-48.4,0-81,24.4-98.2,78.5c-15.8,55.6-116.1,441.9-116.1,441.9L157.4,40.9H0c0,0,151.2,548.4,172,612.5
	c15.8,49.5,54.5,89.6,110,89.6c65.2,0,95.7-47.3,109-89.6C405.7,609.7,503.6,248,503.6,248S601.8,610,615,653.4
	c14.7,42.3,44.8,89.6,109,89.6c57,0,94.3-39.8,111.5-89.6c20.4-64.2,172-612.5,172-612.5L848.4,40.9z"/>
</svg>
