<svg aria-hidden="true" focusable="false" data-prefix="fas" data-icon="terminal" role="img" xmlns="http://www.w3.org/2000/svg" viewBox="0 0 250 250">
 <g>
  <line stroke="#4087ED" id="svg_2" y2="130.55939" x2="106.17968" y1="233.96096" x1="26.86718" stroke-width="19" fill="none"/>
  <ellipse stroke="#4087ED" transform="rotate(34.17884826660156 137.81227111816398,84.1106643676758) " ry="59.12191" rx="38.39063" id="svg_3" cy="84.11066" cx="137.81228" stroke-width="10" fill="none"/>
  <path transform="rotate(-3.7185921669006348 162.97097778320284,130.5277404785156) " stroke="#4087ED" d="m159.51784,27.87502c5.5478,1.81787 6.40357,2.02094 7.18258,2.4505c0.58935,0.32498 1.48464,0.56683 2.26478,0.92722c0.54815,0.25322 1.34471,0.9492 1.88378,1.29704c0.81392,0.5252 1.51354,0.8032 2.0669,1.07021c0.97597,0.47091 1.56182,0.82123 2.16499,1.20386c0.86031,0.54575 1.52837,1.00638 1.98751,1.31844c0.93082,0.63264 1.62348,1.1086 2.08082,1.41447c0.87865,0.58766 1.51526,0.96982 2.09239,1.37546c0.92113,0.64741 1.40731,1.11107 1.87996,1.58123c0.78749,0.78336 1.25172,1.26214 2.02063,2.06458c0.343,0.35796 0.85696,0.9803 1.22945,1.47361c0.49015,0.64915 1.10499,1.49852 1.86824,2.57859c2.09114,2.95915 3.4388,4.9049 4.94732,7.16658c1.6812,2.52058 3.46647,5.30137 5.26055,8.3521c1.89344,3.21966 3.7979,6.62756 5.48769,10.28335c3.48228,7.53374 4.76196,11.59146 5.94226,15.69008c1.18956,4.1307 2.14714,8.36134 2.9433,12.64676c0.79971,4.30454 1.43773,8.65325 1.92998,13.02229c0.9817,8.71333 1.24435,13.06369 1.47741,17.37867c0.23096,4.27577 0.35433,8.51309 0.31332,12.69802c-0.04047,4.12839 -0.1908,8.20086 -0.63012,12.17944c-0.85671,7.75843 -1.74901,11.47836 -2.71671,15.09402c-0.9545,3.56633 -2.11543,7.02706 -3.43133,10.37813c-1.3024,3.31667 -2.747,6.53935 -4.33983,9.64497c-3.14217,6.12648 -4.94104,9.00859 -6.73947,11.83285c-1.7736,2.78527 -3.62183,5.45866 -5.55873,7.98611c-1.89773,2.47636 -3.84377,4.83268 -5.92562,6.94896c-3.99991,4.06608 -6.20032,5.71368 -8.37424,7.22539c-2.11556,1.47112 -4.28686,2.73663 -6.47947,3.79874c-2.13612,1.03474 -4.28705,1.90343 -6.44452,2.5291c-4.14211,1.20122 -6.21487,1.43558 -8.20652,1.59377c-1.92148,0.15261 -3.78436,0.1376 -5.54592,-0.08284c-1.68252,-0.21056 -3.29015,-0.55401 -4.68984,-1.20944c-2.61282,-1.22347 -3.60318,-2.30673 -4.41153,-3.40314c-0.80407,-1.09062 -1.38517,-2.36065 -1.73721,-3.70754c-0.35952,-1.37547 -0.51646,-2.8545 -0.39194,-4.35128c0.26012,-3.12708 0.89673,-4.69133 1.5209,-6.25634c0.6393,-1.60292 1.42692,-3.17379 2.25203,-4.74112c0.8268,-1.57051 1.70728,-3.09742 2.5141,-4.63382c1.54614,-2.94425 2.17988,-4.38461 2.68201,-5.8065c0.48514,-1.37373 0.84588,-2.75549 1.04012,-4.13849c0.19293,-1.37372 0.25517,-2.78196 0.09667,-4.19213c-0.33277,-2.96078 -0.88964,-4.48393 -1.47067,-6.04704c-0.60803,-1.63571 -1.37096,-3.29103 -2.24155,-4.96882c-0.90268,-1.73962 -1.91505,-3.49441 -3.02775,-5.25493c-2.31157,-3.65737 -3.62308,-5.46463 -4.95403,-7.30063c-1.34928,-1.8613 -2.75261,-3.71221 -4.19948,-5.54999c-1.4536,-1.8463 -2.93845,-3.67239 -4.46155,-5.46057c-3.02271,-3.54879 -4.58001,-5.23755 -6.11153,-6.90008c-1.49915,-1.6274 -2.9771,-3.1917 -4.40681,-4.70178c-1.37141,-1.44849 -2.6849,-2.81762 -3.90014,-4.12955c-2.17336,-2.34628 -3.08136,-3.40027 -3.87678,-4.36798c-0.71265,-0.86701 -1.31486,-1.66687 -1.84029,-2.38069l-0.44778,-0.63832l-0.37789,-0.566l-0.31577,-0.49685" id="svg_10" stroke-linecap="null" stroke-linejoin="null" stroke-dasharray="null" stroke-width="5" fill="none"/>
 </g>
</svg> 