<svg version="1.1" xmlns="http://www.w3.org/2000/svg" xmlns:xlink="http://www.w3.org/1999/xlink" viewBox="0 0 1300 1300" width="300" height="300">
	<g>
		<g>
			<path fill="#fff" d="M946.739,918.41H194.25C114.712,918.41,50,853.698,50,774.159c0-79.542,64.712-144.254,144.25-144.254
				h4.698c-9.856-24.701-15.002-51.282-15.002-77.977c0-115.879,94.277-210.156,210.156-210.156
				c57.522,0,111.38,23.037,150.85,63.882C582.407,330.63,660.278,281.59,745.195,281.59c123.31,0,223.632,100.322,223.632,223.632
				c0,2.605-0.05,5.238-0.141,7.886c47.104,5.1,90.78,26.5,124.201,61.131c36.831,38.162,57.113,88.201,57.113,140.906
				C1150,827.224,1058.819,918.41,946.739,918.41z M194.25,657.331c-64.417,0-116.824,52.407-116.824,116.824
				s52.407,116.828,116.824,116.828h752.488c96.955,0,175.835-78.88,175.835-175.839c0-93.247-75.815-172.051-169.005-175.663
				c-3.773-0.145-7.316-1.84-9.799-4.683c-2.483-2.846-3.685-6.589-3.317-10.346c0.628-6.478,0.949-12.948,0.949-19.23
				c0-108.189-88.017-196.206-196.206-196.206c-81.084,0-154.841,50.957-183.541,126.803c-1.753,4.633-5.866,7.959-10.759,8.705
				c-4.882,0.754-9.814-1.205-12.864-5.104c-34.941-44.625-87.401-70.222-143.929-70.222c-100.758,0-182.73,81.972-182.73,182.73
				c0,29.664,7.304,59.153,21.12,85.278c2.25,4.251,2.104,9.37-0.375,13.487c-2.479,4.121-6.937,6.638-11.746,6.638H194.25z"/>
		</g>
		<g>
			<path fill="#fff" d="M785.703,583.823c-7.572,0-13.713-6.141-13.713-13.713c0-39.249-31.929-71.178-71.178-71.178
				c-7.572,0-13.713-6.141-13.713-13.713s6.141-13.713,13.713-13.713c54.37,0,98.604,44.235,98.604,98.604
				C799.416,577.682,793.275,583.823,785.703,583.823z"/>
		</g>
	</g>
</svg>
