<svg version="1.1" xmlns="http://www.w3.org/2000/svg" xmlns:xlink="http://www.w3.org/1999/xlink" viewBox="0 0 1300 1300" width="400" height="400">
<g>
	<g>
		<path fill="#fff" d="M952.418,907.43H212.737C123.004,907.43,50,834.426,50,744.693c0-88.785,71.468-161.194,159.896-162.711
			c-1.629-11.705-2.455-23.561-2.455-35.411c0-140.057,113.945-254.002,254.002-254.002c74.391,0,143.907,31.993,192.293,88.141
			c23.327-9.164,47.877-13.802,73.131-13.802c90.547,0,168.394,59.243,192.873,145.357h32.677
			c108.947,0,197.582,88.636,197.582,197.582S1061.364,907.43,952.418,907.43z M212.737,608.615
			c-75.035,0-136.078,61.043-136.078,136.078c0,75.035,61.043,136.078,136.078,136.078h739.681
			c94.248,0,170.923-76.675,170.923-170.923s-76.675-170.923-170.923-170.923h-43.016c-6.215,0-11.608-4.296-12.995-10.354
			c-18.198-79.487-87.914-135.003-169.539-135.003c-24.87,0-48.956,5.188-71.58,15.42c-5.56,2.51-12.117,0.933-15.922-3.846
			c-43.459-54.598-108.311-85.913-177.923-85.913c-125.359,0-227.343,101.984-227.343,227.343c0,15.483,1.569,30.97,4.664,46.032
			c0.803,3.924-0.197,8-2.726,11.106c-2.533,3.105-6.327,4.905-10.332,4.905H212.737z"/>
	</g>
	<g>
		<path fill="#fff" d="M385.349,566.369c-7.361,0-13.33-5.969-13.33-13.33c0-52.85,42.997-95.847,95.847-95.847
			c7.361,0,13.33,5.969,13.33,13.33c0,7.36-5.969,13.33-13.33,13.33c-38.151,0-69.188,31.037-69.188,69.188
			C398.678,560.4,392.709,566.369,385.349,566.369z"/>
	</g>
</g>
</svg>
