<?xml version="1.0" encoding="utf-8"?>
<!-- Generator: Adobe Illustrator 24.1.2, SVG Export Plug-In . SVG Version: 6.00 Build 0)  -->
<svg version="1.1" id="Слой_1" xmlns="http://www.w3.org/2000/svg" xmlns:xlink="http://www.w3.org/1999/xlink" x="0px" y="0px"
	 viewBox="0 0 2048 2048" style="enable-background:new 0 0 2048 2048;" xml:space="preserve">
<style type="text/css">
	.st0{display:none;fill:#7289DA;}
	.st1{fill:#FFFFFF;}
	.st2{opacity:0.5;fill:#CFCFCF;}
	.st3{fill:none;stroke:#7289DA;stroke-width:90;stroke-linecap:round;stroke-linejoin:round;stroke-miterlimit:10;}
	.st4{fill:#7289DA;}
	.st5{display:none;}
	.st6{display:inline;fill:#7289DA;}
</style>
<rect class="st0" width="2048" height="2048"/>
<g id="Слой_2">
	<g id="Слой_5">
		<path class="st1" d="M1518.6,318V1537c0,138.4-112.2,250.6-250.6,250.6H528.5v-1276c0-138.4,112.2-250.6,250.6-250.6h682.4
			c25,0,46.2,16.1,53.9,38.4C1517.5,305.2,1518.6,311.5,1518.6,318z"/>
		<path class="st2" d="M1553.9,353.3v1219.1c0,138.4-112.2,250.6-250.6,250.6H563.8v-35.3h704.1c138.4,0,250.6-112.2,250.6-250.6
			V318c0-6.5-1.1-12.7-3.1-18.5C1537.8,307.1,1553.9,328.3,1553.9,353.3z"/>
	</g>
	<g id="Слой_3">
		<g>
			<g>
				<line class="st3" x1="803.1" y1="481.1" x2="1393.7" y2="481.1"/>
				<path class="st3" d="M826.7,452.7"/>
				<path class="st3" d="M738.9,452.7"/>
			</g>
			<g>
				<line class="st3" x1="1200.4" y1="681.2" x2="1393.2" y2="681.2"/>
				<line class="st3" x1="654.3" y1="681.2" x2="1039.8" y2="681.2"/>
			</g>
			<g>
				<line class="st3" x1="1269" y1="909.7" x2="1393.7" y2="909.7"/>
				<line class="st3" x1="885.6" y1="909.4" x2="1137.2" y2="909.4"/>
				<line class="st3" x1="654.8" y1="909.7" x2="749.6" y2="909.7"/>
			</g>
			<g>
				<line class="st3" x1="1077.3" y1="1138.3" x2="654.8" y2="1138.3"/>
				<line class="st3" x1="1393.7" y1="1138.3" x2="1210.1" y2="1138.3"/>
			</g>
			<g>
				<line class="st3" x1="836.3" y1="1366.8" x2="654.8" y2="1366.8"/>
				<line class="st3" x1="1393.7" y1="1366.8" x2="1013" y2="1366.8"/>
			</g>
			<g>
				<line class="st3" x1="749.6" y1="1595.3" x2="654.8" y2="1595.3"/>
			</g>
			<g>
				<line class="st3" x1="1090.1" y1="1595.3" x2="921.5" y2="1595.3"/>
			</g>
		</g>
		<circle class="st4" cx="1302" cy="1595" r="88.9"/>
	</g>
	<g id="Слой_4" class="st5">
		<path class="st6" d="M1352,760.4H696c-29.8,0-54-24.2-54-54v0c0-29.8,24.2-54,54-54h656c29.8,0,54,24.2,54,54v0
			C1406,736.2,1381.8,760.4,1352,760.4z"/>
		<path class="st6" d="M1352,544H851c-29.8,0-54-24.2-54-54v0c0-29.8,24.2-54,54-54h501c29.8,0,54,24.2,54,54v0
			C1406,519.8,1381.8,544,1352,544z"/>
		<path class="st6" d="M1352,976.8H696c-29.8,0-54-24.2-54-54v0c0-29.8,24.2-54,54-54h656c29.8,0,54,24.2,54,54v0
			C1406,952.6,1381.8,976.8,1352,976.8z"/>
		<path class="st6" d="M1352,1193.2H696c-29.8,0-54-24.2-54-54v0c0-29.8,24.2-54,54-54h656c29.8,0,54,24.2,54,54v0
			C1406,1169,1381.8,1193.2,1352,1193.2z"/>
		<path class="st6" d="M1099,1626H696c-29.8,0-54-24.2-54-54l0,0c0-29.8,24.2-54,54-54h403c29.8,0,54,24.2,54,54l0,0
			C1153,1601.8,1128.8,1626,1099,1626z"/>
		<path class="st6" d="M1283,1626L1283,1626c-29.8,0-54-24.2-54-54l0,0c0-29.8,24.2-54,54-54l0,0c29.8,0,54,24.2,54,54l0,0
			C1337,1601.8,1312.8,1626,1283,1626z"/>
		<path class="st6" d="M1352,1409.6H696c-29.8,0-54-24.2-54-54v0c0-29.8,24.2-54,54-54h656c29.8,0,54,24.2,54,54v0
			C1406,1385.4,1381.8,1409.6,1352,1409.6z"/>
	</g>
</g>
</svg>
