<?xml version="1.0" encoding="UTF-8" standalone="no"?>
<svg width="256px" height="268px" viewBox="0 0 256 268" version="1.1" xmlns="http://www.w3.org/2000/svg" xmlns:xlink="http://www.w3.org/1999/xlink" preserveAspectRatio="xMidYMid">
    <g>
    	  <path id="svg_4" d="m28,17.90625c-1,49 0,192 2,192c2,0 50,-2 50,-2.90625c0,-0.90625 -4,38.90625 -2,38.90625c2,0 47,-27 47,-27.90625c0,-0.90625 49,-5.09375 49,-6c0,-0.90625 54,-37.09375 57,-40.09375c3,-3 18,-15 18,-23c0,-8 -4,-135 -4,-135c0,0 -217,4 -217,4z" stroke-linecap="null" stroke-linejoin="null" stroke-dasharray="null" stroke-width="0" stroke="#000000" fill="#ffffff"/>
        <path d="M17.4579119,0 L0,46.5559188 L0,232.757287 L63.9826001,232.757287 L63.9826001,267.690956 L98.9144853,267.690956 L133.811571,232.757287 L186.171922,232.757287 L256,162.954193 L256,0 L17.4579119,0 Z M40.7166868,23.2632364 L232.73141,23.2632364 L232.73141,151.29179 L191.992415,192.033461 L128,192.033461 L93.11273,226.918947 L93.11273,192.033461 L40.7166868,192.033461 L40.7166868,23.2632364 Z M104.724985,139.668381 L127.999822,139.668381 L127.999822,69.843872 L104.724985,69.843872 L104.724985,139.668381 Z M168.721862,139.668381 L191.992237,139.668381 L191.992237,69.843872 L168.721862,69.843872 L168.721862,139.668381 Z" fill="#5A3E85"></path>
    </g>
</svg>
