<?xml version="1.0" encoding="utf-8"?>
<!-- Generator: Adobe Illustrator 23.0.6, SVG Export Plug-In . SVG Version: 6.00 Build 0)  -->
<svg version="1.1" id="Layer_1" xmlns="http://www.w3.org/2000/svg" xmlns:xlink="http://www.w3.org/1999/xlink" x="0px" y="0px"
	 viewBox="0 0 11 6" style="enable-background:new 0 0 11 6;" xml:space="preserve">
<style type="text/css">
	.st0{fill-rule:evenodd;clip-rule:evenodd;fill:#196D17;}
</style>
<title>ui/down-caret</title>
<desc>Created with Sketch.</desc>
<g id="PMP---Subnav">
	<g id="Subnav-Earth-M" transform="translate(-219.000000, -92.000000)">
		<g id="Page-Content">
			<g id="Nav-768">
				<g id="PMPSubnav" transform="translate(0.004208, 60.000000)">
					<g id="Game-Dropdown" transform="translate(38.000000, 8.000000)">
						<g transform="translate(181.000000, 24.000000)">
							<g id="Down-Caret">
								<path id="Combined-Shape" class="st0" d="M1,4h1v1H1V4z M0,5h1v1H0V5z M10,5h1v1h-1V5z M2,3h1v1H2V3z M3,2h1v1H3V2z M4,1h1
									v1H4V1z M5,0h1v1H5V0z M6,1h1v1H6V1z M7,2h1v1H7V2z M8,3h1v1H8V3z M9,4h1v1H9V4z"/>
							</g>
						</g>
					</g>
				</g>
			</g>
		</g>
	</g>
</g>
</svg>
